<svg width="740" height="749" viewBox="0 0 740 749" fill="none" xmlns="http://www.w3.org/2000/svg">
<path d="M374.367 646.854C224.511 646.854 102.582 524.808 102.582 374.777C102.582 224.746 224.511 102.714 374.367 102.714C524.222 102.714 646.151 224.76 646.151 374.791C646.151 524.822 524.236 646.868 374.367 646.868V646.854ZM374.367 109.302C228.139 109.302 109.177 228.392 109.177 374.777C109.177 521.162 228.139 640.252 374.367 640.252C520.594 640.252 639.557 521.162 639.557 374.777C639.557 228.392 520.594 109.302 374.367 109.302V109.302Z" fill="#FC0012"/>
<path d="M374.367 683.96C204.065 683.96 65.5293 545.261 65.5293 374.791C65.5293 204.321 204.079 65.6079 374.367 65.6079C544.654 65.6079 683.204 204.307 683.204 374.777C683.204 545.247 544.654 683.946 374.367 683.946V683.96ZM374.367 90.3409C217.691 90.3409 90.2357 217.947 90.2357 374.777C90.2357 531.607 217.691 659.213 374.367 659.213C531.042 659.213 658.498 531.621 658.498 374.777C658.498 217.933 531.042 90.3409 374.367 90.3409V90.3409Z" fill="#FC0012"/>
<path opacity="0.7" d="M374.367 740.352C173.017 740.352 9.19824 576.357 9.19824 374.777C9.19824 173.197 173.017 9.21631 374.367 9.21631C575.717 9.21631 739.536 173.211 739.536 374.777C739.536 576.343 575.717 740.338 374.367 740.338V740.352ZM374.367 11.5249C174.283 11.5249 11.5044 174.478 11.5044 374.777C11.5044 575.076 174.283 738.044 374.381 738.044C574.479 738.044 737.258 575.09 737.258 374.777C737.258 174.464 574.465 11.5249 374.367 11.5249V11.5249Z" fill="#FC0012"/>
<path d="M374.367 634.734C231.177 634.734 114.689 518.121 114.689 374.777C114.689 231.433 231.191 114.834 374.367 114.834C517.543 114.834 634.045 231.447 634.045 374.791C634.045 518.135 517.557 634.748 374.367 634.748V634.734ZM374.367 117.129C232.456 117.129 116.996 232.714 116.996 374.777C116.996 516.84 232.456 632.425 374.367 632.425C516.278 632.425 631.739 516.84 631.739 374.777C631.739 232.714 516.278 117.129 374.367 117.129V117.129Z" fill="#FC0012"/>
<path d="M591.581 399.356C605.12 279.28 518.859 170.953 398.913 157.399C278.967 143.846 170.755 230.199 157.217 350.274C143.678 470.349 229.938 578.677 349.884 592.23C469.831 605.784 578.042 519.431 591.581 399.356Z" fill="#FC0012"/>
<path d="M177.644 375.65C177.644 266.878 265.726 178.715 374.367 178.715C483.008 178.715 571.104 266.878 571.104 375.65C571.104 484.422 483.022 572.585 374.367 572.585C265.712 572.585 177.644 484.408 177.644 375.65V375.65Z" fill="#FF8790"/>
<path d="M526.751 380.414C529.852 296.166 464.141 225.352 379.983 222.248C295.825 219.144 225.088 284.925 221.987 369.174C218.887 453.422 284.597 524.236 368.755 527.339C452.913 530.443 523.65 464.663 526.751 380.414Z" fill="#FC0012"/>
<path d="M168.415 375.382C168.415 261.505 260.626 169.195 374.381 169.195C488.137 169.195 580.348 261.505 580.348 375.382C580.348 489.26 488.137 581.57 374.381 581.57C260.626 581.57 168.415 489.26 168.415 375.382V375.382Z" fill="black"/>
<path d="M383.943 10.3705C383.943 15.6634 379.654 19.9568 374.367 19.9568C369.08 19.9568 364.791 15.6634 364.791 10.3705C364.791 5.07761 369.08 0.78418 374.367 0.78418C379.654 0.78418 383.943 5.07761 383.943 10.3705Z" fill="#FC0012"/>
<path d="M383.943 739.198C383.943 744.491 379.654 748.784 374.367 748.784C369.08 748.784 364.791 744.491 364.791 739.198C364.791 733.905 369.08 729.612 374.367 729.612C379.654 729.612 383.943 733.905 383.943 739.198Z" fill="#FC0012"/>
<path d="M10.3514 384.378C5.06421 384.378 0.775391 380.084 0.775391 374.791C0.775391 369.499 5.06421 365.205 10.3514 365.205C15.6386 365.205 19.9274 369.499 19.9274 374.791C19.9274 380.084 15.6386 384.378 10.3514 384.378Z" fill="#FC0012"/>
<path d="M638.544 123.886C634.804 127.63 628.743 127.63 625.003 123.886C621.262 120.141 621.262 114.074 625.003 110.33C628.743 106.585 634.804 106.585 638.544 110.33C642.284 114.074 642.284 120.141 638.544 123.886Z" fill="#FC0012"/>
<path d="M123.745 639.238C120.005 642.983 113.944 642.983 110.204 639.238C106.463 635.494 106.463 629.427 110.204 625.682C113.944 621.938 120.005 621.938 123.745 625.682C127.486 629.427 127.486 635.494 123.745 639.238Z" fill="#FC0012"/>
<path d="M625.003 639.238C621.262 635.494 621.262 629.427 625.003 625.682C628.743 621.938 634.804 621.938 638.544 625.682C642.284 629.427 642.284 635.494 638.544 639.238C634.804 642.983 628.743 642.983 625.003 639.238Z" fill="#FC0012"/>
<path d="M110.204 123.886C106.463 120.141 106.463 114.074 110.204 110.33C113.944 106.585 120.005 106.585 123.745 110.33C127.486 114.074 127.486 120.141 123.745 123.886C120.005 127.63 113.944 127.63 110.204 123.886Z" fill="#FC0012"/>
<path d="M377.179 25.8691H371.555V49.6449H377.179V25.8691Z" fill="#FC0012"/>
<path d="M377.179 699.924H371.555V723.7H377.179V699.924Z" fill="#FC0012"/>
<path d="M365.014 25.9934L359.393 26.1899L360.221 49.9512L365.843 49.7547L365.014 25.9934Z" fill="#FC0012"/>
<path d="M388.505 699.635L382.884 699.831L383.709 723.592L389.33 723.396L388.505 699.635Z" fill="#FC0012"/>
<path d="M352.855 26.4993L347.244 26.8921L348.901 50.6099L354.512 50.2171L352.855 26.4993Z" fill="#FC0012"/>
<path d="M399.849 698.929L394.238 699.322L395.896 723.054L401.507 722.661L399.849 698.929Z" fill="#FC0012"/>
<path d="M340.747 27.5057L335.153 28.0933L337.632 51.7392L343.226 51.1516L340.747 27.5057Z" fill="#FC0012"/>
<path d="M411.116 697.854L405.522 698.442L408.007 722.102L413.6 721.513L411.116 697.854Z" fill="#FC0012"/>
<path d="M328.646 28.8794L323.076 29.6621L326.377 53.2071L331.948 52.4244L328.646 28.8794Z" fill="#FC0012"/>
<path d="M422.384 696.357L416.814 697.141L420.12 720.685L425.69 719.902L422.384 696.357Z" fill="#FC0012"/>
<path d="M316.614 30.656L311.075 31.6338L315.199 55.0483L320.739 54.0706L316.614 30.656Z" fill="#FC0012"/>
<path d="M433.507 694.526L427.968 695.503L432.088 718.918L437.627 717.941L433.507 694.526Z" fill="#FC0012"/>
<path d="M304.664 32.9221L299.162 34.0928L304.1 57.349L309.602 56.1783L304.664 32.9221Z" fill="#FC0012"/>
<path d="M444.646 692.256L439.145 693.428L444.089 716.697L449.591 715.525L444.646 692.256Z" fill="#FC0012"/>
<path d="M292.781 35.5738L287.323 36.936L293.069 60.0055L298.527 58.6433L292.781 35.5738Z" fill="#FC0012"/>
<path d="M455.659 689.614L450.201 690.977L455.947 714.046L461.404 712.684L455.659 689.614Z" fill="#FC0012"/>
<path d="M281.002 38.5769L275.596 40.1289L282.142 62.9836L287.549 61.4316L281.002 38.5769Z" fill="#FC0012"/>
<path d="M466.587 686.572L461.181 688.125L467.735 710.992L473.141 709.439L466.587 686.572Z" fill="#FC0012"/>
<path d="M269.346 42.0549L263.997 43.7949L271.341 66.4204L276.69 64.6804L269.346 42.0549Z" fill="#FC0012"/>
<path d="M477.4 683.149L472.051 684.889L479.39 707.501L484.739 705.761L477.4 683.149Z" fill="#FC0012"/>
<path d="M257.81 45.9569L252.524 47.8818L260.644 70.2252L265.929 68.3003L257.81 45.9569Z" fill="#FC0012"/>
<path d="M488.134 679.305L482.849 681.231L490.976 703.572L496.261 701.645L488.134 679.305Z" fill="#FC0012"/>
<path d="M246.424 50.1983L241.209 52.3076L250.106 74.3521L255.321 72.2428L246.424 50.1983Z" fill="#FC0012"/>
<path d="M498.678 675.174L493.463 677.284L502.369 699.34L507.584 697.23L498.678 675.174Z" fill="#FC0012"/>
<path d="M235.176 54.8987L230.037 57.189L239.697 78.9092L244.836 76.619L235.176 54.8987Z" fill="#FC0012"/>
<path d="M509.061 670.663L503.923 672.953L513.589 694.686L518.727 692.396L509.061 670.663Z" fill="#FC0012"/>
<path d="M224.095 59.9077L219.04 62.377L229.461 83.7573L234.516 81.2881L224.095 59.9077Z" fill="#FC0012"/>
<path d="M519.289 665.756L514.234 668.226L524.65 689.593L529.705 687.124L519.289 665.756Z" fill="#FC0012"/>
<path d="M213.226 65.3897L208.26 68.0332L219.41 89.0259L224.376 86.3825L213.226 65.3897Z" fill="#FC0012"/>
<path d="M529.34 660.547L524.374 663.191L535.534 684.195L540.5 681.55L529.34 660.547Z" fill="#FC0012"/>
<path d="M202.526 71.1887L197.655 74.0049L209.534 94.5932L214.405 91.777L202.526 71.1887Z" fill="#FC0012"/>
<path d="M539.195 654.988L534.324 657.803L546.206 678.406L551.078 675.59L539.195 654.988Z" fill="#FC0012"/>
<path d="M192.056 77.3873L187.286 80.3711L199.879 100.546L204.649 97.5622L192.056 77.3873Z" fill="#FC0012"/>
<path d="M548.854 649.085L544.084 652.068L556.677 672.243L561.447 669.259L548.854 649.085Z" fill="#FC0012"/>
<path d="M181.809 83.9518L177.146 87.0996L190.423 106.813L195.087 103.665L181.809 83.9518Z" fill="#FC0012"/>
<path d="M558.318 642.817L553.655 645.966L566.944 665.688L571.607 662.54L558.318 642.817Z" fill="#FC0012"/>
<path d="M171.774 90.8414L167.225 94.1519L181.188 113.384L185.738 110.074L171.774 90.8414Z" fill="#FC0012"/>
<path d="M567.547 636.174L562.996 639.483L576.964 658.73L581.515 655.42L567.547 636.174Z" fill="#FC0012"/>
<path d="M162.004 98.1144L157.571 101.581L172.193 120.317L176.626 116.85L162.004 98.1144Z" fill="#FC0012"/>
<path d="M576.554 629.179L572.122 632.646L586.756 651.391L591.188 647.923L576.554 629.179Z" fill="#FC0012"/>
<path d="M152.494 105.662L148.186 109.282L163.452 127.495L167.761 123.876L152.494 105.662Z" fill="#FC0012"/>
<path d="M585.291 622.033L580.982 625.653L596.261 643.875L600.569 640.255L585.291 622.033Z" fill="#FC0012"/>
<path d="M143.237 113.597L139.057 117.364L154.949 135.033L159.129 131.265L143.237 113.597Z" fill="#FC0012"/>
<path d="M593.798 614.472L589.619 618.24L605.524 635.917L609.703 632.148L593.798 614.472Z" fill="#FC0012"/>
<path d="M134.276 121.813L130.231 125.726L146.736 142.823L150.78 138.91L134.276 121.813Z" fill="#FC0012"/>
<path d="M602.016 606.678L597.971 610.59L614.482 627.7L618.527 623.788L602.016 606.678Z" fill="#FC0012"/>
<path d="M125.607 130.375L121.7 134.426L138.795 150.952L142.702 146.901L125.607 130.375Z" fill="#FC0012"/>
<path d="M609.956 598.586L606.05 602.637L623.137 619.15L627.044 615.099L609.956 598.586Z" fill="#FC0012"/>
<path d="M117.232 139.217L113.469 143.402L131.129 159.32L134.893 155.136L117.232 139.217Z" fill="#FC0012"/>
<path d="M617.62 590.236L613.856 594.42L631.517 610.339L635.28 606.154L617.62 590.236Z" fill="#FC0012"/>
<path d="M109.178 148.353L105.562 152.667L123.756 167.949L127.372 163.636L109.178 148.353Z" fill="#FC0012"/>
<path d="M624.975 581.57L621.361 585.885L639.571 601.17L643.185 596.856L624.975 581.57Z" fill="#FC0012"/>
<path d="M101.451 157.745L97.9873 162.182L116.711 176.831L120.175 172.395L101.451 157.745Z" fill="#FC0012"/>
<path d="M632.047 572.791L628.584 577.228L647.31 591.875L650.773 587.437L632.047 572.791Z" fill="#FC0012"/>
<path d="M94.0465 167.411L90.7412 171.967L109.969 185.947L113.275 181.391L94.0465 167.411Z" fill="#FC0012"/>
<path d="M638.789 563.656L635.483 568.212L654.712 582.192L658.017 577.636L638.789 563.656Z" fill="#FC0012"/>
<path d="M86.9794 177.337L83.835 182.005L103.539 195.305L106.683 190.636L86.9794 177.337Z" fill="#FC0012"/>
<path d="M645.221 554.269L642.076 558.938L661.78 572.237L664.924 567.569L645.221 554.269Z" fill="#FC0012"/>
<path d="M80.2736 187.502L77.293 192.277L97.4343 204.877L100.415 200.101L80.2736 187.502Z" fill="#FC0012"/>
<path d="M651.31 544.719L648.33 549.495L668.486 562.098L671.465 557.323L651.31 544.719Z" fill="#FC0012"/>
<path d="M73.9305 197.887L71.1182 202.763L91.6865 214.651L94.4988 209.775L73.9305 197.887Z" fill="#FC0012"/>
<path d="M657.069 534.942L654.258 539.818L674.84 551.71L677.652 546.833L657.069 534.942Z" fill="#FC0012"/>
<path d="M67.9512 208.484L65.3105 213.456L86.2808 224.618L88.9214 219.646L67.9512 208.484Z" fill="#FC0012"/>
<path d="M662.432 524.876L659.791 529.848L680.774 541.016L683.414 536.045L662.432 524.876Z" fill="#FC0012"/>
<path d="M62.3261 219.284L59.8613 224.346L81.2097 234.765L83.6745 229.703L62.3261 219.284Z" fill="#FC0012"/>
<path d="M667.507 514.729L665.042 519.791L686.39 530.209L688.855 525.148L667.507 514.729Z" fill="#FC0012"/>
<path d="M57.111 230.298L54.8232 235.442L76.5202 245.112L78.8079 239.968L57.111 230.298Z" fill="#FC0012"/>
<path d="M672.236 504.464L669.949 509.608L691.661 519.281L693.948 514.136L672.236 504.464Z" fill="#FC0012"/>
<path d="M52.2682 241.46L50.1611 246.681L72.182 255.587L74.289 250.366L52.2682 241.46Z" fill="#FC0012"/>
<path d="M676.608 494.026L674.5 499.246L696.532 508.162L698.64 502.941L676.608 494.026Z" fill="#FC0012"/>
<path d="M47.8105 252.813L45.8867 258.104L68.2046 266.236L70.1284 260.945L47.8105 252.813Z" fill="#FC0012"/>
<path d="M680.576 483.39L678.652 488.682L700.983 496.818L702.907 491.527L680.576 483.39Z" fill="#FC0012"/>
<path d="M43.7557 264.28L42.0176 269.635L64.6054 276.982L66.3435 271.627L43.7557 264.28Z" fill="#FC0012"/>
<path d="M684.165 472.595L682.427 477.95L705.028 485.302L706.766 479.947L684.165 472.595Z" fill="#FC0012"/>
<path d="M40.1041 275.883L38.5537 281.296L61.3839 287.849L62.9343 282.437L40.1041 275.883Z" fill="#FC0012"/>
<path d="M687.378 461.729L685.828 467.141L708.672 473.698L710.222 468.286L687.378 461.729Z" fill="#FC0012"/>
<path d="M36.8656 287.657L35.5049 293.12L58.5496 298.872L59.9104 293.409L36.8656 287.657Z" fill="#FC0012"/>
<path d="M690.177 450.674L688.816 456.138L711.861 461.89L713.222 456.426L690.177 450.674Z" fill="#FC0012"/>
<path d="M34.0298 299.502L32.8604 305.009L56.0916 309.953L57.261 304.445L34.0298 299.502Z" fill="#FC0012"/>
<path d="M692.608 439.584L691.438 445.092L714.67 450.035L715.839 444.527L692.608 439.584Z" fill="#FC0012"/>
<path d="M31.6027 311.436L30.626 316.981L54.0154 321.11L54.9921 315.565L31.6027 311.436Z" fill="#FC0012"/>
<path d="M694.759 428.504L693.782 434.049L717.185 438.18L718.162 432.635L694.759 428.504Z" fill="#FC0012"/>
<path d="M29.6129 323.469L28.8301 329.045L52.3492 332.354L53.132 326.778L29.6129 323.469Z" fill="#FC0012"/>
<path d="M696.385 417.232L695.603 422.808L719.136 426.119L719.918 420.543L696.385 417.232Z" fill="#FC0012"/>
<path d="M28.0235 335.494L27.4365 341.094L51.0571 343.575L51.644 337.975L28.0235 335.494Z" fill="#FC0012"/>
<path d="M697.665 405.936L697.077 411.536L720.697 414.021L721.285 408.421L697.665 405.936Z" fill="#FC0012"/>
<path d="M26.8816 347.636L26.4893 353.253L50.1816 354.912L50.574 349.295L26.8816 347.636Z" fill="#FC0012"/>
<path d="M698.61 394.672L698.218 400.289L721.91 401.948L722.302 396.331L698.61 394.672Z" fill="#FC0012"/>
<path d="M26.1426 359.804L25.9463 365.431L49.682 366.261L49.8783 360.634L26.1426 359.804Z" fill="#FC0012"/>
<path d="M699.029 383.291L698.834 388.918L722.584 389.745L722.779 384.117L699.029 383.291Z" fill="#FC0012"/>
<path d="M49.5832 371.962H25.833V377.593H49.5832V371.962Z" fill="#FC0012"/>
<path d="M722.928 371.962H699.164V377.593H722.928V371.962Z" fill="#FC0012"/>
<path d="M49.6713 383.319L25.9355 384.149L26.1318 389.776L49.8676 388.946L49.6713 383.319Z" fill="#FC0012"/>
<path d="M722.615 359.781L698.865 360.611L699.062 366.238L722.811 365.408L722.615 359.781Z" fill="#FC0012"/>
<path d="M50.1494 394.647L26.457 396.306L26.8494 401.923L50.5418 400.264L50.1494 394.647Z" fill="#FC0012"/>
<path d="M721.878 347.61L698.172 349.278L698.566 354.895L722.272 353.227L721.878 347.61Z" fill="#FC0012"/>
<path d="M51.0465 405.974L27.4268 408.463L28.0157 414.063L51.6354 411.573L51.0465 405.974Z" fill="#FC0012"/>
<path d="M720.723 335.509L697.089 338L697.678 343.6L721.311 341.109L720.723 335.509Z" fill="#FC0012"/>
<path d="M52.331 417.248L28.8125 420.562L29.5963 426.137L53.1148 422.824L52.331 417.248Z" fill="#FC0012"/>
<path d="M719.138 323.437L695.604 326.748L696.387 332.324L719.92 329.013L719.138 323.437Z" fill="#FC0012"/>
<path d="M54.0078 428.479L30.6191 432.611L31.5968 438.156L54.9855 434.024L54.0078 428.479Z" fill="#FC0012"/>
<path d="M717.139 311.396L693.736 315.531L694.714 321.076L718.117 316.941L717.139 311.396Z" fill="#FC0012"/>
<path d="M56.084 439.629L32.8545 444.58L34.0259 450.087L57.2554 445.136L56.084 439.629Z" fill="#FC0012"/>
<path d="M714.732 299.429L691.488 304.379L692.659 309.886L715.903 304.936L714.732 299.429Z" fill="#FC0012"/>
<path d="M58.5262 450.707L35.4814 456.459L36.8422 461.922L59.8869 456.171L58.5262 450.707Z" fill="#FC0012"/>
<path d="M711.895 287.665L688.837 293.42L690.198 298.884L713.256 293.129L711.895 287.665Z" fill="#FC0012"/>
<path d="M61.3927 461.696L38.5625 468.25L40.1129 473.662L62.9431 467.109L61.3927 461.696Z" fill="#FC0012"/>
<path d="M708.649 275.85L685.806 282.407L687.356 287.82L710.2 281.262L708.649 275.85Z" fill="#FC0012"/>
<path d="M64.5927 472.581L42.0049 479.928L43.743 485.283L66.3308 477.936L64.5927 472.581Z" fill="#FC0012"/>
<path d="M704.994 264.301L682.393 271.652L684.131 277.007L706.732 269.656L704.994 264.301Z" fill="#FC0012"/>
<path d="M68.2325 483.315L45.916 491.451L47.8407 496.742L70.1572 488.606L68.2325 483.315Z" fill="#FC0012"/>
<path d="M700.944 252.738L678.614 260.879L680.539 266.17L702.869 258.029L700.944 252.738Z" fill="#FC0012"/>
<path d="M72.197 493.945L50.1777 502.855L52.2857 508.076L74.305 499.165L72.197 493.945Z" fill="#FC0012"/>
<path d="M696.489 241.426L674.457 250.342L676.565 255.562L698.597 246.646L696.489 241.426Z" fill="#FC0012"/>
<path d="M76.5123 504.468L54.8154 514.139L57.1032 519.283L78.8001 509.612L76.5123 504.468Z" fill="#FC0012"/>
<path d="M691.655 230.291L669.945 239.967L672.233 245.111L693.943 235.435L691.655 230.291Z" fill="#FC0012"/>
<path d="M81.202 514.791L59.8555 525.213L62.3212 530.274L83.6677 519.852L81.202 514.791Z" fill="#FC0012"/>
<path d="M686.404 219.317L665.058 229.74L667.523 234.801L688.87 224.378L686.404 219.317Z" fill="#FC0012"/>
<path d="M86.2436 524.974L65.2734 536.136L67.9141 541.107L88.8843 529.945L86.2436 524.974Z" fill="#FC0012"/>
<path d="M680.789 208.421L659.809 219.593L662.45 224.564L683.431 213.392L680.789 208.421Z" fill="#FC0012"/>
<path d="M91.6912 534.916L71.125 546.807L73.9382 551.683L94.5044 539.792L91.6912 534.916Z" fill="#FC0012"/>
<path d="M674.836 197.926L654.253 209.817L657.064 214.694L677.647 202.802L674.836 197.926Z" fill="#FC0012"/>
<path d="M97.3992 544.723L77.2578 557.322L80.2384 562.097L100.38 549.498L97.3992 544.723Z" fill="#FC0012"/>
<path d="M668.474 187.508L648.32 200.115L651.301 204.89L671.454 192.283L668.474 187.508Z" fill="#FC0012"/>
<path d="M103.505 554.289L83.8154 567.584L86.9607 572.253L106.651 558.957L103.505 554.289Z" fill="#FC0012"/>
<path d="M661.778 177.383L642.076 190.686L645.221 195.354L664.923 182.051L661.778 177.383Z" fill="#FC0012"/>
<path d="M109.942 563.622L90.7158 577.605L94.0219 582.161L113.248 568.178L109.942 563.622Z" fill="#FC0012"/>
<path d="M654.716 167.447L635.49 181.43L638.796 185.986L658.022 172.002L654.716 167.447Z" fill="#FC0012"/>
<path d="M116.694 572.752L97.9785 587.39L101.441 591.827L120.157 577.189L116.694 572.752Z" fill="#FC0012"/>
<path d="M647.291 157.729L628.564 172.375L632.027 176.813L650.754 162.166L647.291 157.729Z" fill="#FC0012"/>
<path d="M123.76 581.623L105.566 596.906L109.182 601.22L127.376 585.937L123.76 581.623Z" fill="#FC0012"/>
<path d="M639.558 148.331L621.354 163.623L624.969 167.936L643.173 152.645L639.558 148.331Z" fill="#FC0012"/>
<path d="M131.111 590.267L113.461 606.176L117.225 610.361L134.874 594.452L131.111 590.267Z" fill="#FC0012"/>
<path d="M631.524 139.235L613.863 155.153L617.627 159.338L635.287 143.419L631.524 139.235Z" fill="#FC0012"/>
<path d="M138.77 598.621L121.688 615.14L125.596 619.189L142.678 602.67L138.77 598.621Z" fill="#FC0012"/>
<path d="M623.141 130.372L606.047 146.897L609.954 150.948L627.049 134.422L623.141 130.372Z" fill="#FC0012"/>
<path d="M146.735 606.699L130.233 623.799L134.279 627.711L150.78 610.611L146.735 606.699Z" fill="#FC0012"/>
<path d="M614.453 121.808L597.951 138.926L601.999 142.836L618.501 125.718L614.453 121.808Z" fill="#FC0012"/>
<path d="M154.953 614.512L139.064 632.184L143.245 635.951L159.134 618.279L154.953 614.512Z" fill="#FC0012"/>
<path d="M605.488 113.563L589.593 131.248L593.774 135.014L609.669 117.329L605.488 113.563Z" fill="#FC0012"/>
<path d="M163.434 622.073L148.171 640.289L152.48 643.907L167.743 625.691L163.434 622.073Z" fill="#FC0012"/>
<path d="M596.267 105.696L580.995 123.922L585.305 127.541L600.577 109.314L596.267 105.696Z" fill="#FC0012"/>
<path d="M172.189 629.291L157.566 648.027L161.999 651.493L176.621 632.758L172.189 629.291Z" fill="#FC0012"/>
<path d="M586.724 98.0839L572.093 116.831L576.525 120.297L591.156 101.551L586.724 98.0839Z" fill="#FC0012"/>
<path d="M181.199 636.139L167.239 655.374L171.79 658.684L185.75 639.449L181.199 636.139Z" fill="#FC0012"/>
<path d="M576.945 90.8117L562.977 110.058L567.527 113.368L581.495 94.1214L576.945 90.8117Z" fill="#FC0012"/>
<path d="M190.426 642.748L177.148 662.461L181.812 665.609L195.09 645.895L190.426 642.748Z" fill="#FC0012"/>
<path d="M566.925 83.9205L553.64 103.646L558.303 106.793L571.589 87.0683L566.925 83.9205Z" fill="#FC0012"/>
<path d="M199.862 649.038L187.28 669.203L192.051 672.186L204.633 652.021L199.862 649.038Z" fill="#FC0012"/>
<path d="M556.683 77.38L544.094 97.5571L548.864 100.54L561.454 80.363L556.683 77.38Z" fill="#FC0012"/>
<path d="M209.541 654.939L197.666 675.529L202.537 678.345L214.412 657.754L209.541 654.939Z" fill="#FC0012"/>
<path d="M546.157 71.1634L534.278 91.7681L539.15 94.5826L551.028 73.9779L546.157 71.1634Z" fill="#FC0012"/>
<path d="M219.395 660.595L208.249 681.589L213.216 684.232L224.362 663.237L219.395 660.595Z" fill="#FC0012"/>
<path d="M535.478 65.3532L524.329 86.3623L529.296 89.004L540.446 67.995L535.478 65.3532Z" fill="#FC0012"/>
<path d="M229.466 665.81L219.051 687.178L224.106 689.647L234.521 668.279L229.466 665.81Z" fill="#FC0012"/>
<path d="M524.623 59.925L514.205 81.3071L519.261 83.7755L529.678 62.3933L524.623 59.925Z" fill="#FC0012"/>
<path d="M239.689 670.692L230.029 692.413L235.168 694.703L244.828 672.983L239.689 670.692Z" fill="#FC0012"/>
<path d="M513.577 54.8889L503.911 76.6221L509.05 78.9123L518.715 57.1792L513.577 54.8889Z" fill="#FC0012"/>
<path d="M250.102 675.16L241.209 697.207L246.424 699.315L255.318 677.269L250.102 675.16Z" fill="#FC0012"/>
<path d="M502.297 50.1782L493.398 72.2373L498.614 74.3457L507.512 52.2866L502.297 50.1782Z" fill="#FC0012"/>
<path d="M260.632 679.381L252.513 701.724L257.799 703.649L265.918 681.306L260.632 679.381Z" fill="#FC0012"/>
<path d="M490.947 45.9413L482.823 68.2979L488.109 70.2228L496.233 47.8662L490.947 45.9413Z" fill="#FC0012"/>
<path d="M271.331 683.12L263.992 705.732L269.342 707.472L276.681 684.86L271.331 683.12Z" fill="#FC0012"/>
<path d="M479.439 42.0673L472.104 64.6953L477.454 66.4334L484.789 43.8054L479.439 42.0673Z" fill="#FC0012"/>
<path d="M282.129 686.505L275.591 709.362L280.998 710.912L287.537 688.055L282.129 686.505Z" fill="#FC0012"/>
<path d="M467.758 38.6023L461.212 61.4717L466.619 63.0228L473.165 40.1534L467.758 38.6023Z" fill="#FC0012"/>
<path d="M293.072 689.609L287.33 712.68L292.788 714.041L298.53 690.97L293.072 689.609Z" fill="#FC0012"/>
<path d="M455.958 35.5443L450.213 58.6284L455.671 59.9897L461.416 36.9055L455.958 35.5443Z" fill="#FC0012"/>
<path d="M304.093 692.193L299.155 715.449L304.657 716.619L309.595 693.363L304.093 692.193Z" fill="#FC0012"/>
<path d="M444.057 32.879L439.116 56.1489L444.618 57.3196L449.559 34.0497L444.057 32.879Z" fill="#FC0012"/>
<path d="M315.186 694.489L311.07 717.905L316.61 718.881L320.726 695.465L315.186 694.489Z" fill="#FC0012"/>
<path d="M432.104 30.6722L427.985 54.1021L433.525 55.0779L437.643 31.648L432.104 30.6722Z" fill="#FC0012"/>
<path d="M326.389 696.36L323.084 719.905L328.654 720.688L331.959 697.144L326.389 696.36Z" fill="#FC0012"/>
<path d="M420.095 28.8572L416.788 52.4155L422.358 53.1992L425.665 29.6408L420.095 28.8572Z" fill="#FC0012"/>
<path d="M337.636 697.892L335.153 721.538L340.747 722.126L343.23 698.481L337.636 697.892Z" fill="#FC0012"/>
<path d="M408.017 27.4621L405.533 51.1216L411.127 51.7102L413.611 28.0507L408.017 27.4621Z" fill="#FC0012"/>
<path d="M348.891 698.885L347.234 722.603L352.845 722.995L354.502 699.277L348.891 698.885Z" fill="#FC0012"/>
<path d="M395.89 26.5102L394.24 50.2427L399.851 50.6335L401.501 26.901L395.89 26.5102Z" fill="#FC0012"/>
<path d="M360.243 699.678L359.418 723.439L365.039 723.635L365.864 699.874L360.243 699.678Z" fill="#FC0012"/>
<path d="M383.738 25.9789L382.913 49.7544L388.534 49.9499L389.36 26.1744L383.738 25.9789Z" fill="#FC0012"/>
</svg>
