<?xml version="1.0" encoding="utf-8"?>
<svg viewBox="0 0 78 77" xmlns="http://www.w3.org/2000/svg" xmlns:xlink="http://www.w3.org/1999/xlink">
    <style>:root>svg{display:none}:root>svg:target{display:block}</style>
    <svg id="header-arrow" width="10" height="6" viewBox="0 0 10 6" fill="none" xmlns="http://www.w3.org/2000/svg">
        <path d="M1 1L5 5L9 1"/>
    </svg>

    <svg id="user" viewBox="0 0 24 24" xmlns="http://www.w3.org/2000/svg">
        <path d="M12 3C12.7417 3 13.4667 3.21993 14.0834 3.63199C14.7001 4.04404 15.1807 4.62971 15.4646 5.31494C15.7484 6.00016 15.8226 6.75416 15.6779 7.48159C15.5333 8.20902 15.1761 8.8772 14.6517 9.40165C14.1272 9.9261 13.459 10.2833 12.7316 10.4279C12.0042 10.5726 11.2502 10.4984 10.5649 10.2145C9.87972 9.93072 9.29405 9.45007 8.88199 8.83339C8.46994 8.2167 8.25 7.49168 8.25 6.75C8.25 5.75544 8.64509 4.80161 9.34835 4.09835C10.0516 3.39509 11.0054 3 12 3ZM12 1.5C10.9617 1.5 9.94662 1.80791 9.08326 2.38478C8.2199 2.96166 7.54699 3.7816 7.14963 4.74091C6.75227 5.70022 6.64831 6.75582 6.85088 7.77422C7.05345 8.79262 7.55347 9.72808 8.28769 10.4623C9.02192 11.1965 9.95738 11.6966 10.9758 11.8991C11.9942 12.1017 13.0498 11.9977 14.0091 11.6004C14.9684 11.203 15.7883 10.5301 16.3652 9.66674C16.9421 8.80339 17.25 7.78835 17.25 6.75C17.25 5.35761 16.6969 4.02226 15.7123 3.03769C14.7277 2.05312 13.3924 1.5 12 1.5Z" stroke-width="0.5"/>
        <path d="M19.5 22.5H18V18.75C18 18.2575 17.903 17.7699 17.7145 17.3149C17.5261 16.86 17.2499 16.4466 16.9017 16.0983C16.5534 15.7501 16.14 15.4739 15.6851 15.2855C15.2301 15.097 14.7425 15 14.25 15H9.75C8.75544 15 7.80161 15.3951 7.09835 16.0983C6.39509 16.8016 6 17.7554 6 18.75V22.5H4.5V18.75C4.5 17.3576 5.05312 16.0223 6.03769 15.0377C7.02226 14.0531 8.35761 13.5 9.75 13.5H14.25C15.6424 13.5 16.9777 14.0531 17.9623 15.0377C18.9469 16.0223 19.5 17.3576 19.5 18.75V22.5Z" stroke-width="0.5"/>
    </svg>

    <svg id="search" width="24" height="24" viewBox="0 0 24 24" xmlns="http://www.w3.org/2000/svg">
        <path d="M21.7492 20.6896L16.0851 15.0255C17.4462 13.3915 18.1249 11.2958 17.98 9.17412C17.8352 7.05248 16.878 5.06836 15.3075 3.63451C13.737 2.20065 11.6742 1.42746 9.54821 1.47577C7.42218 1.52408 5.39663 2.39018 3.89292 3.89389C2.3892 5.39761 1.5231 7.42316 1.47479 9.54918C1.42648 11.6752 2.19967 13.738 3.63353 15.3085C5.06738 16.8789 7.05151 17.8362 9.17314 17.981C11.2948 18.1258 13.3906 17.4471 15.0246 16.0861L20.6886 21.7502L21.7492 20.6896ZM2.9992 9.75018C2.9992 8.41515 3.39508 7.11011 4.13678 6.00008C4.87848 4.89005 5.93269 4.02488 7.16609 3.51399C8.39949 3.0031 9.75669 2.86943 11.0661 3.12988C12.3754 3.39033 13.5782 4.0332 14.5222 4.97721C15.4662 5.92121 16.1091 7.12395 16.3695 8.43332C16.63 9.74269 16.4963 11.0999 15.9854 12.3333C15.4745 13.5667 14.6093 14.6209 13.4993 15.3626C12.3893 16.1043 11.0842 16.5002 9.7492 16.5002C7.9596 16.4982 6.24386 15.7864 4.97842 14.521C3.71298 13.2555 3.00119 11.5398 2.9992 9.75018Z" stroke-width="0.5"/>
    </svg>

    <svg id="cart" viewBox="0 0 24 24" xmlns="http://www.w3.org/2000/svg">
        <g clip-path="url(#clip0_22_188)">
            <path d="M7.5 22.5C8.32843 22.5 9 21.8284 9 21C9 20.1716 8.32843 19.5 7.5 19.5C6.67157 19.5 6 20.1716 6 21C6 21.8284 6.67157 22.5 7.5 22.5Z" stroke-width="0.5"/>
            <path d="M18 22.5C18.8284 22.5 19.5 21.8284 19.5 21C19.5 20.1716 18.8284 19.5 18 19.5C17.1716 19.5 16.5 20.1716 16.5 21C16.5 21.8284 17.1716 22.5 18 22.5Z" stroke-width="0.5"/>
            <path d="M21 5.25015H4.365L3.75 2.10015C3.71494 1.9282 3.62068 1.77398 3.48364 1.66435C3.3466 1.55472 3.17546 1.49661 3 1.50015H0V3.00015H2.385L5.25 17.4002C5.28506 17.5721 5.37932 17.7263 5.51636 17.836C5.6534 17.9456 5.82454 18.0037 6 18.0002H19.5V16.5002H6.615L6 13.5002H19.5C19.6734 13.5044 19.8429 13.4484 19.9796 13.3418C20.1163 13.2351 20.2119 13.0843 20.25 12.9152L21.75 6.16515C21.7751 6.05387 21.7745 5.93832 21.7483 5.8273C21.722 5.71628 21.6708 5.61271 21.5985 5.52448C21.5261 5.43625 21.4347 5.36568 21.3309 5.31814C21.2272 5.2706 21.114 5.24735 21 5.25015ZM18.9 12.0002H5.715L4.665 6.75015H20.0625L18.9 12.0002Z" stroke-width="0.5"/>
        </g>
        <defs>
            <clipPath id="clip0_22_188">
                <rect width="24" height="24" fill="white"/>
            </clipPath>
        </defs>
    </svg>

    <svg id="play" width="12" height="14" viewBox="0 0 12 14" xmlns="http://www.w3.org/2000/svg">
        <path d="M11.1113 6.99978L0.444662 13.1582L0.444662 0.84138L11.1113 6.99978Z"/>
    </svg>

    <svg id="prev-arrow" width="26" height="20" viewBox="0 0 26 20" fill="none" xmlns="http://www.w3.org/2000/svg">
        <path d="M26 9.72656L3.09091 9.72656" stroke-width="2"/>
        <path d="M10.7273 18.4541L2 9.72683L10.7273 0.999555" stroke-width="2"/>
    </svg>

    <svg id="next-arrow" width="26" height="20" viewBox="0 0 26 20" fill="none" xmlns="http://www.w3.org/2000/svg">
        <path d="M0 9.72754H22.9091" stroke-width="2"/>
        <path d="M15.2727 1L24 9.72727L15.2727 18.4545" stroke-width="2"/>
    </svg>

    <svg id="close" width="12" height="12" viewBox="0 0 12 12" xmlns="http://www.w3.org/2000/svg">
        <path d="M12 1.05L10.95 0L6 4.95L1.05 0L0 1.05L4.95 6L0 10.95L1.05 12L6 7.05L10.95 12L12 10.95L7.05 6L12 1.05Z"/>
    </svg>

    <svg id="social-linked-in" width="32" height="32" viewBox="0 0 32 32" xmlns="http://www.w3.org/2000/svg">
        <path d="M29.6313 0H2.3625C1.05625 0 0 1.03125 0 2.30625V29.6875C0 30.9625 1.05625 32 2.3625 32H29.6313C30.9375 32 32 30.9625 32 29.6938V2.30625C32 1.03125 30.9375 0 29.6313 0ZM9.49375 27.2687H4.74375V11.9937H9.49375V27.2687ZM7.11875 9.9125C5.59375 9.9125 4.3625 8.68125 4.3625 7.1625C4.3625 5.64375 5.59375 4.4125 7.11875 4.4125C8.6375 4.4125 9.86875 5.64375 9.86875 7.1625C9.86875 8.675 8.6375 9.9125 7.11875 9.9125ZM27.2687 27.2687H22.525V19.8438C22.525 18.075 22.4937 15.7937 20.0562 15.7937C17.5875 15.7937 17.2125 17.725 17.2125 19.7188V27.2687H12.475V11.9937H17.025V14.0813H17.0875C17.7188 12.8813 19.2688 11.6125 21.575 11.6125C26.3813 11.6125 27.2687 14.775 27.2687 18.8875V27.2687Z"/>
    </svg>

    <svg id="social-twitter" width="32" height="26" viewBox="0 0 32 26" xmlns="http://www.w3.org/2000/svg">
        <path d="M10.0669 26C22.1394 26 28.7444 15.9957 28.7444 7.32254C28.7444 7.04129 28.7381 6.75379 28.7256 6.47254C30.0105 5.54334 31.1193 4.3924 32 3.07379C30.8034 3.60619 29.5329 3.9539 28.2319 4.10504C29.6017 3.28394 30.6274 1.99402 31.1187 0.474417C29.8301 1.23814 28.4208 1.77688 26.9513 2.06754C25.9611 1.01548 24.652 0.318883 23.2262 0.0854624C21.8005 -0.147958 20.3376 0.0947949 19.0637 0.77619C17.7897 1.45758 16.7757 2.53967 16.1785 3.85514C15.5812 5.17062 15.4339 6.64621 15.7594 8.05379C13.15 7.92285 10.5972 7.245 8.26664 6.06419C5.93604 4.88338 3.87959 3.22598 2.23062 1.19942C1.39253 2.64439 1.13608 4.35425 1.51337 5.98152C1.89067 7.60878 2.87342 9.03132 4.26188 9.96004C3.2195 9.92695 2.19997 9.6463 1.2875 9.14129V9.22254C1.28657 10.7389 1.8108 12.2088 2.77108 13.3824C3.73136 14.556 5.06843 15.3608 6.555 15.66C5.58941 15.9242 4.57598 15.9627 3.59313 15.7725C4.01261 17.0766 4.82876 18.2172 5.92769 19.0352C7.02662 19.8531 8.35349 20.3075 9.72313 20.335C7.3979 22.1615 4.52557 23.1522 1.56875 23.1475C1.04438 23.1467 0.520532 23.1146 0 23.0513C3.00381 24.9784 6.49804 26.0019 10.0669 26Z"/>
    </svg>

    <svg id="social-facebook" width="32" height="32" viewBox="0 0 32 32" xmlns="http://www.w3.org/2000/svg">
        <path d="M32 16C32 7.16344 24.8366 0 16 0C7.16344 0 0 7.16344 0 16C0 23.9859 5.85094 30.6053 13.5 31.8056V20.625H9.4375V16H13.5V12.475C13.5 8.465 15.8888 6.25 19.5434 6.25C21.2934 6.25 23.125 6.5625 23.125 6.5625V10.5H21.1075C19.12 10.5 18.5 11.7334 18.5 13V16H22.9375L22.2281 20.625H18.5V31.8056C26.1491 30.6053 32 23.9859 32 16Z"/>
    </svg>

    <svg id="social-instagram" width="32" height="32" viewBox="0 0 32 32" xmlns="http://www.w3.org/2000/svg">
        <path d="M16 2.88125C20.275 2.88125 20.7813 2.9 22.4625 2.975C24.025 3.04375 24.8688 3.30625 25.4313 3.525C26.175 3.8125 26.7125 4.1625 27.2688 4.71875C27.8313 5.28125 28.175 5.8125 28.4625 6.55625C28.6813 7.11875 28.9438 7.96875 29.0125 9.525C29.0875 11.2125 29.1063 11.7188 29.1063 15.9875C29.1063 20.2625 29.0875 20.7688 29.0125 22.45C28.9438 24.0125 28.6813 24.8563 28.4625 25.4188C28.175 26.1625 27.825 26.7 27.2688 27.2563C26.7063 27.8188 26.175 28.1625 25.4313 28.45C24.8688 28.6688 24.0188 28.9313 22.4625 29C20.775 29.075 20.2688 29.0938 16 29.0938C11.725 29.0938 11.2188 29.075 9.5375 29C7.975 28.9313 7.13125 28.6688 6.56875 28.45C5.825 28.1625 5.2875 27.8125 4.73125 27.2563C4.16875 26.6938 3.825 26.1625 3.5375 25.4188C3.31875 24.8563 3.05625 24.0063 2.9875 22.45C2.9125 20.7625 2.89375 20.2563 2.89375 15.9875C2.89375 11.7125 2.9125 11.2063 2.9875 9.525C3.05625 7.9625 3.31875 7.11875 3.5375 6.55625C3.825 5.8125 4.175 5.275 4.73125 4.71875C5.29375 4.15625 5.825 3.8125 6.56875 3.525C7.13125 3.30625 7.98125 3.04375 9.5375 2.975C11.2188 2.9 11.725 2.88125 16 2.88125ZM16 0C11.6563 0 11.1125 0.01875 9.40625 0.09375C7.70625 0.16875 6.5375 0.44375 5.525 0.8375C4.46875 1.25 3.575 1.79375 2.6875 2.6875C1.79375 3.575 1.25 4.46875 0.8375 5.51875C0.44375 6.5375 0.16875 7.7 0.09375 9.4C0.01875 11.1125 0 11.6562 0 16C0 20.3438 0.01875 20.8875 0.09375 22.5938C0.16875 24.2938 0.44375 25.4625 0.8375 26.475C1.25 27.5313 1.79375 28.425 2.6875 29.3125C3.575 30.2 4.46875 30.75 5.51875 31.1562C6.5375 31.55 7.7 31.825 9.4 31.9C11.1063 31.975 11.65 31.9937 15.9938 31.9937C20.3375 31.9937 20.8813 31.975 22.5875 31.9C24.2875 31.825 25.4563 31.55 26.4688 31.1562C27.5188 30.75 28.4125 30.2 29.3 29.3125C30.1875 28.425 30.7375 27.5313 31.1438 26.4813C31.5375 25.4625 31.8125 24.3 31.8875 22.6C31.9625 20.8938 31.9813 20.35 31.9813 16.0063C31.9813 11.6625 31.9625 11.1188 31.8875 9.4125C31.8125 7.7125 31.5375 6.54375 31.1438 5.53125C30.75 4.46875 30.2063 3.575 29.3125 2.6875C28.425 1.8 27.5313 1.25 26.4813 0.84375C25.4625 0.45 24.3 0.175 22.6 0.1C20.8875 0.01875 20.3438 0 16 0Z"/>
        <path d="M16 7.78125C11.4625 7.78125 7.78125 11.4625 7.78125 16C7.78125 20.5375 11.4625 24.2188 16 24.2188C20.5375 24.2188 24.2188 20.5375 24.2188 16C24.2188 11.4625 20.5375 7.78125 16 7.78125ZM16 21.3312C13.0563 21.3312 10.6687 18.9438 10.6687 16C10.6687 13.0563 13.0563 10.6687 16 10.6687C18.9438 10.6687 21.3312 13.0563 21.3312 16C21.3312 18.9438 18.9438 21.3312 16 21.3312Z"/>
        <path d="M26.4625 7.4562C26.4625 8.5187 25.6 9.37495 24.5438 9.37495C23.4813 9.37495 22.625 8.51245 22.625 7.4562C22.625 6.3937 23.4875 5.53745 24.5438 5.53745C25.6 5.53745 26.4625 6.39995 26.4625 7.4562Z"/>
    </svg>

    <svg id="social-youtube" width="48" height="48" viewBox="0 0 48 48" fill="none" xmlns="http://www.w3.org/2000/svg">
        <path d="M0 24C0 10.7452 10.7452 0 24 0C37.2548 0 48 10.7452 48 24C48 37.2548 37.2548 48 24 48C10.7452 48 0 37.2548 0 24Z" fill="#FF0000"/>
        <path d="M36.2652 18.0732C35.9708 16.9422 35.1033 16.0515 34.0018 15.7493C32.0056 15.2 24.0002 15.2 24.0002 15.2C24.0002 15.2 15.9948 15.2 13.9984 15.7493C12.8969 16.0515 12.0294 16.9422 11.735 18.0732C11.2002 20.123 11.2002 24.4 11.2002 24.4C11.2002 24.4 11.2002 28.6768 11.735 30.7267C12.0294 31.8577 12.8969 32.7484 13.9984 33.0508C15.9948 33.6 24.0002 33.6 24.0002 33.6C24.0002 33.6 32.0056 33.6 34.0018 33.0508C35.1033 32.7484 35.9708 31.8577 36.2652 30.7267C36.8002 28.6768 36.8002 24.4 36.8002 24.4C36.8002 24.4 36.8002 20.123 36.2652 18.0732Z" fill="white"/>
        <path d="M21.6001 28.8V20.8L28.0001 24.8002L21.6001 28.8Z" fill="#FF0000"/>
    </svg>

    <svg id="download" viewBox="0 0 32 32" xmlns="http://www.w3.org/2000/svg">
        <path d="M26 24V28H6V24H4V28C4 28.5304 4.21071 29.0391 4.58579 29.4142C4.96086 29.7893 5.46957 30 6 30H26C26.5304 30 27.0391 29.7893 27.4142 29.4142C27.7893 29.0391 28 28.5304 28 28V24H26Z"/>
        <path d="M26 14L24.59 12.59L17 20.17V2H15V20.17L7.41 12.59L6 14L16 24L26 14Z"/>
    </svg>

    <svg id="pdf" viewBox="0 0 32 32" xmlns="http://www.w3.org/2000/svg">
        <path d="M30 18V16H24V26H26V22H29V20H26V18H30Z"/>
        <path d="M19 26H15V16H19C19.7954 16.0009 20.5579 16.3172 21.1204 16.8796C21.6828 17.4421 21.9991 18.2046 22 19V23C21.9991 23.7954 21.6828 24.5579 21.1204 25.1204C20.5579 25.6828 19.7954 25.9991 19 26ZM17 24H19C19.2651 23.9997 19.5193 23.8943 19.7068 23.7068C19.8943 23.5193 19.9997 23.2651 20 23V19C19.9997 18.7349 19.8943 18.4807 19.7068 18.2932C19.5193 18.1057 19.2651 18.0003 19 18H17V24Z"/>
        <path d="M11 16H6V26H8V23H11C11.5302 22.9993 12.0385 22.7883 12.4134 22.4134C12.7883 22.0385 12.9993 21.5302 13 21V18C12.9994 17.4698 12.7885 16.9614 12.4135 16.5865C12.0386 16.2115 11.5302 16.0006 11 16ZM8 21V18H11L11.001 21H8Z"/>
        <path d="M22 14.0001V10.0001C22.0036 9.86867 21.9786 9.73802 21.9268 9.61717C21.875 9.49633 21.7976 9.38815 21.7 9.3001L14.7 2.3001C14.612 2.20243 14.5038 2.12502 14.3829 2.07323C14.2621 2.02143 14.1314 1.99648 14 2.0001H4C3.47005 2.00166 2.96224 2.21287 2.58751 2.58761C2.21277 2.96234 2.00156 3.47015 2 4.0001V28.0001C2 28.5305 2.21071 29.0392 2.58579 29.4143C2.96086 29.7894 3.46957 30.0001 4 30.0001H20V28.0001H4V4.0001H12V10.0001C12.0016 10.5301 12.2128 11.0379 12.5875 11.4126C12.9622 11.7873 13.47 11.9985 14 12.0001H20V14.0001H22ZM14 10.0001V4.4001L19.6 10.0001H14Z"/>
    </svg>

    <svg id="check" viewBox="0 0 15 11" fill="none" xmlns="http://www.w3.org/2000/svg">
        <path d="M1 4.45455L5.54545 9L13.5455 1" stroke-width="2"/>
    </svg>

    <svg id="multicolor" width="20" height="20" viewBox="0 0 20 20" fill="none" xmlns="http://www.w3.org/2000/svg">
        <mask id="mask0_309_8837" style="mask-type:alpha" maskUnits="userSpaceOnUse" x="0" y="0" width="20" height="20">
            <circle cx="10" cy="10" r="9.5" fill="white" stroke="#E7E7E7"/>
        </mask>
        <g mask="url(#mask0_309_8837)">
            <path d="M10 0H22V10H10V0Z" fill="#18C452"/>
            <path d="M-2 0H10V10H-2V0Z" fill="#FF0000"/>
            <path d="M10 10H22V20H10V10Z" fill="#FBF224"/>
            <path d="M-2 10H10V20H-2V10Z" fill="#3F74FA"/>
        </g>
    </svg>

    <svg id="star" width="13" height="12" viewBox="0 0 13 12" xmlns="http://www.w3.org/2000/svg">
        <path d="M6.5 0.0234375L7.95934 4.51483H12.6819L8.86126 7.29066L10.3206 11.782L6.5 9.00622L2.6794 11.782L4.13874 7.29066L0.318133 4.51483H5.04066L6.5 0.0234375Z"/>
    </svg>

    <svg id="star-big" viewBox="0 0 64 60" xmlns="http://www.w3.org/2000/svg">
        <path d="M32.1229 0L39.5042 22.7173L63.3906 22.7173L44.0661 36.7574L51.4474 59.4747L32.1229 45.4346L12.7984 59.4747L20.1797 36.7574L0.8552 22.7173L24.7416 22.7173L32.1229 0Z" />
    </svg>

    <svg id="history" width="24" height="24" viewBox="0 0 24 24" xmlns="http://www.w3.org/2000/svg">
        <path d="M15.4425 16.5L11.25 12.3075V5.25H12.75V11.685L16.5 15.4425L15.4425 16.5Z" />
        <path d="M12 1.5C10.6012 1.5002 9.21669 1.78108 7.92842 2.32602C6.64015 2.87096 5.47433 3.66887 4.5 4.6725V1.5H3V7.5H9V6H5.31C6.71702 4.43647 8.62724 3.41515 10.7089 3.1134C12.7905 2.81166 14.9121 3.24856 16.7052 4.34823C18.4983 5.4479 19.8495 7.14086 20.5243 9.1331C21.1991 11.1253 21.1547 13.291 20.399 15.2539C19.6433 17.2169 18.2239 18.8531 16.3873 19.8785C14.5507 20.9039 12.4131 21.2536 10.3455 20.8669C8.27793 20.4803 6.41111 19.3816 5.06925 17.7618C3.72739 16.142 2.99525 14.1034 3 12H1.5C1.5 14.0767 2.11581 16.1068 3.26957 17.8335C4.42332 19.5602 6.0632 20.906 7.98182 21.7007C9.90045 22.4955 12.0116 22.7034 14.0484 22.2982C16.0852 21.8931 17.9562 20.8931 19.4246 19.4246C20.8931 17.9562 21.8931 16.0852 22.2982 14.0484C22.7034 12.0116 22.4955 9.90045 21.7007 7.98182C20.906 6.0632 19.5602 4.42332 17.8335 3.26957C16.1068 2.11581 14.0767 1.5 12 1.5Z" />
    </svg>

    <svg id="accordion-arrow" width="17" height="10" viewBox="0 0 17 10" fill="none" xmlns="http://www.w3.org/2000/svg">
        <path d="M1 1L8.5 8.5L16 0.999997" stroke-width="2"/>
    </svg>

    <svg id="telegram" xmlns="http://www.w3.org/2000/svg"  viewBox="0 0 50 50">
        <path d="M46.137,6.552c-0.75-0.636-1.928-0.727-3.146-0.238l-0.002,0C41.708,6.828,6.728,21.832,5.304,22.445	c-0.259,0.09-2.521,0.934-2.288,2.814c0.208,1.695,2.026,2.397,2.248,2.478l8.893,3.045c0.59,1.964,2.765,9.21,3.246,10.758	c0.3,0.965,0.789,2.233,1.646,2.494c0.752,0.29,1.5,0.025,1.984-0.355l5.437-5.043l8.777,6.845l0.209,0.125	c0.596,0.264,1.167,0.396,1.712,0.396c0.421,0,0.825-0.079,1.211-0.237c1.315-0.54,1.841-1.793,1.896-1.935l6.556-34.077	C47.231,7.933,46.675,7.007,46.137,6.552z M22,32l-3,8l-3-10l23-17L22,32z"/>
    </svg>

    <svg id="viber" xmlns="http://www.w3.org/2000/svg"  viewBox="0 0 50 50">
        <path d="M 44.78125 13.15625 C 44 10.367188 42.453125 8.164063 40.1875 6.605469 C 37.328125 4.632813 34.039063 3.9375 31.199219 3.511719 C 27.269531 2.925781 23.710938 2.84375 20.316406 3.257813 C 17.136719 3.648438 14.742188 4.269531 12.558594 5.273438 C 8.277344 7.242188 5.707031 10.425781 4.921875 14.734375 C 4.539063 16.828125 4.28125 18.71875 4.132813 20.523438 C 3.789063 24.695313 4.101563 28.386719 5.085938 31.808594 C 6.046875 35.144531 7.722656 37.527344 10.210938 39.09375 C 10.84375 39.492188 11.65625 39.78125 12.441406 40.058594 C 12.886719 40.214844 13.320313 40.367188 13.675781 40.535156 C 14.003906 40.6875 14.003906 40.714844 14 40.988281 C 13.972656 43.359375 14 48.007813 14 48.007813 L 14.007813 49 L 15.789063 49 L 16.078125 48.71875 C 16.269531 48.539063 20.683594 44.273438 22.257813 42.554688 L 22.472656 42.316406 C 22.742188 42.003906 22.742188 42.003906 23.019531 42 C 25.144531 41.957031 27.316406 41.875 29.472656 41.757813 C 32.085938 41.617188 35.113281 41.363281 37.964844 40.175781 C 40.574219 39.085938 42.480469 37.355469 43.625 35.035156 C 44.820313 32.613281 45.527344 29.992188 45.792969 27.019531 C 46.261719 21.792969 45.929688 17.257813 44.78125 13.15625 Z M 35.382813 33.480469 C 34.726563 34.546875 33.75 35.289063 32.597656 35.769531 C 31.753906 36.121094 30.894531 36.046875 30.0625 35.695313 C 23.097656 32.746094 17.632813 28.101563 14.023438 21.421875 C 13.277344 20.046875 12.761719 18.546875 12.167969 17.09375 C 12.046875 16.796875 12.054688 16.445313 12 16.117188 C 12.050781 13.769531 13.851563 12.445313 15.671875 12.046875 C 16.367188 11.890625 16.984375 12.136719 17.5 12.632813 C 18.929688 13.992188 20.058594 15.574219 20.910156 17.347656 C 21.28125 18.125 21.113281 18.8125 20.480469 19.390625 C 20.347656 19.511719 20.210938 19.621094 20.066406 19.730469 C 18.621094 20.816406 18.410156 21.640625 19.179688 23.277344 C 20.492188 26.0625 22.671875 27.933594 25.488281 29.09375 C 26.230469 29.398438 26.929688 29.246094 27.496094 28.644531 C 27.574219 28.566406 27.660156 28.488281 27.714844 28.394531 C 28.824219 26.542969 30.4375 26.726563 31.925781 27.78125 C 32.902344 28.476563 33.851563 29.210938 34.816406 29.917969 C 36.289063 31 36.277344 32.015625 35.382813 33.480469 Z M 26.144531 15 C 25.816406 15 25.488281 15.027344 25.164063 15.082031 C 24.617188 15.171875 24.105469 14.804688 24.011719 14.257813 C 23.921875 13.714844 24.289063 13.199219 24.835938 13.109375 C 25.265625 13.035156 25.707031 13 26.144531 13 C 30.476563 13 34 16.523438 34 20.855469 C 34 21.296875 33.964844 21.738281 33.890625 22.164063 C 33.808594 22.652344 33.386719 23 32.90625 23 C 32.851563 23 32.796875 22.996094 32.738281 22.984375 C 32.195313 22.894531 31.828125 22.378906 31.917969 21.835938 C 31.972656 21.515625 32 21.1875 32 20.855469 C 32 17.628906 29.371094 15 26.144531 15 Z M 31 21 C 31 21.550781 30.550781 22 30 22 C 29.449219 22 29 21.550781 29 21 C 29 19.347656 27.652344 18 26 18 C 25.449219 18 25 17.550781 25 17 C 25 16.449219 25.449219 16 26 16 C 28.757813 16 31 18.242188 31 21 Z M 36.710938 23.222656 C 36.605469 23.6875 36.191406 24 35.734375 24 C 35.660156 24 35.585938 23.992188 35.511719 23.976563 C 34.972656 23.851563 34.636719 23.316406 34.757813 22.777344 C 34.902344 22.140625 34.976563 21.480469 34.976563 20.816406 C 34.976563 15.957031 31.019531 12 26.160156 12 C 25.496094 12 24.835938 12.074219 24.199219 12.21875 C 23.660156 12.34375 23.125 12.003906 23.003906 11.464844 C 22.878906 10.925781 23.21875 10.390625 23.757813 10.269531 C 24.539063 10.089844 25.347656 10 26.160156 10 C 32.125 10 36.976563 14.851563 36.976563 20.816406 C 36.976563 21.628906 36.886719 22.4375 36.710938 23.222656 Z"/>
    </svg>

    <svg id="whats-app" xmlns="http://www.w3.org/2000/svg" viewBox="0 0 50 50">
        <path d="M25,2C12.318,2,2,12.318,2,25c0,3.96,1.023,7.854,2.963,11.29L2.037,46.73c-0.096,0.343-0.003,0.711,0.245,0.966 C2.473,47.893,2.733,48,3,48c0.08,0,0.161-0.01,0.24-0.029l10.896-2.699C17.463,47.058,21.21,48,25,48c12.682,0,23-10.318,23-23 S37.682,2,25,2z M36.57,33.116c-0.492,1.362-2.852,2.605-3.986,2.772c-1.018,0.149-2.306,0.213-3.72-0.231 c-0.857-0.27-1.957-0.628-3.366-1.229c-5.923-2.526-9.791-8.415-10.087-8.804C15.116,25.235,13,22.463,13,19.594 s1.525-4.28,2.067-4.864c0.542-0.584,1.181-0.73,1.575-0.73s0.787,0.005,1.132,0.021c0.363,0.018,0.85-0.137,1.329,1.001 c0.492,1.168,1.673,4.037,1.819,4.33c0.148,0.292,0.246,0.633,0.05,1.022c-0.196,0.389-0.294,0.632-0.59,0.973 s-0.62,0.76-0.886,1.022c-0.296,0.291-0.603,0.606-0.259,1.19c0.344,0.584,1.529,2.493,3.285,4.039 c2.255,1.986,4.158,2.602,4.748,2.894c0.59,0.292,0.935,0.243,1.279-0.146c0.344-0.39,1.476-1.703,1.869-2.286 s0.787-0.487,1.329-0.292c0.542,0.194,3.445,1.604,4.035,1.896c0.59,0.292,0.984,0.438,1.132,0.681 C37.062,30.587,37.062,31.755,36.57,33.116z"/>
    </svg>

    <svg id="youtube" xmlns="http://www.w3.org/2000/svg"  viewBox="0 0 50 50">
        <path d="M44.9,14.5c-0.4-2.2-2.3-3.8-4.5-4.3C37.1,9.5,31,9,24.4,9c-6.6,0-12.8,0.5-16.1,1.2c-2.2,0.5-4.1,2-4.5,4.3C3.4,17,3,20.5,3,25s0.4,8,0.9,10.5c0.4,2.2,2.3,3.8,4.5,4.3c3.5,0.7,9.5,1.2,16.1,1.2s12.6-0.5,16.1-1.2c2.2-0.5,4.1-2,4.5-4.3c0.4-2.5,0.9-6.1,1-10.5C45.9,20.5,45.4,17,44.9,14.5z M19,32V18l12.2,7L19,32z"/>
    </svg>

    <svg id="facebook" xmlns="http://www.w3.org/2000/svg"  viewBox="0 0 50 50">
        <path d="M32,11h5c0.552,0,1-0.448,1-1V3.263c0-0.524-0.403-0.96-0.925-0.997C35.484,2.153,32.376,2,30.141,2C24,2,20,5.68,20,12.368V19h-7c-0.552,0-1,0.448-1,1v7c0,0.552,0.448,1,1,1h7v19c0,0.552,0.448,1,1,1h7c0.552,0,1-0.448,1-1V28h7.222c0.51,0,0.938-0.383,0.994-0.89l0.778-7C38.06,19.518,37.596,19,37,19h-8v-5C29,12.343,30.343,11,32,11z"/>
    </svg>

    <svg id="instagram" xmlns="http://www.w3.org/2000/svg" viewBox="0 0 122.88 122.88">
        <title>instagram-logo-black-and-white</title>
        <path d="M61.45,0C44.76,0,42.66.07,36.11.37A45.08,45.08,0,0,0,21.2,3.23a29.86,29.86,0,0,0-10.88,7.08,30.26,30.26,0,0,0-7.1,10.88A44.92,44.92,0,0,0,.37,36.11C.08,42.66,0,44.75,0,61.44S.07,80.21.37,86.77a45.08,45.08,0,0,0,2.86,14.91,30.12,30.12,0,0,0,7.08,10.88,30.13,30.13,0,0,0,10.88,7.1,45.17,45.17,0,0,0,14.92,2.85c6.55.3,8.64.37,25.33.37s18.77-.07,25.33-.37a45.17,45.17,0,0,0,14.92-2.85,31.54,31.54,0,0,0,18-18,45.6,45.6,0,0,0,2.86-14.91c.29-6.55.37-8.64.37-25.33s-.08-18.78-.37-25.33a45.66,45.66,0,0,0-2.86-14.92,30.1,30.1,0,0,0-7.09-10.88,29.77,29.77,0,0,0-10.88-7.08A45.14,45.14,0,0,0,86.76.37C80.2.07,78.12,0,61.43,0ZM55.93,11.07h5.52c16.4,0,18.34.06,24.82.36a34,34,0,0,1,11.41,2.11,19,19,0,0,1,7.06,4.6,19.16,19.16,0,0,1,4.6,7.06,34,34,0,0,1,2.11,11.41c.3,6.47.36,8.42.36,24.82s-.06,18.34-.36,24.82a33.89,33.89,0,0,1-2.11,11.4A20.35,20.35,0,0,1,97.68,109.3a33.64,33.64,0,0,1-11.41,2.12c-6.47.3-8.42.36-24.82.36s-18.35-.06-24.83-.36a34,34,0,0,1-11.41-2.12,19,19,0,0,1-7.07-4.59,19,19,0,0,1-4.59-7.06,34,34,0,0,1-2.12-11.41c-.29-6.48-.35-8.42-.35-24.83s.06-18.34.35-24.82a33.7,33.7,0,0,1,2.12-11.41,19,19,0,0,1,4.59-7.06,19.12,19.12,0,0,1,7.07-4.6A34.22,34.22,0,0,1,36.62,11.4c5.67-.25,7.86-.33,19.31-.34Zm38.31,10.2a7.38,7.38,0,1,0,7.38,7.37,7.37,7.37,0,0,0-7.38-7.37ZM61.45,29.89A31.55,31.55,0,1,0,93,61.44,31.56,31.56,0,0,0,61.45,29.89Zm0,11.07A20.48,20.48,0,1,1,41,61.44,20.48,20.48,0,0,1,61.45,41Z"/>
    </svg>

    <svg id="at" xmlns="http://www.w3.org/2000/svg" viewBox="0 0 111.93 122.88">
        <path d="M46.4,63.92a35.1,35.1,0,0,0,.34,9.16,10,10,0,0,0,2.62,5.48,6.61,6.61,0,0,0,4.78,1.81,7.44,7.44,0,0,0,3.14-.88A10.57,10.57,0,0,0,61,75.81a19.82,19.82,0,0,0,2.3-5.07l2.5-29.08a16.5,16.5,0,0,0-3.38-.35A13,13,0,0,0,53.94,44a16.89,16.89,0,0,0-5,7.67,56.76,56.76,0,0,0-2.55,12.3ZM65.57,85.85a21.54,21.54,0,0,1-3.47,3.59A20.88,20.88,0,0,1,48.52,94a17.75,17.75,0,0,1-11.17-3.7,21.8,21.8,0,0,1-7.08-10.49,38.29,38.29,0,0,1-1.45-15.89,54.16,54.16,0,0,1,5.83-19.27A34.64,34.64,0,0,1,45.84,32,26.88,26.88,0,0,1,61,27.5q8,0,12.5,2.24a90.13,90.13,0,0,1,8.71,5L78.87,74a10.33,10.33,0,0,0,0,3.75,5,5,0,0,0,1.27,2.37,4.78,4.78,0,0,0,2.07,1.26,8.26,8.26,0,0,0,9-2.91,24.65,24.65,0,0,0,4.58-8.94,47.2,47.2,0,0,0,2-12.72q.64-13.14-3.32-23.2a32.2,32.2,0,0,0-12.73-15.7Q73,12.22,59.17,12.23q-13.31,0-22.83,6.77A45,45,0,0,0,21.45,37.25a69,69,0,0,0-6,25.68,66.26,66.26,0,0,0,1.89,20.53,35.45,35.45,0,0,0,7.5,14.37,31,31,0,0,0,12.72,8.46A50.83,50.83,0,0,0,55,109.07a58.88,58.88,0,0,0,11.73-1.22A59.39,59.39,0,0,0,76.88,105l2.58,12a34.27,34.27,0,0,1-11.6,4.44,63.74,63.74,0,0,1-13.13,1.45q-17.91,0-30.4-6.63a42.56,42.56,0,0,1-18.75-20Q-.65,82.95.08,62.93A79.48,79.48,0,0,1,5,37.93a62.41,62.41,0,0,1,12.07-20A53.6,53.6,0,0,1,35.5,4.72,58.79,58.79,0,0,1,59.42,0q17.4,0,29.35,7.11a44.29,44.29,0,0,1,17.9,19.72q5.88,12.62,5.19,29.15A63.42,63.42,0,0,1,109.76,70a41.49,41.49,0,0,1-5.44,12.32,27.89,27.89,0,0,1-9.23,8.73,26.68,26.68,0,0,1-13.45,3.25,18.56,18.56,0,0,1-13.76-5.51,16.18,16.18,0,0,1-2.31-3Z"/>
    </svg>

    <svg id="twitter" xmlns="http://www.w3.org/2000/svg" shape-rendering="geometricPrecision" text-rendering="geometricPrecision" image-rendering="optimizeQuality" fill-rule="evenodd" clip-rule="evenodd" viewBox="0 0 640 640">
        <path d="M640.012 121.513c-23.528 10.524-48.875 17.516-75.343 20.634 27.118-16.24 47.858-41.977 57.756-72.615-25.347 14.988-53.516 25.985-83.363 31.866-24-25.5-58.087-41.35-95.848-41.35-72.508 0-131.21 58.736-131.21 131.198 0 10.228 1.134 20.232 3.355 29.882-109.1-5.528-205.821-57.757-270.57-137.222a131.423 131.423 0 0 0-17.764 66c0 45.497 23.102 85.738 58.347 109.207-21.508-.638-41.74-6.638-59.505-16.359v1.642c0 63.627 45.225 116.718 105.32 128.718-11.008 2.988-22.63 4.642-34.606 4.642-8.48 0-16.654-.874-24.78-2.35 16.783 52.11 65.233 90.095 122.612 91.205-44.989 35.245-101.493 56.233-163.09 56.233-10.63 0-20.988-.65-31.334-1.89 58.229 37.359 127.206 58.997 201.31 58.997 241.42 0 373.552-200.069 373.552-373.54 0-5.764-.13-11.35-.366-16.996 25.642-18.343 47.87-41.493 65.469-67.844l.059-.059z"/>
    </svg>

    <svg id="globus" viewBox="0 0 22 22" xmlns="http://www.w3.org/2000/svg">
        <path d="M11 0.5C8.9233 0.5 6.89323 1.11581 5.16652 2.26957C3.4398 3.42332 2.09399 5.0632 1.29927 6.98182C0.504549 8.90045 0.296614 11.0116 0.701759 13.0484C1.1069 15.0852 2.10693 16.9562 3.57538 18.4246C5.04383 19.8931 6.91476 20.8931 8.95156 21.2982C10.9884 21.7034 13.0996 21.4955 15.0182 20.7007C16.9368 19.906 18.5767 18.5602 19.7304 16.8335C20.8842 15.1068 21.5 13.0767 21.5 11C21.5 8.21523 20.3938 5.54451 18.4246 3.57538C16.4555 1.60625 13.7848 0.5 11 0.5ZM20 10.25H15.5C15.4125 7.48781 14.6969 4.78186 13.4075 2.3375C15.1839 2.82342 16.7685 3.84263 17.9474 5.25757C19.1263 6.6725 19.8427 8.41504 20 10.25ZM11 20C10.8327 20.0112 10.6648 20.0112 10.4975 20C8.94372 17.5221 8.08139 14.6736 8 11.75H14C13.9254 14.6715 13.0709 17.5199 11.525 20C11.3502 20.0123 11.1748 20.0123 11 20ZM8 10.25C8.07462 7.32851 8.92914 4.48012 10.475 2C10.809 1.96247 11.1461 1.96247 11.48 2C13.0417 4.4756 13.9119 7.3243 14 10.25H8ZM8.57001 2.3375C7.28848 4.78373 6.5806 7.48959 6.5 10.25H2C2.15728 8.41504 2.87371 6.6725 4.0526 5.25757C5.23149 3.84263 6.81608 2.82342 8.5925 2.3375H8.57001ZM2.0375 11.75H6.53751C6.61577 14.5098 7.32108 17.2156 8.60001 19.6625C6.82915 19.1714 5.25109 18.1499 4.07792 16.7354C2.90475 15.3209 2.19271 13.5811 2.0375 11.75ZM13.4075 19.6625C14.6969 17.2181 15.4125 14.5122 15.5 11.75H20C19.8427 13.585 19.1263 15.3275 17.9474 16.7424C16.7685 18.1574 15.1839 19.1766 13.4075 19.6625Z" />
    </svg>

    <svg id="phone" version="1.1" xmlns="http://www.w3.org/2000/svg" xmlns:xlink="http://www.w3.org/1999/xlink" x="0px" y="0px" viewBox="0 0 473.806 473.806" style="enable-background:new 0 0 473.806 473.806;" xml:space="preserve">
		<path d="M374.456,293.506c-9.7-10.1-21.4-15.5-33.8-15.5c-12.3,0-24.1,5.3-34.2,15.4l-31.6,31.5c-2.6-1.4-5.2-2.7-7.7-4
			c-3.6-1.8-7-3.5-9.9-5.3c-29.6-18.8-56.5-43.3-82.3-75c-12.5-15.8-20.9-29.1-27-42.6c8.2-7.5,15.8-15.3,23.2-22.8
			c2.8-2.8,5.6-5.7,8.4-8.5c21-21,21-48.2,0-69.2l-27.3-27.3c-3.1-3.1-6.3-6.3-9.3-9.5c-6-6.2-12.3-12.6-18.8-18.6
			c-9.7-9.6-21.3-14.7-33.5-14.7s-24,5.1-34,14.7c-0.1,0.1-0.1,0.1-0.2,0.2l-34,34.3c-12.8,12.8-20.1,28.4-21.7,46.5
			c-2.4,29.2,6.2,56.4,12.8,74.2c16.2,43.7,40.4,84.2,76.5,127.6c43.8,52.3,96.5,93.6,156.7,122.7c23,10.9,53.7,23.8,88,26
			c2.1,0.1,4.3,0.2,6.3,0.2c23.1,0,42.5-8.3,57.7-24.8c0.1-0.2,0.3-0.3,0.4-0.5c5.2-6.3,11.2-12,17.5-18.1c4.3-4.1,8.7-8.4,13-12.9
			c9.9-10.3,15.1-22.3,15.1-34.6c0-12.4-5.3-24.3-15.4-34.3L374.456,293.506z M410.256,398.806
			C410.156,398.806,410.156,398.906,410.256,398.806c-3.9,4.2-7.9,8-12.2,12.2c-6.5,6.2-13.1,12.7-19.3,20
			c-10.1,10.8-22,15.9-37.6,15.9c-1.5,0-3.1,0-4.6-0.1c-29.7-1.9-57.3-13.5-78-23.4c-56.6-27.4-106.3-66.3-147.6-115.6
			c-34.1-41.1-56.9-79.1-72-119.9c-9.3-24.9-12.7-44.3-11.2-62.6c1-11.7,5.5-21.4,13.8-29.7l34.1-34.1c4.9-4.6,10.1-7.1,15.2-7.1
			c6.3,0,11.4,3.8,14.6,7c0.1,0.1,0.2,0.2,0.3,0.3c6.1,5.7,11.9,11.6,18,17.9c3.1,3.2,6.3,6.4,9.5,9.7l27.3,27.3
			c10.6,10.6,10.6,20.4,0,31c-2.9,2.9-5.7,5.8-8.6,8.6c-8.4,8.6-16.4,16.6-25.1,24.4c-0.2,0.2-0.4,0.3-0.5,0.5
			c-8.6,8.6-7,17-5.2,22.7c0.1,0.3,0.2,0.6,0.3,0.9c7.1,17.2,17.1,33.4,32.3,52.7l0.1,0.1c27.6,34,56.7,60.5,88.8,80.8
			c4.1,2.6,8.3,4.7,12.3,6.7c3.6,1.8,7,3.5,9.9,5.3c0.4,0.2,0.8,0.5,1.2,0.7c3.4,1.7,6.6,2.5,9.9,2.5c8.3,0,13.5-5.2,15.2-6.9
			l34.2-34.2c3.4-3.4,8.8-7.5,15.1-7.5c6.2,0,11.3,3.9,14.4,7.3c0.1,0.1,0.1,0.1,0.2,0.2l55.1,55.1
			C420.456,377.706,420.456,388.206,410.256,398.806z"/>
        <path d="M256.056,112.706c26.2,4.4,50,16.8,69,35.8s31.3,42.8,35.8,69c1.1,6.6,6.8,11.2,13.3,11.2c0.8,0,1.5-0.1,2.3-0.2
			c7.4-1.2,12.3-8.2,11.1-15.6c-5.4-31.7-20.4-60.6-43.3-83.5s-51.8-37.9-83.5-43.3c-7.4-1.2-14.3,3.7-15.6,11
			S248.656,111.506,256.056,112.706z"/>
        <path d="M473.256,209.006c-8.9-52.2-33.5-99.7-71.3-137.5s-85.3-62.4-137.5-71.3c-7.3-1.3-14.2,3.7-15.5,11
			c-1.2,7.4,3.7,14.3,11.1,15.6c46.6,7.9,89.1,30,122.9,63.7c33.8,33.8,55.8,76.3,63.7,122.9c1.1,6.6,6.8,11.2,13.3,11.2
			c0.8,0,1.5-0.1,2.3-0.2C469.556,223.306,474.556,216.306,473.256,209.006z"/>
</svg>

    <svg id="filter" viewBox="0 0 18 18" xmlns="http://www.w3.org/2000/svg">
        <path d="M10.5 18H7.5C7.10218 18 6.72064 17.842 6.43934 17.5607C6.15804 17.2794 6 16.8978 6 16.5V10.8075L0.4425 5.25C0.160809 4.96999 0.00167459 4.58968 0 4.1925V1.5C0 1.10218 0.158035 0.720644 0.43934 0.43934C0.720644 0.158035 1.10218 0 1.5 0H16.5C16.8978 0 17.2794 0.158035 17.5607 0.43934C17.842 0.720644 18 1.10218 18 1.5V4.1925C17.9983 4.58968 17.8392 4.96999 17.5575 5.25L12 10.8075V16.5C12 16.8978 11.842 17.2794 11.5607 17.5607C11.2794 17.842 10.8978 18 10.5 18ZM1.5 1.5V4.1925L7.5 10.1925V16.5H10.5V10.1925L16.5 4.1925V1.5H1.5Z" />
    </svg>

    <svg id="sort" viewBox="0 0 24 24" xmlns="http://www.w3.org/2000/svg">
        <path d="M13.5 16.5L14.5605 15.4395L17.25 18.129V3H18.75V18.129L21.4395 15.4395L22.5 16.5L18 21L13.5 16.5Z" />
        <path d="M12 13.5H1.5V15H12V13.5Z" />
        <path d="M12 9H4.5V10.5H12V9Z" />
        <path d="M12 4.5H7.5V6H12V4.5Z" />
    </svg>

    <svg id="thrash" viewBox="0 0 13 14" xmlns="http://www.w3.org/2000/svg">
        <path d="M5.0714 11.0064H5.08042C5.31222 11.0015 5.49643 10.8092 5.49139 10.5767L5.32335 4.14982C5.31866 3.92032 5.13151 3.73768 4.90371 3.73768H4.89468C4.66288 3.74261 4.47867 3.93488 4.48371 4.16744L4.65176 10.5943C4.65668 10.8238 4.8436 11.0064 5.0714 11.0064ZM7.52846 11.0064C7.75628 11.0064 7.94342 10.8238 7.9481 10.5943L8.11615 4.16744C8.12107 3.93511 7.93708 3.74261 7.70518 3.73768H7.69616C7.46834 3.73768 7.2812 3.92032 7.27652 4.14982L7.10847 10.5767C7.10355 10.809 7.28753 11.0015 7.51944 11.0064H7.52846ZM10.833 3.73828C10.6032 3.73088 10.4067 3.91176 10.3983 4.14408L10.062 11.9928C10.062 12.2783 9.83078 12.5102 9.54671 12.5102H3.05381C2.76916 12.5102 2.5376 12.2781 2.53724 11.9778L2.20127 4.14408C2.19307 3.91175 1.99713 3.73157 1.76663 3.73828C1.53483 3.7465 1.35353 3.94171 1.36187 4.1739L1.69751 11.9929C1.69751 12.7425 2.30594 13.3522 3.05372 13.3522H9.54662C10.2939 13.3522 10.9019 12.7424 10.9015 12.0078L11.2375 4.17408C11.2461 3.94199 11.0647 3.74661 10.833 3.73828ZM11.6788 2.05447H9.11921V0.849522C9.11921 0.616964 8.93124 0.42857 8.69921 0.42857H3.90101C3.66898 0.42857 3.48101 0.616964 3.48101 0.849522V2.05447H0.92C0.687968 2.05447 0.5 2.24286 0.5 2.47542C0.5 2.70798 0.687968 2.89637 0.92 2.89637H11.6786C11.9106 2.89637 12.0986 2.70798 12.0986 2.47542C12.0986 2.24286 11.9106 2.05447 11.6788 2.05447ZM8.27921 2.05447H4.32101V1.27047H8.27921V2.05447Z" />
    </svg>

    <svg id="newpost" viewBox="0 0 16 16" fill="none" xmlns="http://www.w3.org/2000/svg">
        <path fill-rule="evenodd" clip-rule="evenodd" d="M12.8211 4.73673C12.8695 4.72131 12.9332 4.75215 12.9968 4.83697C12.9968 4.83697 12.9968 4.83697 15.8744 7.6797C16.0425 7.84933 16.0425 8.10636 15.8744 8.23231C15.8744 8.23231 15.8744 8.23231 12.9968 11.1187C12.9332 11.2035 12.8695 11.2241 12.8211 11.1984C12.7727 11.1727 12.7422 11.0982 12.7422 10.9902V4.92179C12.7422 4.81641 12.7727 4.75215 12.8211 4.73673Z" fill="#ED1C24"/>
        <path fill-rule="evenodd" clip-rule="evenodd" d="M7.89901 0H8.10274L8.29882 0.0822492C8.29882 0.0822492 8.29882 0.082249 11.2604 3.05349C11.3878 3.22313 11.3445 3.35164 11.1331 3.35164C11.1331 3.35164 11.1331 3.35164 9.90568 3.35164C9.69432 3.35164 9.52625 3.52128 9.52625 3.73461C9.52625 3.73461 9.52625 3.73461 9.52625 5.93991C9.52625 6.15324 9.35563 6.32288 9.10098 6.32288C9.10098 6.32288 9.10098 6.32288 6.94407 6.32288C6.7327 6.32288 6.56209 6.15324 6.56209 5.93991C6.56209 5.93991 6.56209 5.93991 6.56209 3.73461C6.56209 3.52128 6.39402 3.35164 6.18011 3.35164H4.86865C4.65728 3.35164 4.61399 3.22313 4.74132 3.05349C4.74132 3.05349 4.74132 3.05349 7.70548 0.0822492L7.89901 0Z" fill="#ED1C24"/>
        <path fill-rule="evenodd" clip-rule="evenodd" d="M3.25828 4.67295C3.31176 4.69865 3.34486 4.77319 3.34486 4.88114V11.0755C3.34486 11.1835 3.31176 11.2477 3.25828 11.2683C3.20735 11.2888 3.1335 11.2683 3.04692 11.204C3.04692 11.204 3.04692 11.204 0.126053 8.23278C-0.0420177 8.10684 -0.0420177 7.84981 0.126053 7.68017C0.126053 7.68017 0.126053 7.68017 3.04692 4.75263C3.1335 4.66781 3.20735 4.64725 3.25828 4.67295Z" fill="#ED1C24"/>
        <path fill-rule="evenodd" clip-rule="evenodd" d="M6.94277 9.54834C6.94277 9.54834 6.94277 9.54834 9.09967 9.54834C9.35433 9.54834 9.52494 9.71798 9.52494 9.93131C9.52494 9.93131 9.52494 9.93131 9.52494 12.2651C9.52494 12.5196 9.69302 12.6892 9.90438 12.6892H11.0478C11.2591 12.6892 11.3432 12.8152 11.1751 12.9437C11.1751 12.9437 11.1751 12.9437 8.29752 15.8712C8.21094 15.956 8.10653 15.9997 7.99957 15.9997C7.89517 15.9997 7.78821 15.956 7.70418 15.8712C7.70418 15.8712 7.70418 15.8712 4.8266 12.9437C4.65598 12.8152 4.74002 12.6892 4.95138 12.6892C4.95138 12.6892 4.95138 12.6892 6.17881 12.6892C6.39272 12.6892 6.56079 12.5196 6.56079 12.2651C6.56079 12.2651 6.56079 12.2651 6.56079 9.93131C6.56079 9.71798 6.7314 9.54834 6.94277 9.54834Z" fill="#ED1C24"/>
    </svg>

    <svg id="liqpay" viewBox="0 0 15 13" fill="none" xmlns="http://www.w3.org/2000/svg">
        <path d="M9.55944 6.4537L1.99313 0.117731C1.93671 0.0715771 1.85463 0.0741412 1.80334 0.127988L0.685059 1.2921L6.86378 6.4537L0.685059 11.6153L1.80334 12.7794C1.85463 12.8333 1.93671 12.8358 1.99313 12.7897L9.55944 6.4537Z" fill="#76A62D"/>
        <path d="M14.9964 6.50497L7.43014 0.169001C7.37372 0.122847 7.29164 0.125411 7.24035 0.179257L6.12207 1.34337L12.3008 6.50497L6.12207 11.6666L7.24035 12.8307C7.29164 12.8845 7.37372 12.8871 7.43014 12.8409L14.9964 6.50497Z" fill="#76A62D"/>
    </svg>

    <svg id="privatbank" viewBox="0 0 21 20" fill="none" xmlns="http://www.w3.org/2000/svg">
        <mask id="path-1-inside-1_1803_1399" fill="white">
            <path d="M7.54838 4.44367C8.69435 3.68534 10.0413 3.28786 11.4153 3.3025C12.7894 3.31715 14.1276 3.74325 15.2571 4.52583C16.3866 5.3084 17.2557 6.41153 17.7522 7.69285C18.2487 8.97418 18.3498 10.3749 18.0424 11.7142C17.7351 13.0536 17.0334 14.27 16.0279 15.2067C15.0225 16.1434 13.7594 16.7572 12.4016 16.969C11.0439 17.1808 9.65387 16.9808 8.4109 16.3949C7.16792 15.809 6.12906 14.864 5.42839 13.6819L11.3421 10.1766L7.54838 4.44367Z"/>
        </mask>
        <path d="M7.54838 4.44367C8.69435 3.68534 10.0413 3.28786 11.4153 3.3025C12.7894 3.31715 14.1276 3.74325 15.2571 4.52583C16.3866 5.3084 17.2557 6.41153 17.7522 7.69285C18.2487 8.97418 18.3498 10.3749 18.0424 11.7142C17.7351 13.0536 17.0334 14.27 16.0279 15.2067C15.0225 16.1434 13.7594 16.7572 12.4016 16.969C11.0439 17.1808 9.65387 16.9808 8.4109 16.3949C7.16792 15.809 6.12906 14.864 5.42839 13.6819L11.3421 10.1766L7.54838 4.44367Z" fill="#FBD916" stroke="#D49223" stroke-opacity="0.2" stroke-width="2" mask="url(#path-1-inside-1_1803_1399)"/>
        <mask id="path-2-inside-2_1803_1399" fill="white">
            <path d="M3.75326 13.3863C2.84276 11.8636 2.5562 10.0479 2.95351 8.31879C3.35081 6.5897 4.40121 5.08117 5.88505 4.10864L9.65342 9.85827L3.75326 13.3863Z"/>
        </mask>
        <path d="M3.75326 13.3863C2.84276 11.8636 2.5562 10.0479 2.95351 8.31879C3.35081 6.5897 4.40121 5.08117 5.88505 4.10864L9.65342 9.85827L3.75326 13.3863Z" fill="#00AE2B" stroke="#078138" stroke-opacity="0.3" stroke-width="2" mask="url(#path-2-inside-2_1803_1399)"/>
    </svg>

    <svg id="monobank" version="1.1" xmlns="http://www.w3.org/2000/svg" xmlns:xlink="http://www.w3.org/1999/xlink" x="0px" y="0px" viewBox="0 0 119.72 122.88" style="enable-background:new 0 0 119.72 122.88" xml:space="preserve"><style type="text/css">.st0{fill-rule:evenodd;clip-rule:evenodd;}</style><g><path class="st0" d="M40.06,0.37c9.4,0,17.03,11.69,17.03,26.1s-7.63,26.1-17.03,26.1c-9.4,0-17.03-11.68-17.03-26.1 C23.04,12.06,30.66,0.37,40.06,0.37L40.06,0.37z M61.71,63.55c19.94,0.04,22.42,13.25,39.23,35.86 c8.38,16.45-2.5,26.82-21.15,22.38c-8.46-4.31-14.41-5.83-20.38-5.63c-10.34,0.36-12.95,7.18-24.98,6.7 c-9.28-0.25-13.46-4.14-14.27-10.07c-0.87-6.3,1.56-10.28,4.52-15.49C36.18,77.02,48.07,61.01,61.71,63.55L61.71,63.55L61.71,63.55 z M7.17,39.08C0.14,41.86-2.1,52.85,2.16,63.62C6.42,74.39,15.57,80.87,22.6,78.09c7.03-2.78,9.27-13.77,5.01-24.54 C23.35,42.78,14.2,36.3,7.17,39.08L7.17,39.08z M112.55,39.08c7.03,2.78,9.27,13.77,5.01,24.54 c-4.26,10.77-13.42,17.25-20.44,14.47c-7.03-2.78-9.27-13.77-5.01-24.54C96.37,42.78,105.52,36.3,112.55,39.08L112.55,39.08z M79.35,0c9.4,0,17.03,11.69,17.03,26.1s-7.63,26.1-17.03,26.1c-9.4,0-17.03-11.68-17.03-26.1C62.33,11.69,69.95,0,79.35,0L79.35,0 z"/></g></svg>

    <svg id="portmoney" viewBox="0 0 18 14" fill="none" xmlns="http://www.w3.org/2000/svg">
        <path fill-rule="evenodd" clip-rule="evenodd" d="M0.384766 2.80392C0.384766 1.89686 1.14498 1.15924 2.07768 1.15924H15.5493C16.482 1.15924 17.2428 1.89686 17.2428 2.80392V6.42784L17.2426 11.4916C17.2426 12.3987 16.4819 13.138 15.5492 13.138H2.07768C1.14498 13.138 0.384766 12.3987 0.384766 11.4916V2.80392ZM15.5492 1.74401H2.07768C1.46765 1.74401 0.98603 2.21066 0.98603 2.80392L0.986065 4.48777H16.6415L16.6415 2.80392C16.6415 2.21066 16.1592 1.74401 15.5492 1.74401ZM2.6089 8.73206C2.66675 8.6771 2.74487 8.64708 2.8258 8.64878H6.60952C6.773 8.65231 6.90359 8.78218 6.90359 8.94117C6.90359 9.10015 6.773 9.23003 6.60952 9.23355H2.8258C2.74487 9.23538 2.66675 9.20523 2.6089 9.15027C2.55106 9.09519 2.51844 9.01988 2.51844 8.94117C2.51844 8.86246 2.55105 8.78714 2.6089 8.73206ZM2.6089 10.3122C2.66675 10.2572 2.74487 10.2271 2.8258 10.229H4.44178C4.52272 10.2271 4.60083 10.2572 4.65868 10.3122C4.71653 10.3672 4.74914 10.4426 4.74914 10.5214C4.74914 10.6001 4.71653 10.6754 4.65868 10.7305C4.60083 10.7854 4.52272 10.8154 4.44178 10.8137H2.8258C2.74487 10.8154 2.66675 10.7854 2.6089 10.7305C2.55106 10.6754 2.51844 10.6001 2.51844 10.5214C2.51844 10.4426 2.55105 10.3672 2.6089 10.3122ZM16.6415 5.07304H0.986099L0.986065 6.13439L0.986099 11.4916C0.986099 12.0848 1.46769 12.5532 2.07772 12.5532H15.5492C16.1593 12.5532 16.6415 12.0848 16.6415 11.4916V6.13439L16.6415 5.07304Z" fill="black" stroke="black" stroke-width="0.4"/>
    </svg>

    <svg id="inter" viewBox="0 0 16 15" fill="none" xmlns="http://www.w3.org/2000/svg">
        <path fill-rule="evenodd" clip-rule="evenodd" d="M13.4743 7.87999C14.2123 8.42254 14.7512 8.95208 15.0684 9.44689C15.3852 9.94109 15.4938 10.4237 15.32 10.8502L15.3194 10.8517C15.1787 11.1862 14.8901 11.4279 14.4914 11.5842C14.0944 11.7398 13.5788 11.8153 12.9598 11.8153C12.7386 11.8153 12.5024 11.8036 12.2567 11.7853L12.252 11.7849L12.1817 11.7774C10.7508 13.4744 8.43905 14.1467 6.32137 13.4782C5.6297 14.0208 4.94553 14.3708 4.34615 14.3712C3.74677 14.3716 3.14564 13.8879 3.11507 12.7728C3.08531 11.6871 3.20532 11.2615 3.2578 11.0754L3.2619 11.0608C3.2182 10.9935 3.17978 10.9336 3.15013 10.8868C2.69552 10.0725 2.45862 9.15469 2.45862 8.22159V8.08564C1.57261 7.42703 0.927443 6.76064 0.667499 6.1518C0.507179 5.82818 0.490054 5.45181 0.617981 5.11405L0.619786 5.10951C0.795582 4.68741 1.25078 4.41677 1.85788 4.27407C2.46527 4.1313 3.26032 4.10708 4.18732 4.20725C6.10795 2.39447 9.04015 2.2065 11.1714 3.74141C11.2892 3.10212 11.2749 2.60001 11.1475 2.2798L11.1453 2.27387C11.0928 2.1237 10.981 2.00166 10.8364 1.939C10.6921 1.87808 10.4844 1.86954 10.2144 1.93516C9.94625 2.00034 9.6308 2.1354 9.28319 2.34195L9.28104 2.3432C9.09902 2.44731 8.86721 2.38827 8.75655 2.21124C8.64103 2.02845 8.69785 1.78753 8.88177 1.67356L8.88438 1.67195C9.76476 1.15103 10.5324 0.969669 11.1352 1.22103L11.1365 1.2216C11.4761 1.36715 11.7421 1.64537 11.8706 1.99275C12.1017 2.56462 12.08 3.37021 11.847 4.31901C12.8017 5.26585 13.3778 6.52962 13.4621 7.87197L13.4682 7.87599L13.4743 7.87999ZM10.5091 5.83014C10.6852 5.41933 10.8399 4.99862 10.9692 4.57234C10.1248 3.87521 9.06101 3.49215 7.96395 3.49212C5.54702 3.49667 3.52662 5.31369 3.26308 7.70774C4.5043 8.52564 5.8319 9.2024 7.2225 9.72722L7.22391 9.72775C7.59467 9.87195 7.95789 10.003 8.31368 10.1226C8.68916 9.5948 9.0383 9.05092 9.36107 8.49078C9.47793 8.29061 9.59107 8.08247 9.7026 7.87547C9.80531 7.68468 10.0413 7.61368 10.2303 7.71385L10.2312 7.71432C10.4219 7.81695 10.4929 8.05262 10.3931 8.24161L10.0396 8.88645C9.74671 9.39651 9.43004 9.89743 9.09759 10.3762C9.99062 10.6432 10.9034 10.8381 11.8274 10.9591C13.0748 9.20155 12.9727 6.83037 11.5955 5.19099C11.4914 5.49421 11.3692 5.80951 11.2289 6.13694C11.1439 6.33564 10.9149 6.42802 10.7157 6.34324C10.5169 6.25836 10.4243 6.0294 10.5091 5.83014ZM7.82099 10.7824C7.52759 10.6819 7.23182 10.5765 6.93559 10.4603C5.64976 9.97021 4.41561 9.35821 3.25 8.62811C3.40122 10.3847 4.51966 11.9186 6.15702 12.5972C6.7618 12.0411 7.31965 11.4335 7.82099 10.7824ZM7.9638 12.9561C7.64636 12.9561 7.32921 12.9255 7.01854 12.8633C7.59695 12.2996 8.13023 11.6906 8.61257 11.0419C9.46367 11.3082 10.3335 11.5138 11.213 11.6572C10.3398 12.4887 9.17546 12.9561 7.9638 12.9561ZM13.9569 10.9355C14.336 10.8427 14.5284 10.6989 14.5896 10.5517C14.6524 10.401 14.6062 10.1528 14.367 9.80438C14.1682 9.51468 13.8554 9.18527 13.4401 8.83769C13.3542 9.61323 13.1039 10.3598 12.7057 11.0301C13.2157 11.0479 13.638 11.0135 13.9569 10.9355ZM1.39113 5.87681L1.3913 5.86669L1.37337 5.83266C1.30488 5.70274 1.29137 5.54958 1.33569 5.40717C1.36065 5.35263 1.41761 5.28661 1.52686 5.21964C1.63891 5.15095 1.79708 5.0869 2.00582 5.03618C2.37233 4.94712 2.88023 4.90262 3.53341 4.93645C3.04127 5.60036 2.70486 6.36772 2.54995 7.18049C1.96231 6.70507 1.56342 6.2555 1.39113 5.87681ZM4.75405 13.5324C4.51209 13.6157 4.31498 13.6262 4.16135 13.5756L4.0997 13.5464C3.93512 13.4686 3.80168 13.2677 3.74271 12.9015C3.69569 12.6094 3.70043 12.2341 3.76248 11.7886C4.2388 12.3496 4.82275 12.8106 5.47894 13.1442C5.21777 13.3254 4.97326 13.457 4.75405 13.5324Z" fill="black"/>
        <path d="M13.4682 7.87599L13.4743 7.87999C14.2123 8.42254 14.7512 8.95208 15.0684 9.44689C15.3852 9.94109 15.4938 10.4237 15.32 10.8502L15.3194 10.8517C15.1787 11.1862 14.8901 11.4279 14.4914 11.5842C14.0944 11.7398 13.5788 11.8153 12.9598 11.8153C12.7386 11.8153 12.5024 11.8036 12.2567 11.7853L12.252 11.7849L12.1817 11.7774C10.7508 13.4744 8.43905 14.1467 6.32137 13.4782C5.6297 14.0208 4.94553 14.3708 4.34615 14.3712C3.74677 14.3716 3.14564 13.8879 3.11507 12.7728C3.08531 11.6871 3.20532 11.2615 3.2578 11.0754M13.4682 7.87599C13.4662 7.87464 13.4641 7.8733 13.4621 7.87197M13.4682 7.87599L13.4621 7.87197M13.4621 7.87197C13.3778 6.52962 12.8017 5.26585 11.847 4.31901C12.08 3.37021 12.1017 2.56462 11.8706 1.99275C11.7421 1.64537 11.4761 1.36715 11.1365 1.2216L11.1352 1.22103C10.5324 0.969669 9.76476 1.15103 8.88438 1.67195L8.88177 1.67356C8.69785 1.78753 8.64103 2.02845 8.75655 2.21124C8.86721 2.38827 9.09902 2.44731 9.28104 2.3432L9.28319 2.34195C9.6308 2.1354 9.94625 2.00034 10.2144 1.93516C10.4844 1.86954 10.6921 1.87808 10.8364 1.939C10.981 2.00166 11.0928 2.1237 11.1453 2.27387L11.1475 2.2798C11.2749 2.60001 11.2892 3.10212 11.1714 3.74141C9.04015 2.2065 6.10795 2.39447 4.18732 4.20725C3.26032 4.10708 2.46527 4.1313 1.85788 4.27407C1.25078 4.41677 0.795582 4.68741 0.619786 5.10951L0.617981 5.11405C0.490054 5.45181 0.507179 5.82818 0.667499 6.1518C0.927443 6.76064 1.57261 7.42703 2.45862 8.08564V8.22159C2.45862 9.15469 2.69552 10.0725 3.15013 10.8868C3.17978 10.9336 3.2182 10.9935 3.2619 11.0608M3.76248 11.7886C3.70043 12.2341 3.69569 12.6094 3.74271 12.9015C3.80168 13.2677 3.93512 13.4686 4.0997 13.5464L4.16135 13.5756C4.31498 13.6262 4.51209 13.6157 4.75405 13.5324C4.97326 13.457 5.21777 13.3254 5.47894 13.1442C4.82275 12.8106 4.2388 12.3496 3.76248 11.7886ZM3.76248 11.7886C3.62947 11.6184 3.4138 11.2949 3.2619 11.0608M3.2619 11.0608C3.26059 11.0655 3.25922 11.0704 3.2578 11.0754M3.2619 11.0608L3.2578 11.0754M10.5091 5.83014C10.6852 5.41933 10.8399 4.99862 10.9692 4.57234C10.1248 3.87521 9.06101 3.49215 7.96395 3.49212C5.54702 3.49667 3.52662 5.31369 3.26308 7.70774C4.5043 8.52564 5.8319 9.2024 7.2225 9.72722L7.22391 9.72775C7.59467 9.87195 7.95789 10.003 8.31368 10.1226C8.68916 9.5948 9.0383 9.05092 9.36107 8.49078C9.47793 8.29061 9.59107 8.08247 9.7026 7.87547C9.80531 7.68468 10.0413 7.61368 10.2303 7.71385L10.2312 7.71432C10.4219 7.81695 10.4929 8.05262 10.3931 8.24161L10.0396 8.88645C9.74671 9.39651 9.43004 9.89743 9.09759 10.3762C9.99062 10.6432 10.9034 10.8381 11.8274 10.9591C13.0748 9.20155 12.9727 6.83037 11.5955 5.19099C11.4914 5.49421 11.3692 5.80951 11.2289 6.13694C11.1439 6.33564 10.9149 6.42802 10.7157 6.34324C10.5169 6.25836 10.4243 6.0294 10.5091 5.83014ZM1.39113 5.87681L1.3913 5.86669L1.37337 5.83266C1.30488 5.70274 1.29137 5.54958 1.33569 5.40717C1.36065 5.35263 1.41761 5.28661 1.52686 5.21964C1.63891 5.15095 1.79708 5.0869 2.00582 5.03618C2.37233 4.94712 2.88023 4.90262 3.53341 4.93645C3.04127 5.60036 2.70486 6.36772 2.54995 7.18049C1.96231 6.70507 1.56342 6.2555 1.39113 5.87681ZM14.5896 10.5517C14.5284 10.6989 14.336 10.8427 13.9569 10.9355C13.638 11.0135 13.2157 11.0479 12.7057 11.0301C13.1039 10.3598 13.3542 9.61323 13.4401 8.83769C13.8554 9.18527 14.1682 9.51468 14.367 9.80438C14.6062 10.1528 14.6524 10.401 14.5896 10.5517ZM6.93559 10.4603C7.23182 10.5765 7.52759 10.6819 7.82099 10.7824C7.31965 11.4335 6.7618 12.0411 6.15702 12.5972C4.51966 11.9186 3.40122 10.3847 3.25 8.62811C4.41561 9.35821 5.64976 9.97021 6.93559 10.4603ZM7.9638 12.9561C7.64636 12.9561 7.32921 12.9255 7.01854 12.8633C7.59695 12.2996 8.13023 11.6906 8.61257 11.0419C9.46367 11.3082 10.3335 11.5138 11.213 11.6572C10.3398 12.4887 9.17546 12.9561 7.9638 12.9561Z" stroke="black" stroke-width="0.3"/>
    </svg>


    <svg id="page-next" viewBox="0 0 10 17" fill="none" xmlns="http://www.w3.org/2000/svg">
        <path d="M1 1L8.5 8.5L0.999997 16" stroke-width="2"/>
    </svg>

    <svg id="page-prev" viewBox="0 0 10 17" fill="none" xmlns="http://www.w3.org/2000/svg">
        <path d="M9 16L1.5 8.5L9 1" stroke-width="2"/>
    </svg>

    <svg id="copy" viewBox="0 0 18 19" xmlns="http://www.w3.org/2000/svg">
        <path d="M4.74396 13.7703H1.20753C0.541752 13.7703 0 13.2286 0 12.5628V1.30713C0 0.641359 0.541752 0.0996094 1.20753 0.0996094H12.4637C13.1295 0.0996094 13.6713 0.641359 13.6713 1.30713V4.84355C13.6713 5.07245 13.4854 5.2583 13.2565 5.2583H5.53699C5.32843 5.2583 5.15898 5.42775 5.15898 5.63631V13.3558C5.15898 13.5845 4.97332 13.7704 4.74423 13.7704L4.74396 13.7703ZM1.20753 0.929096C0.998968 0.929096 0.829511 1.09855 0.829511 1.30711V12.5633C0.829511 12.7718 0.998968 12.9413 1.20753 12.9413H4.32922V5.63639C4.32922 4.97062 4.87097 4.42887 5.53675 4.42887H12.8417V1.30719C12.8417 1.09863 12.6722 0.929177 12.4637 0.929177H1.20745L1.20753 0.929096Z"/>
        <path d="M16.7923 18.0995H5.53663C4.87085 18.0995 4.3291 17.5578 4.3291 16.892V5.63636C4.3291 4.97058 4.87085 4.42883 5.53663 4.42883H16.7928C17.4586 4.42883 18.0004 4.97058 18.0004 5.63636V16.8925C18 17.5579 17.4582 18.0996 16.7926 18.0996L16.7923 18.0995ZM5.53663 5.25832C5.32807 5.25832 5.15861 5.42778 5.15861 5.63634V16.8925C5.15861 17.1011 5.32807 17.2705 5.53663 17.2705H16.7928C17.0014 17.2705 17.1709 17.1011 17.1709 16.8925L17.1707 5.63634C17.1707 5.42778 17.0012 5.25832 16.7927 5.25832H5.53663Z"/>
    </svg>

    <svg id="model" viewBox="0 0 33 54" xmlns="http://www.w3.org/2000/svg">
        <g clip-path="url(#clip0_2509_2704)">
            <path d="M28.5 23V26.5859L23.5 21.5859V15C23.5 14.8143 23.4483 14.6322 23.3507 14.4742C23.2531 14.3163 23.1134 14.1886 22.9473 14.1055L17.5 11.3818V5.8281L20.0859 8.4141L21.5 7L16.5 2L11.5 7L12.9141 8.4141L15.5 5.8281V11.3818L10.0527 14.1055C9.8866 14.1886 9.74691 14.3163 9.64929 14.4742C9.55167 14.6322 9.49998 14.8143 9.5 15V21.5859L4.5 26.5859V23H2.5V30H9.5V28H5.9141L10.6973 23.2168L16.0527 25.8945C16.1916 25.9639 16.3447 26 16.5 26C16.6553 26 16.8084 25.9639 16.9473 25.8945L22.3027 23.2168L27.0859 28H23.5V30H30.5V23H28.5ZM15.5 23.3818L11.5 21.3818V16.6182L15.5 18.6182V23.3818ZM16.5 16.8818L12.7363 15L16.5 13.1182L20.2637 15L16.5 16.8818ZM21.5 21.3818L17.5 23.3818V18.6182L21.5 16.6182V21.3818Z"/>
        </g>
            <circle cx="29.5" cy="42" r="2"/>
            <path d="M6.604 47.068C7.38 47.164 7.972 47.428 8.38 47.86C8.788 48.292 8.992 48.832 8.992 49.48C8.992 49.968 8.868 50.412 8.62 50.812C8.372 51.212 7.996 51.532 7.492 51.772C6.996 52.004 6.388 52.12 5.668 52.12C5.068 52.12 4.488 52.036 3.928 51.868C3.376 51.692 2.904 51.452 2.512 51.148L3.184 49.936C3.488 50.192 3.856 50.396 4.288 50.548C4.728 50.692 5.18 50.764 5.644 50.764C6.196 50.764 6.628 50.652 6.94 50.428C7.26 50.196 7.42 49.884 7.42 49.492C7.42 49.1 7.268 48.796 6.964 48.58C6.668 48.356 6.212 48.244 5.596 48.244H4.828V47.176L6.736 44.908H2.92V43.6H8.644V44.644L6.604 47.068ZM14.7884 46.816C15.3404 46.816 15.8364 46.924 16.2764 47.14C16.7164 47.348 17.0604 47.648 17.3084 48.04C17.5564 48.432 17.6804 48.884 17.6804 49.396C17.6804 49.94 17.5444 50.42 17.2724 50.836C17.0004 51.244 16.6324 51.56 16.1684 51.784C15.7044 52.008 15.1844 52.12 14.6084 52.12C13.4564 52.12 12.5604 51.76 11.9204 51.04C11.2884 50.32 10.9724 49.288 10.9724 47.944C10.9724 47 11.1444 46.196 11.4884 45.532C11.8324 44.86 12.3124 44.352 12.9284 44.008C13.5524 43.656 14.2724 43.48 15.0884 43.48C15.5204 43.48 15.9244 43.528 16.3004 43.624C16.6844 43.712 17.0164 43.844 17.2964 44.02L16.7204 45.196C16.3044 44.924 15.7724 44.788 15.1244 44.788C14.3164 44.788 13.6844 45.036 13.2284 45.532C12.7724 46.028 12.5444 46.744 12.5444 47.68V47.692C12.7924 47.404 13.1084 47.188 13.4924 47.044C13.8764 46.892 14.3084 46.816 14.7884 46.816ZM14.5244 50.896C15.0124 50.896 15.4084 50.768 15.7124 50.512C16.0164 50.248 16.1684 49.9 16.1684 49.468C16.1684 49.028 16.0164 48.68 15.7124 48.424C15.4084 48.168 15.0004 48.04 14.4884 48.04C13.9844 48.04 13.5724 48.176 13.2524 48.448C12.9404 48.72 12.7844 49.064 12.7844 49.48C12.7844 49.888 12.9364 50.228 13.2404 50.5C13.5524 50.764 13.9804 50.896 14.5244 50.896ZM22.9598 52.12C22.2878 52.12 21.6878 51.952 21.1598 51.616C20.6318 51.272 20.2158 50.776 19.9118 50.128C19.6078 49.472 19.4558 48.696 19.4558 47.8C19.4558 46.904 19.6078 46.132 19.9118 45.484C20.2158 44.828 20.6318 44.332 21.1598 43.996C21.6878 43.652 22.2878 43.48 22.9598 43.48C23.6318 43.48 24.2318 43.652 24.7598 43.996C25.2958 44.332 25.7158 44.828 26.0198 45.484C26.3238 46.132 26.4758 46.904 26.4758 47.8C26.4758 48.696 26.3238 49.472 26.0198 50.128C25.7158 50.776 25.2958 51.272 24.7598 51.616C24.2318 51.952 23.6318 52.12 22.9598 52.12ZM22.9598 50.764C23.5598 50.764 24.0318 50.516 24.3758 50.02C24.7278 49.524 24.9038 48.784 24.9038 47.8C24.9038 46.816 24.7278 46.076 24.3758 45.58C24.0318 45.084 23.5598 44.836 22.9598 44.836C22.3678 44.836 21.8958 45.084 21.5438 45.58C21.1998 46.076 21.0278 46.816 21.0278 47.8C21.0278 48.784 21.1998 49.524 21.5438 50.02C21.8958 50.516 22.3678 50.764 22.9598 50.764Z"/>
        <defs>
            <clipPath id="clip0_2509_2704">
              <rect width="32" height="32" transform="translate(0.5)"/>
            </clipPath>
        </defs>
    </svg>

    <svg id="gamepad" viewBox="0 0 38 24" xmlns="http://www.w3.org/2000/svg">
        <path d="M37.9356 16.9044L36.4012 4.87162C36.2536 3.70108 35.6841 2.62456 34.7997 1.84411C33.9149 1.06336 32.776 0.632398 31.5961 0.631893H25.6202C24.295 0.63302 23.0272 1.17211 22.107 2.12611L20.8151 3.45838C20.4345 3.85326 19.9098 4.07633 19.3614 4.07633C18.8131 4.07633 18.2883 3.85325 17.9078 3.45838L16.6156 2.08558H16.6159C15.689 1.14679 14.422 0.622375 13.1027 0.631965H7.12681C5.94697 0.632528 4.80794 1.06347 3.92322 1.84418C3.03879 2.62464 2.46931 3.70115 2.32171 4.87169L0.787267 16.9044C0.581936 18.4705 1.04104 20.0508 2.05334 21.2631C3.06561 22.475 4.5387 23.2087 6.11627 23.2859C7.69354 23.3631 9.23138 22.7767 10.3571 21.6692L14.9197 17.2275C15.2991 16.8619 15.8063 16.6591 16.3331 16.6622H22.4301C22.943 16.6695 23.434 16.8714 23.8032 17.2275L28.366 21.6692H28.3657C29.4915 22.7767 31.0293 23.3631 32.6066 23.2859C34.1842 23.2088 35.6573 22.475 36.6695 21.2631C37.6818 20.0508 38.1409 18.4705 37.9356 16.9044V16.9044ZM34.7459 19.7308H34.7456C34.1592 20.3817 33.3336 20.7664 32.4582 20.7968C31.5825 20.8272 30.7322 20.5008 30.1022 19.8924L25.5393 15.4507C24.7087 14.6398 23.5911 14.19 22.4301 14.199H16.2928C15.1318 14.19 14.0142 14.6398 13.1836 15.4507L8.62082 19.8924C7.97779 20.4876 7.1204 20.7957 6.24564 20.7464C5.37051 20.6974 4.55342 20.2947 3.98113 19.631C3.40881 18.9677 3.13052 18.1 3.21027 17.2274L4.70419 5.15427V5.15455C4.77376 4.56194 5.05965 4.0161 5.50664 3.62118C5.95363 3.2263 6.53045 3.01026 7.12704 3.01421H13.103C13.762 3.02322 14.389 3.30037 14.8394 3.78147L16.1316 5.15426L16.1313 5.15454C16.9693 6.03075 18.1291 6.52618 19.3414 6.52618C20.5539 6.52618 21.7135 6.03074 22.5515 5.15454L23.8437 3.78175V3.78147C24.3107 3.3049 24.9535 3.04211 25.6205 3.0548H31.5964C32.1929 3.05058 32.7697 3.26689 33.2168 3.66177C33.6638 4.05638 33.9496 4.60252 34.0192 5.19485L35.5131 17.2276C35.6221 18.1332 35.3436 19.0423 34.7459 19.731L34.7459 19.7308Z"/>
        <path d="M11.4472 8.50565H10.6397V7.69816C10.6397 7.26554 10.409 6.86557 10.0341 6.64926C9.65925 6.43267 9.19759 6.43267 8.82272 6.64926C8.44783 6.86557 8.21716 7.26553 8.21716 7.69816V8.50565H7.40938C6.97675 8.50565 6.57679 8.73661 6.36048 9.1115C6.14416 9.4861 6.14416 9.94805 6.36048 10.3229C6.57679 10.6975 6.97674 10.9285 7.40938 10.9285H8.21687V11.736H8.21715C8.21715 12.1689 8.44783 12.5688 8.82271 12.7852C9.19759 13.0015 9.65926 13.0015 10.0341 12.7852C10.409 12.5688 10.6397 12.1689 10.6397 11.736V10.9285H11.4472C11.8801 10.9285 12.2801 10.6975 12.4964 10.3229C12.7127 9.94803 12.7127 9.48615 12.4964 9.1115C12.2801 8.73661 11.8801 8.50565 11.4472 8.50565H11.4472Z"/>
        <path d="M29.8605 9.15155L28.1646 10.8474H28.1643C27.8542 11.1505 27.7295 11.5958 27.8365 12.016C27.9438 12.436 28.2671 12.7669 28.6846 12.8841C29.102 13.0013 29.5501 12.8866 29.8605 12.5838L31.5564 10.888C31.8665 10.5849 31.9916 10.1396 31.8843 9.71936C31.7769 9.29941 31.4536 8.96847 31.0362 8.8513C30.6187 8.73413 30.1706 8.84877 29.8605 9.15155H29.8605Z"/>
        <path d="M28.8911 6.44625C28.6646 6.22431 28.3602 6.1001 28.043 6.1001C27.7261 6.1001 27.4217 6.22431 27.1952 6.44625L25.4993 8.14214C25.2182 8.35283 25.0427 8.67504 25.0177 9.02542C24.9929 9.3758 25.121 9.71942 25.3695 9.96782C25.6179 10.2162 25.9615 10.3444 26.3119 10.3196C26.6623 10.2945 26.9845 10.1191 27.1951 9.83798L28.891 8.14209C29.113 7.91564 29.2372 7.61116 29.2372 7.29429C29.2372 6.97714 29.113 6.67267 28.891 6.4462L28.8911 6.44625Z"/>
    </svg>

    <svg id="card-pay" version="1.1" viewBox="0 0 700 700" xmlns="http://www.w3.org/2000/svg" xmlns:xlink="http://www.w3.org/1999/xlink">
        <defs>
        <symbol id="d" overflow="visible">
        <path d="m39.078-2.3281c-2.0117 1.043-4.1094 1.8281-6.2969 2.3594s-4.4648 0.79688-6.8281 0.79688c-7.0859 0-12.699-1.9766-16.844-5.9375-4.1367-3.957-6.2031-9.3281-6.2031-16.109 0-6.7891 2.0664-12.164 6.2031-16.125 4.1445-3.9688 9.7578-5.9531 16.844-5.9531 2.3633 0 4.6406 0.26562 6.8281 0.79688s4.2852 1.3242 6.2969 2.375v8.7969c-2.0312-1.3828-4.0391-2.3984-6.0156-3.0469-1.9688-0.64453-4.0469-0.96875-6.2344-0.96875-3.9062 0-6.9844 1.2578-9.2344 3.7656-2.2422 2.5-3.3594 5.9531-3.3594 10.359 0 4.3867 1.1172 7.8359 3.3594 10.344 2.25 2.5 5.3281 3.75 9.2344 3.75 2.1875 0 4.2656-0.32031 6.2344-0.96875 1.9766-0.64453 3.9844-1.6602 6.0156-3.0469z"/>
        </symbol>
        <symbol id="a" overflow="visible">
        <path d="m16.031-40.953v9.0625h10.516v7.2812h-10.516v13.531c0 1.4805 0.28906 2.4805 0.875 3 0.59375 0.52344 1.7656 0.78125 3.5156 0.78125h5.2344v7.2969h-8.7344c-4.0312 0-6.8867-0.83594-8.5625-2.5156-1.6797-1.6875-2.5156-4.5391-2.5156-8.5625v-13.531h-5.0781v-7.2812h5.0781v-9.0625z"/>
        </symbol>
        <symbol id="c" overflow="visible">
        <path d="m26.594-27.234v-17.078h10.266v44.312h-10.266v-4.6094c-1.3984 1.875-2.9453 3.25-4.6406 4.125-1.6875 0.875-3.6406 1.3125-5.8594 1.3125-3.9297 0-7.1562-1.5625-9.6875-4.6875-2.5234-3.125-3.7812-7.1445-3.7812-12.062 0-4.9141 1.2578-8.9375 3.7812-12.062 2.5312-3.125 5.7578-4.6875 9.6875-4.6875 2.1953 0 4.1445 0.44531 5.8438 1.3281 1.707 0.88672 3.2578 2.2578 4.6562 4.1094zm-6.7188 20.656c2.1875 0 3.8516-0.79688 5-2.3906 1.1445-1.5938 1.7188-3.9102 1.7188-6.9531 0-3.0391-0.57422-5.3594-1.7188-6.9531-1.1484-1.5938-2.8125-2.3906-5-2.3906-2.168 0-3.8242 0.79688-4.9688 2.3906-1.1484 1.5938-1.7188 3.9141-1.7188 6.9531 0 3.043 0.57031 5.3594 1.7188 6.9531 1.1445 1.5938 2.8008 2.3906 4.9688 2.3906z"/>
        </symbol>
        <symbol id="b" overflow="visible">
        <path d="m21.875-6.5781c2.1758 0 3.8359-0.79688 4.9844-2.3906 1.1562-1.5938 1.7344-3.9102 1.7344-6.9531 0-3.0391-0.57812-5.3594-1.7344-6.9531-1.1484-1.5938-2.8086-2.3906-4.9844-2.3906-2.1875 0-3.8672 0.80469-5.0312 2.4062-1.168 1.6055-1.75 3.918-1.75 6.9375 0 3.0234 0.58203 5.3359 1.75 6.9375 1.1641 1.6055 2.8438 2.4062 5.0312 2.4062zm-6.7812-20.656c1.4062-1.8516 2.9609-3.2227 4.6719-4.1094 1.707-0.88281 3.6719-1.3281 5.8906-1.3281 3.9375 0 7.1641 1.5625 9.6875 4.6875 2.5195 3.125 3.7812 7.1484 3.7812 12.062 0 4.918-1.2617 8.9375-3.7812 12.062-2.5234 3.125-5.75 4.6875-9.6875 4.6875-2.2188 0-4.1836-0.44531-5.8906-1.3281-1.7109-0.88281-3.2656-2.2539-4.6719-4.1094v4.6094h-10.188v-44.312h10.188z"/>
        </symbol>
        </defs>
        <g>
        <path d="m233.33 490c-6.4414 0-11.664 5.2227-11.664 11.668 0 6.4414 5.2227 11.664 11.664 11.664h140c6.4453 0 11.668-5.2227 11.668-11.664 0-6.4453-5.2227-11.668-11.668-11.668z"/>
        <path d="m560 151.67h-128.33v-93.336c0-15.469-6.1484-30.309-17.086-41.246-10.941-10.941-25.777-17.086-41.25-17.086h-210c-15.469 0-30.309 6.1445-41.246 17.086-10.941 10.938-17.086 25.777-17.086 41.246v443.34c0 15.469 6.1445 30.309 17.086 41.246 10.938 10.941 25.777 17.086 41.246 17.086h210c15.473 0 30.309-6.1445 41.25-17.086 10.938-10.938 17.086-25.777 17.086-41.246v-93.336h128.33c9.2812 0 18.184-3.6875 24.75-10.25 6.5625-6.5625 10.25-15.465 10.25-24.75v-186.66c0-9.2852-3.6875-18.188-10.25-24.75-6.5664-6.5625-15.469-10.25-24.75-10.25zm-57.398 233.33h-222.6v-93.332h11.668c6.4414 0 11.664-5.2266 11.664-11.668s-5.2227-11.668-11.664-11.668h-11.668v-93.332h222.6c2.5312 17.418 10.621 33.551 23.066 45.996 12.449 12.445 28.582 20.539 46 23.07v71.867c-17.418 2.5312-33.551 10.625-46 23.07-12.445 12.445-20.535 28.578-23.066 45.996zm69.066-198.33v33.832c-11.211-2.2852-21.504-7.8203-29.594-15.91-8.0898-8.0898-13.621-18.379-15.906-29.59h33.832c3.0938 0 6.0625 1.2305 8.25 3.418s3.418 5.1562 3.418 8.25zm-245-163.34v11.668c0 3.0938-1.2305 6.0625-3.418 8.25s-5.1562 3.418-8.25 3.418h-93.332c-6.4453 0-11.668-5.2266-11.668-11.668v-11.668zm81.668 478.33-0.003907 0.003907c0 9.2812-3.6875 18.184-10.25 24.746-6.5625 6.5664-15.465 10.254-24.75 10.254h-210c-9.2812 0-18.184-3.6875-24.746-10.254-6.5664-6.5625-10.254-15.465-10.254-24.746v-443.34c0-9.2812 3.6875-18.184 10.254-24.746 6.5625-6.5664 15.465-10.254 24.746-10.254h23.332l0.003907 11.668c0 9.2812 3.6875 18.184 10.25 24.75 6.5625 6.5625 15.465 10.25 24.75 10.25h93.332c9.2812 0 18.184-3.6875 24.75-10.25 6.5625-6.5664 10.25-15.469 10.25-24.75v-11.668h23.332c9.2852 0 18.188 3.6875 24.75 10.254 6.5625 6.5625 10.25 15.465 10.25 24.746v93.332l-128.33 0.003907v-23.336c0-6.4414-5.2227-11.664-11.668-11.664-6.4414 0-11.664 5.2227-11.664 11.664v303.34c0 6.4414 5.2227 11.664 11.664 11.664 6.4453 0 11.668-5.2227 11.668-11.664v-23.336h128.33zm151.66-116.66h-33.832c2.2852-11.211 7.8164-21.5 15.906-29.59 8.0898-8.0898 18.383-13.625 29.594-15.91v33.832c0 3.0938-1.2305 6.0625-3.418 8.25s-5.1562 3.418-8.25 3.418z"/>
        <path d="m385 221.67c-15.473 0-30.309 6.1445-41.246 17.086-10.941 10.938-17.086 25.773-17.086 41.246s6.1445 30.309 17.086 41.246c10.938 10.941 25.773 17.086 41.246 17.086s30.309-6.1445 41.246-17.086c10.941-10.938 17.086-25.773 17.086-41.246s-6.1445-30.309-17.086-41.246c-10.938-10.941-25.773-17.086-41.246-17.086zm0 93.332c-9.2812 0-18.184-3.6875-24.75-10.25-6.5625-6.5664-10.25-15.469-10.25-24.75s3.6875-18.184 10.25-24.75c6.5664-6.5625 15.469-10.25 24.75-10.25s18.184 3.6875 24.75 10.25c6.5625 6.5664 10.25 15.469 10.25 24.75s-3.6875 18.184-10.25 24.75c-6.5664 6.5625-15.469 10.25-24.75 10.25z"/>
        <path d="m525 268.33h-46.668c-6.4414 0-11.664 5.2266-11.664 11.668s5.2227 11.668 11.664 11.668h46.668c6.4414 0 11.668-5.2266 11.668-11.668s-5.2266-11.668-11.668-11.668z"/>
        <use x="70" y="735" xlink:href="#d"/>
        <use x="220.503906" y="735" xlink:href="#a"/>
        <use x="287.953125" y="735" xlink:href="#c"/>
        <use x="350.015625" y="735" xlink:href="#b"/>
        <use x="450.105469" y="735" xlink:href="#a"/>
        <use x="639.945312" y="735" xlink:href="#a"/>
        </g>
    </svg>

    <svg id="cash-delivery" version="1.0" xmlns="http://www.w3.org/2000/svg" viewBox="0 0 512.000000 512.000000" preserveAspectRatio="xMidYMid meet">
        <g transform="translate(0.000000,512.000000) scale(0.100000,-0.100000)"
        fill="#000000" stroke="none">
        <path d="M1460 5104 c-36 -24 -1096 -1082 -1131 -1128 -19 -26 -29 -51 -29
        -75 0 -34 43 -79 978 -1013 l977 -978 45 0 45 0 520 520 520 520 86 0 c138 0
        267 44 393 134 63 45 179 160 210 209 l18 27 475 0 c518 0 516 0 542 57 8 16
        11 228 11 674 0 705 1 692 -55 717 -18 9 -120 12 -350 12 l-324 0 -28 -24
        c-24 -21 -29 -33 -33 -93 l-5 -68 -162 -3 -162 -2 -25 -31 c-16 -18 -26 -43
        -26 -61 l0 -31 -57 6 c-90 10 -160 39 -336 138 -213 121 -543 283 -637 313
        -41 13 -118 29 -170 35 -166 21 -237 6 -568 -114 l-257 -94 -175 174 c-96 95
        -185 178 -197 184 -31 16 -65 14 -93 -5z m162 -341 c60 -59 108 -111 108 -114
        0 -4 -24 -17 -52 -30 -45 -20 -69 -24 -163 -24 -93 0 -119 4 -167 24 -32 13
        -58 26 -58 29 0 8 212 222 220 222 2 0 53 -48 112 -107z m1199 -18 c31 -8 83
        -26 115 -41 101 -44 405 -199 505 -257 204 -118 290 -152 424 -172 l80 -11 3
        -399 2 -399 -37 -54 c-57 -83 -156 -168 -251 -215 -80 -39 -91 -42 -187 -45
        -186 -7 -326 48 -460 183 l-80 81 -395 133 c-217 74 -414 143 -437 153 -80 37
        -143 128 -143 208 0 40 41 111 83 144 29 23 50 31 95 34 52 3 101 -10 517
        -142 252 -80 472 -146 488 -146 45 0 87 48 87 100 0 65 -23 80 -226 145 -98
        31 -262 83 -364 116 l-185 59 -188 188 -188 188 123 43 c68 25 157 58 198 74
        144 57 283 67 421 32z m2099 -695 l0 -530 -195 0 -195 0 0 530 0 530 195 0
        195 0 0 -530z m-3723 421 c84 -52 166 -74 289 -79 131 -5 228 17 333 74 l64
        35 104 -103 c97 -97 102 -104 81 -112 -135 -54 -181 -86 -235 -163 -26 -38
        -44 -54 -67 -58 -74 -16 -195 -85 -258 -149 -111 -110 -168 -248 -168 -404 0
        -165 51 -286 169 -402 158 -156 366 -206 572 -139 141 46 271 159 334 290 19
        41 35 79 35 86 0 20 12 17 182 -39 l157 -52 -6 -96 c-7 -125 13 -219 70 -332
        l44 -86 -111 -111 -111 -110 -90 45 c-193 96 -396 94 -584 -7 l-75 -40 -507
        507 -507 507 28 47 c16 27 41 81 56 122 25 65 28 87 28 198 1 142 -20 226 -79
        323 l-32 52 111 113 c61 61 114 112 118 112 4 0 28 -13 55 -29z m3131 -518 l2
        -433 -90 0 -90 0 0 435 0 436 88 -3 87 -3 3 -432z m-3518 79 c32 -102 21 -233
        -26 -324 l-16 -31 -114 114 -114 114 112 113 c128 128 123 127 158 14z m963
        -219 c17 -101 113 -222 222 -279 33 -17 104 -46 158 -64 54 -18 101 -38 104
        -46 11 -29 -32 -109 -92 -170 -78 -79 -146 -107 -260 -107 -143 0 -257 67
        -326 195 -33 60 -34 67 -34 168 0 91 3 112 25 155 29 60 101 140 150 165 47
        25 47 25 53 -17z m1266 -753 c26 -17 63 -35 80 -41 17 -6 31 -14 31 -18 0 -4
        -24 -30 -53 -59 l-53 -52 -18 37 c-29 59 -55 163 -41 163 3 0 27 -14 54 -30z
        m-591 -650 c31 -11 60 -24 66 -30 7 -7 -25 -46 -102 -123 l-112 -112 -110 110
        c-60 60 -110 113 -110 117 0 11 67 39 130 54 68 17 164 10 238 -16z"/>
        <path d="M3425 3856 c-32 -32 -40 -69 -25 -107 17 -40 47 -59 93 -59 53 0 97
        43 97 95 0 82 -108 128 -165 71z"/>
        <path d="M1502 2000 c-148 -39 -303 -142 -415 -275 l-59 -70 -485 -5 -485 -5
        -29 -33 -29 -32 0 -655 c0 -391 4 -664 10 -679 20 -54 28 -56 389 -56 l334 -1
        28 27 c24 23 29 36 31 88 l3 61 155 5 c191 6 220 19 220 100 l0 32 53 -7 c95
        -13 171 -44 332 -135 208 -118 562 -292 646 -318 162 -50 338 -53 485 -8 147
        44 1649 588 1698 614 184 100 279 291 232 468 -54 203 -235 322 -448 294 -35
        -5 -234 -56 -442 -114 -209 -58 -381 -106 -382 -106 -2 0 -17 27 -35 60 -39
        73 -125 155 -199 191 -30 15 -226 84 -435 155 l-380 128 -45 47 c-25 26 -70
        66 -99 89 -176 135 -446 193 -649 140z m293 -195 c116 -24 222 -83 302 -168
        37 -40 73 -76 79 -80 7 -4 198 -70 425 -147 228 -77 431 -152 452 -165 134
        -90 139 -263 9 -342 -77 -47 -75 -48 -595 117 -337 107 -486 150 -503 146 -72
        -18 -101 -117 -50 -165 17 -16 164 -67 498 -174 446 -142 477 -150 553 -150
        171 0 316 103 370 262 l15 46 413 112 c226 62 426 115 443 118 48 9 121 -14
        158 -49 99 -94 78 -238 -46 -324 -28 -19 -312 -126 -818 -307 -426 -153 -806
        -289 -845 -303 -60 -22 -87 -26 -185 -26 -79 0 -135 5 -180 17 -78 21 -446
        201 -655 321 -161 92 -260 130 -387 148 l-78 11 0 403 0 403 59 73 c58 74 151
        152 223 189 94 48 217 60 343 34z m-1205 -885 l0 -530 -195 0 -195 0 0 530 0
        530 195 0 195 0 0 -530z m380 90 l0 -441 -87 3 -88 3 -3 425 c-1 234 0 431 3
        438 3 8 31 12 90 12 l85 0 0 -440z"/>
        <path d="M1559 1251 c-68 -69 -5 -187 89 -166 46 10 77 49 77 97 0 33 -6 45
        -33 69 -44 40 -93 40 -133 0z"/>
        </g>
    </svg>
    <symbol id="ar-icon" viewBox="0 0 38 32">
<path fill="#fff" style="fill: var(--color1, #fff)" d="M0 0h38v32h-38v-32z"></path>
<path fill="#000" style="fill: var(--color2, #000)" d="M23.834 14.707v-4.992l-4.839-2.795-4.842 2.793v5.587l4.839 2.793 4.838-2.794v-0.591l0.004-0.001zM18.483 16.613l-3.3-1.905v-3.81l3.3 1.905v3.81zM15.695 10.007l3.3-1.905 3.3 1.905-3.299 1.907-3.3-1.907zM22.809 14.708l-3.302 1.905v-3.81l3.301-1.905 0.001 3.81z"></path>
<path fill="#000" style="fill: var(--color2, #000)" d="M19.508 5.421v1.093l-0.513-0.296-0.513 0.296v-1.093l0.513-0.296 0.513 0.296z"></path>
<path fill="#000" style="fill: var(--color2, #000)" d="M13.155 16.472l0.907-0.524-0.513-0.296v-0.593l-0.907 0.524v0.593l0.513 0.296z"></path>
<path fill="#000" style="fill: var(--color2, #000)" d="M24.837 16.472l-0.907-0.524 0.513-0.296v-0.593l0.907 0.524v0.593l-0.513 0.296z"></path>
<path fill="#000" style="fill: var(--color2, #000)" d="M8.277 23.019h-1.254v-0.739h3.416v0.739h-1.254v3.181h-0.907v-3.181zM13.424 26.2l-0.756-1.092h-0.834v1.092h-0.907v-3.92h1.697c0.347 0 0.648 0.058 0.902 0.174 0.258 0.116 0.455 0.28 0.594 0.493s0.207 0.465 0.207 0.756c0 0.291-0.071 0.543-0.213 0.756-0.138 0.209-0.336 0.37-0.594 0.482l0.879 1.26h-0.974zM13.407 23.702c0-0.22-0.071-0.388-0.213-0.504-0.142-0.119-0.349-0.179-0.622-0.179h-0.739v1.366h0.739c0.273 0 0.48-0.060 0.622-0.179s0.213-0.287 0.213-0.504zM16.871 24.811v1.389h-0.907v-1.4l-1.518-2.52h0.963l1.047 1.742 1.047-1.742h0.89l-1.523 2.531zM22.259 26.267c-0.407 0-0.775-0.088-1.103-0.263-0.325-0.175-0.581-0.416-0.767-0.722-0.183-0.31-0.274-0.657-0.274-1.042s0.091-0.73 0.274-1.036c0.187-0.31 0.442-0.553 0.767-0.728 0.329-0.175 0.696-0.263 1.103-0.263s0.773 0.088 1.098 0.263 0.581 0.418 0.767 0.728c0.187 0.306 0.28 0.651 0.28 1.036s-0.093 0.732-0.28 1.042c-0.187 0.306-0.442 0.547-0.767 0.722s-0.691 0.263-1.098 0.263zM22.259 25.494c0.231 0 0.441-0.052 0.627-0.157 0.187-0.108 0.332-0.258 0.437-0.448 0.108-0.19 0.162-0.407 0.162-0.65s-0.054-0.459-0.162-0.65c-0.105-0.19-0.25-0.338-0.437-0.442-0.187-0.108-0.396-0.162-0.627-0.162s-0.441 0.054-0.627 0.162c-0.187 0.105-0.334 0.252-0.442 0.442-0.105 0.19-0.157 0.407-0.157 0.65s0.052 0.459 0.157 0.65c0.108 0.19 0.256 0.34 0.442 0.448 0.187 0.105 0.396 0.157 0.627 0.157zM28.68 22.28v3.92h-0.745l-1.954-2.38v2.38h-0.896v-3.92h0.75l1.949 2.38v-2.38h0.896zM29.434 22.28h1.042l-0.174 2.559h-0.694l-0.174-2.559zM29.955 26.245c-0.153 0-0.282-0.049-0.386-0.146-0.101-0.101-0.151-0.222-0.151-0.364s0.050-0.259 0.151-0.353c0.101-0.097 0.23-0.146 0.386-0.146s0.286 0.049 0.386 0.146c0.101 0.093 0.151 0.211 0.151 0.353s-0.052 0.263-0.157 0.364c-0.101 0.097-0.228 0.146-0.381 0.146z"></path>
</symbol>
  
</svg>