<svg width="49" height="30" viewBox="0 0 49 30" fill="none" xmlns="http://www.w3.org/2000/svg">
<path d="M4.53697 19.1431C3.00996 20.0982 0.419958 23.1414 3.74379 24.7763C5.75643 25.7692 8.88061 25.5803 11.0767 25.807C16.0625 26.3303 21.0698 26.5138 26.0717 26.4922C31.0898 26.4652 36.7824 26.7782 41.698 25.6828C44.9301 24.9598 47.7575 22.0191 44.9086 19.019C43.2574 17.2869 40.6243 16.8499 38.2015 16.6556C38.1854 16.6718 38.1638 16.6934 38.1476 16.715C37.6458 17.2006 36.9497 16.9956 36.626 16.5423C36.5882 16.5369 36.5504 16.5369 36.518 16.5315C36.1295 16.5045 36.0054 15.9056 36.4209 15.8247C36.4371 15.8193 36.4587 15.8193 36.4749 15.8139C36.4759 15.8102 36.4769 15.8065 36.478 15.8028C36.504 15.709 36.5313 15.6103 36.5936 15.5117C37.5702 13.839 37.4785 11.6321 35.1151 11.3677C33.6205 11.195 32.455 12.1177 31.5053 13.1969L30.7445 12.7383C32.1366 10.7742 34.2626 9.1824 36.7393 10.2022C38.7681 11.0332 39.7555 13.4775 39.0109 15.4146C41.6225 15.107 44.2772 15.2419 46.4626 17.001C48.5346 18.6629 49.5759 21.4309 48.4914 23.9562C47.0237 27.3663 43.252 28.343 39.885 28.6505C35.1151 29.0822 30.2805 29.147 25.4944 29.0984C20.6759 29.0444 15.8574 28.7423 11.0767 28.1218C8.21693 27.7494 2.74016 27.9005 0.88939 25.235C-2.2294 20.7403 3.95422 16.2671 8.19534 17.3948L8.92918 17.0063C8.99393 17.1466 9.07486 17.2923 9.1558 17.438C9.25832 17.6161 9.21515 17.7726 9.11263 17.8751C9.1558 18.0747 9.01551 18.3283 8.78349 18.3121C7.25647 18.2042 5.88054 18.3014 4.53697 19.1431Z" fill="white"/>
<path d="M17.9942 2.96641C10.8663 3.33872 5.5352 10.3641 8.92918 17.0063L8.20074 17.3948C3.42003 10.5475 9.43098 2.26496 16.8664 1.06169C20.3791 0.489729 24.167 1.32609 26.9566 3.59773C29.811 5.92333 30.7499 9.24716 30.7445 12.7383L31.5053 13.1969C31.2193 13.526 30.9495 13.8768 30.6905 14.2167V14.2653C30.561 15.9973 27.8308 15.9919 27.9818 14.2653C28.2624 11.0817 28.079 7.84424 25.5861 5.54562C23.5734 3.68945 20.7029 2.83152 17.9996 2.97181L17.9942 2.96641Z" fill="white"/>
<path d="M4.53697 19.1431C3.00996 20.0982 0.419958 23.1414 3.74379 24.7763C5.75643 25.7692 8.88061 25.5803 11.0767 25.807C16.0625 26.3303 21.0698 26.5138 26.0717 26.4922C31.0898 26.4652 36.7824 26.7782 41.698 25.6828C44.9301 24.9598 47.7575 22.0191 44.9086 19.019C43.2574 17.2869 40.6243 16.8499 38.2015 16.6556C38.1854 16.6718 38.1638 16.6934 38.1476 16.715C37.6458 17.2006 36.9497 16.9956 36.626 16.5423C36.5882 16.5369 36.5504 16.5369 36.518 16.5315C36.1295 16.5045 36.0054 15.9056 36.4209 15.8247C36.4371 15.8193 36.4587 15.8193 36.4749 15.8139L36.478 15.8028C36.504 15.709 36.5313 15.6103 36.5936 15.5117C37.5702 13.839 37.4785 11.6321 35.1151 11.3677C33.6205 11.195 32.455 12.1177 31.5053 13.1969C31.2193 13.526 30.9495 13.8768 30.6905 14.2167V14.2653C30.561 15.9973 27.8308 15.9919 27.9818 14.2653C28.2624 11.0817 28.079 7.84424 25.5861 5.54562C23.5734 3.68945 20.7029 2.83152 17.9996 2.97181L17.9942 2.96641C10.8663 3.33872 5.5352 10.3641 8.92918 17.0063C8.99393 17.1466 9.07486 17.2923 9.1558 17.438C9.25832 17.6161 9.21515 17.7726 9.11263 17.8751C9.1558 18.0747 9.01551 18.3283 8.78349 18.3121C7.25647 18.2042 5.88054 18.3014 4.53697 19.1431Z" fill="white"/>
</svg>
