<svg width="55" height="37" viewBox="0 0 55 37" fill="none" xmlns="http://www.w3.org/2000/svg">
<path d="M54.1281 15.9549C55.1826 22.1799 49.0534 27.1767 43.6192 24.9779L43.9368 23.9234C48.9036 25.1936 53.9963 20.5083 51.4739 15.1461C49.0174 9.92758 42.5048 10.3829 39.0778 14.1755C38.4487 14.8645 37.6338 14.6967 37.1246 14.1874C36.831 14.2713 36.4296 13.9897 36.5374 13.6303C36.5854 13.4984 36.6213 13.3726 36.6513 13.2348C36.6213 12.9353 36.6932 12.6237 36.8909 12.3301C37.0047 11.8149 37.0886 11.2996 37.1246 10.8083L38.3708 10.9162C43.763 6.74616 52.816 8.25599 54.1281 15.9609V15.9549Z" fill="white"/>
<path d="M21.3074 29.8729C22.979 29.6392 24.4169 27.8058 24.6326 26.3679C24.7464 25.6549 25.705 25.9365 25.7829 26.5237C26.3821 31.2209 29.9949 35.0254 35.0036 34.1327C39.7428 33.2939 42.0076 28.6866 40.7434 24.2889C40.2641 22.6173 42.8823 21.8984 43.3436 23.5699C43.3556 23.6299 43.3616 23.6898 43.3796 23.7557C43.5653 23.8216 43.751 23.8755 43.9368 23.9234L43.6192 24.9779C44.3681 30.3342 40.995 35.5707 35.3152 36.3555C30.2465 37.0565 25.5672 33.5096 24.7344 28.6866C23.8417 29.807 22.6494 30.4001 21.4092 30.5619L21.3074 29.8729Z" fill="white"/>
<path d="M16.2147 27.6261C11.158 31.2389 1.43398 29.8669 0.744967 22.833C0.433416 19.6096 2.22484 16.3443 5.18458 14.9903C7.68298 13.8459 10.451 14.0976 12.8835 15.182L12.4761 16.1346C10.3851 15.5475 8.15031 15.5894 6.19712 16.7218C4.1241 17.9261 2.78803 20.5803 3.35721 22.9708C4.02225 25.7628 7.16173 26.8532 9.75 26.7933C12.3383 26.7394 14.1417 25.5111 16.1668 24.0972C16.3106 24.0013 16.4484 23.9414 16.5802 23.8995C16.7959 23.7437 17.0894 23.7796 17.2752 23.9414C17.9941 24.2709 18.3596 25.4333 17.7665 26.1762C17.6526 26.326 17.5268 26.4638 17.401 26.5956C17.6886 27.9137 18.5513 29.0401 19.9353 29.6572C20.3967 29.8669 20.858 29.9268 21.3074 29.8729L21.4092 30.5619C19.2224 30.8315 16.9516 29.7111 16.2327 27.6201L16.2147 27.6261Z" fill="white"/>
<path d="M12.4761 16.1346L12.8835 15.182C13.1471 15.2899 13.4047 15.4217 13.6564 15.5535C13.0512 12.2522 15.0943 8.0343 17.0655 5.73361C19.7256 2.63008 23.7638 0.886602 27.832 0.892594C31.3908 0.898585 35.0695 2.34849 37.1845 5.32621C38.5146 7.2075 38.7363 9.03487 38.3708 10.9162L37.1246 10.8083C37.3043 8.46568 36.5554 6.38069 34.2367 4.75703C32.0199 3.19328 29.186 2.76789 26.5438 3.22324C21.9185 4.02009 15.6455 9.47823 16.5921 14.8645C17.0595 15.158 17.371 15.7093 17.1973 16.3983L17.1374 16.6559C16.9756 17.3269 16.3645 17.6505 15.7294 17.7283C15.6216 17.7403 15.5197 17.7583 15.4118 17.7703C14.7168 17.8542 14.2016 17.2191 13.9679 16.6679V16.6559C13.4826 16.4522 12.9853 16.2665 12.4761 16.1346Z" fill="white"/>
<path d="M43.9368 23.9234C48.9036 25.1936 53.9963 20.5083 51.4739 15.1461C49.0174 9.92758 42.5048 10.3829 39.0778 14.1755C38.4487 14.8645 37.6338 14.6967 37.1246 14.1874C36.831 14.2713 36.4296 13.9897 36.5374 13.6303C36.5854 13.4984 36.6213 13.3726 36.6513 13.2348C36.6213 12.9353 36.6932 12.6237 36.8909 12.3301C37.0047 11.8149 37.0886 11.2996 37.1246 10.8083C37.3043 8.46568 36.5554 6.38069 34.2367 4.75703C32.0199 3.19328 29.186 2.76789 26.5438 3.22324C21.9185 4.02009 15.6455 9.47823 16.5921 14.8645C17.0595 15.158 17.371 15.7093 17.1973 16.3983L17.1374 16.6559C16.9756 17.3269 16.3645 17.6505 15.7294 17.7283C15.6216 17.7403 15.5197 17.7583 15.4118 17.7703C14.7168 17.8542 14.2016 17.2191 13.9679 16.6679V16.6559C13.4826 16.4522 12.9853 16.2665 12.4761 16.1346C10.3851 15.5475 8.15031 15.5894 6.19712 16.7218C4.1241 17.9261 2.78803 20.5803 3.35721 22.9708C4.02225 25.7628 7.16173 26.8532 9.75 26.7933C12.3383 26.7394 14.1417 25.5111 16.1668 24.0972C16.3106 24.0013 16.4484 23.9414 16.5802 23.8995C16.7959 23.7437 17.0894 23.7796 17.2752 23.9414C17.9941 24.2709 18.3596 25.4333 17.7665 26.1762C17.6526 26.326 17.5268 26.4638 17.401 26.5956C17.6886 27.9137 18.5513 29.0401 19.9353 29.6572C20.3967 29.8669 20.858 29.9268 21.3074 29.8729C22.979 29.6392 24.4169 27.8058 24.6326 26.3679C24.7464 25.6549 25.705 25.9365 25.7829 26.5237C26.3821 31.2209 29.9949 35.0254 35.0036 34.1327C39.7428 33.2939 42.0076 28.6866 40.7434 24.2889C40.2641 22.6173 42.8823 21.8984 43.3436 23.5699C43.3556 23.6299 43.3616 23.6898 43.3796 23.7557C43.5653 23.8216 43.751 23.8755 43.9368 23.9234Z" fill="white"/>
</svg>
