<svg width="102" height="63" viewBox="0 0 102 63" fill="none" xmlns="http://www.w3.org/2000/svg">
<path d="M44.9712 58.281C47.7512 59.171 50.3112 59.231 52.6912 57.591C55.1312 55.921 56.1312 53.641 54.2812 51.051C52.8012 48.981 56.1912 46.401 57.7912 48.351C64.6212 56.611 80.0712 53.671 87.8712 48.531C92.5812 45.431 100.521 37.531 95.1912 31.941C90.3812 26.921 80.8012 28.601 75.1512 30.991C72.3912 32.161 69.9112 28.371 72.5012 26.861C72.8312 26.201 73.1412 25.541 73.4212 24.881L76.1212 25.321C83.2312 22.891 92.0712 22.831 98.0612 27.551C104.591 32.671 102.011 41.141 97.4712 46.661C92.1112 53.161 83.9712 57.131 75.6612 58.021C70.3112 58.601 63.7912 58.071 58.9012 55.231C58.0312 58.621 55.2112 61.441 51.3512 62.051C44.5712 63.111 37.4112 58.371 34.9912 52.081L36.5812 51.091C38.2812 54.421 41.4112 57.181 44.9612 58.301L44.9712 58.281Z" fill="white"/>
<path d="M18.3613 30.1911C14.1613 22.3511 17.2713 12.4211 25.5813 8.45106C32.3013 5.22106 39.7013 7.04106 44.6613 11.8211C47.1713 3.29106 55.8813 -2.55894 65.5313 1.12106C70.7813 3.12106 75.7313 8.03106 77.6213 13.3411C79.1413 17.6611 78.1712 21.691 76.1212 25.321L73.4212 24.881C74.8212 21.601 75.5713 18.3011 73.9813 14.6111C72.4913 11.1311 69.3313 8.10106 65.9913 6.36106C57.3513 1.88106 47.4413 8.52105 49.0513 18.3211C49.4813 20.9311 45.6813 23.1111 44.4013 20.2911C41.7113 14.2711 35.6813 10.2911 29.0113 12.4611C21.5213 14.9011 19.4713 23.3411 23.1713 29.7511C23.8713 30.9711 23.3613 32.0411 22.4713 32.5811C22.9213 33.1911 22.0713 34.1211 21.3613 33.7011C20.0718 32.9513 18.6323 32.5413 17.1728 32.4511C17.1723 32.4511 17.1718 32.4511 17.1713 32.4511L17.4013 29.8911C17.7213 29.9711 18.0513 30.0611 18.3713 30.1711L18.3613 30.1911Z" fill="white"/>
<path d="M17.1611 32.4609C12.3111 32.1209 7.12108 35.1109 5.51108 39.7309C4.00108 44.0209 6.25109 48.4009 9.53109 51.1709C16.6611 57.1909 26.7111 55.0709 31.9711 47.8109C33.8311 45.2309 38.1411 47.6309 36.3111 50.3409C36.3011 50.3609 36.2911 50.3709 36.2811 50.4009C36.3811 50.6309 36.4612 50.871 36.5812 51.091L34.9912 52.081C26.3212 62.391 8.80109 62.4909 2.08109 49.4809C-3.41891 38.8409 7.31131 27.3411 17.4013 29.8911L17.1728 32.4511L17.1711 32.4709L17.1611 32.4609Z" fill="white"/>
<path d="M44.9712 58.281C47.7512 59.171 50.3112 59.231 52.6912 57.591C55.1312 55.921 56.1312 53.641 54.2812 51.051C52.8012 48.981 56.1912 46.401 57.7912 48.351C64.6212 56.611 80.0712 53.671 87.8712 48.531C92.5812 45.431 100.521 37.531 95.1912 31.941C90.3812 26.921 80.8012 28.601 75.1512 30.991C72.3912 32.161 69.9112 28.371 72.5012 26.861C72.8312 26.201 73.1412 25.541 73.4212 24.881C74.8212 21.601 75.5713 18.3011 73.9813 14.6111C72.4913 11.1311 69.3313 8.10106 65.9913 6.36106C57.3513 1.88106 47.4413 8.52105 49.0513 18.3211C49.4813 20.9311 45.6813 23.1111 44.4013 20.2911C41.7113 14.2711 35.6813 10.2911 29.0113 12.4611C21.5213 14.9011 19.4713 23.3411 23.1713 29.7511C23.8713 30.9711 23.3613 32.0411 22.4713 32.5811C22.9213 33.1911 22.0713 34.1211 21.3613 33.7011C20.0718 32.9513 18.6323 32.5413 17.1728 32.4511L17.1711 32.4709L17.1611 32.4609C12.3111 32.1209 7.12108 35.1109 5.51108 39.7309C4.00108 44.0209 6.25109 48.4009 9.53109 51.1709C16.6611 57.1909 26.7111 55.0709 31.9711 47.8109C33.8311 45.2309 38.1411 47.6309 36.3111 50.3409C36.3011 50.3609 36.2911 50.3709 36.2811 50.4009C36.3811 50.6309 36.4612 50.871 36.5812 51.091C38.2812 54.421 41.4112 57.181 44.9612 58.301L44.9712 58.281Z" fill="white"/>
</svg>
