<svg width="95" height="68" viewBox="0 0 95 68" fill="none" xmlns="http://www.w3.org/2000/svg">
<path d="M53.3965 53.2866C54.7165 54.9466 56.4765 56.2766 58.5865 56.6466C62.8765 57.4166 68.8065 52.8866 64.5965 48.6066C63.0665 47.0366 65.3365 44.9166 66.9565 46.2466C72.4565 50.7366 80.0965 51.4366 86.0165 47.1566C90.5065 43.9166 91.3365 37.5466 85.9065 34.5466C81.7765 32.2666 76.9665 33.9266 73.2865 36.2066C71.1282 37.5402 69.1547 34.7403 70.3373 33.0001C70.3408 32.9948 70.3443 32.9894 70.3479 32.9841C70.5123 32.747 70.7361 32.5302 71.0265 32.3466C71.0965 32.2966 71.1665 32.2566 71.2265 32.2266C71.2268 32.2195 71.227 32.2124 71.2273 32.2053C71.2523 31.5623 71.3765 30.9581 71.4995 30.359C71.6981 29.3922 71.894 28.4387 71.6665 27.3566C71.3365 25.7166 70.3865 24.1666 68.9565 23.2566C66.6365 21.7566 63.9365 22.2666 61.7565 23.6666L61.7484 23.6544L60.3065 21.4766C62.8865 19.2166 66.8865 18.4666 70.0965 19.8866C73.2165 21.2566 76.4165 25.9766 76.1865 29.9066C80.6665 28.4266 85.5565 28.4666 89.5565 31.4666C93.8165 34.6666 95.8965 40.4866 93.4665 45.4266C89.2665 54.0166 76.9465 56.3666 68.8165 51.9766C68.6465 54.9166 66.8765 57.6766 63.6465 58.8066C59.1065 60.3866 54.4865 58.1566 51.9165 54.4866L53.3865 53.2966L53.3965 53.2866Z" fill="white"/>
<path d="M27.2065 65.6466C19.1365 62.0066 17.5165 53.4866 21.6265 47.1266L24.2265 47.5966C22.2065 51.5066 21.3265 56.1366 24.6265 59.5966C28.1165 63.2466 34.2965 63.8366 38.7665 62.1166C41.7566 60.9614 44.0226 58.8825 45.5559 56.2374C46.0533 55.3793 46.4736 54.4617 46.8165 53.4966C46.9547 53.1066 47.0601 52.7464 47.1584 52.4105C47.4648 51.3632 47.7022 50.5517 48.6487 49.8084C48.7609 49.7203 48.8831 49.6331 49.0165 49.5466C50.4465 48.6066 52.1865 49.5966 52.6865 51.0366C52.7365 51.1766 52.7765 51.2966 52.8265 51.4366C52.9465 51.7866 52.9365 52.1866 52.8565 52.5566C53.0265 52.8066 53.2065 53.0566 53.3865 53.2966L51.9165 54.4866C51.6065 55.2166 51.0265 56.2166 50.8565 56.5766C50.3365 57.7466 49.7065 58.8066 48.9465 59.8366C47.5265 61.7666 45.7465 63.4866 43.6865 64.7166C38.7065 67.7066 32.4665 68.0366 27.1765 65.6466H27.2065Z" fill="white"/>
<path d="M23.9465 28.0466C23.1865 27.8566 22.3865 27.7166 21.5365 27.6266L21.6465 26.1866C13.1165 16.0566 25.8365 2.34662 36.7165 0.946623C49.3865 -0.693377 59.7965 9.48661 60.2965 21.4666L61.7484 23.6544C61.6834 23.6955 61.6169 23.7395 61.5527 23.7821C61.0541 24.113 60.5818 24.4902 60.1565 24.9066C60.0865 25.4666 60.0065 26.0266 59.8965 26.5966C59.777 27.2017 59.5076 27.6362 59.1551 27.921C57.7075 29.0907 54.8585 27.7372 55.2365 25.3166C56.8365 15.0966 49.8265 4.91662 38.9765 4.91662C36.3511 4.91913 33.6614 5.62533 31.2233 6.84515C23.9475 10.4853 18.9114 18.6994 24.5065 26.4366C24.7465 26.7566 24.7265 27.0766 24.5665 27.3266C24.6478 27.5299 24.5672 27.7803 24.3992 27.935C24.2779 28.0467 24.111 28.1085 23.9265 28.0666L23.9465 28.0466Z" fill="white"/>
<path d="M0.356501 38.1766C1.0965 28.0466 12.9365 24.0866 21.6465 26.1866L21.5365 27.6266C17.6724 27.2217 13.0956 27.8875 9.65844 29.9377C7.15362 31.4317 5.25402 33.6609 4.6765 36.7466C4.17876 39.4092 4.76318 41.1649 6.00604 42.2594C9.98192 45.7609 20.6958 42.4974 24.2765 40.5166C25.2787 39.9622 26.2253 40.1277 26.9086 40.6483C26.9497 40.6792 26.99 40.7115 27.0292 40.745C28.1708 41.7302 28.4632 43.7408 26.7865 44.8066C26.3565 45.0866 25.8765 45.3566 25.3665 45.6166C24.9565 46.2366 24.5665 46.9166 24.2265 47.5966L21.6265 47.1266C12.6965 49.9866 -0.493499 49.6666 0.356501 38.1666V38.1766Z" fill="white"/>
<path d="M86.0165 47.1566C90.5065 43.9166 91.3365 37.5466 85.9065 34.5466C81.7765 32.2666 76.9665 33.9266 73.2865 36.2066C71.1282 37.5402 69.1547 34.7403 70.3373 33.0001L70.3479 32.9841C70.514 32.7354 70.744 32.5079 71.0465 32.3166C71.101 32.2803 71.1638 32.2357 71.2273 32.2053C71.2523 31.5623 71.3765 30.9581 71.4995 30.359C71.6981 29.3922 71.894 28.4387 71.6665 27.3566C71.3365 25.7166 70.3865 24.1666 68.9565 23.2566C66.6365 21.7566 63.9365 22.2666 61.7565 23.6666L61.7484 23.6544C61.6834 23.6955 61.6169 23.7395 61.5527 23.7821C61.0652 24.1082 60.6032 24.4786 60.1865 24.8866C60.1165 25.4366 60.0365 26.0066 59.9265 26.5766C59.8022 27.1961 59.5212 27.6367 59.1551 27.921C57.7075 29.0907 54.8585 27.7372 55.2365 25.3166C56.8365 15.0966 49.8265 4.91662 38.9765 4.91662C36.3511 4.91913 33.6614 5.62533 31.2233 6.84515C30.637 7.14 30.0654 7.46452 29.5129 7.81608C23.2264 11.8158 19.4078 19.3148 24.5365 26.4166C24.7765 26.7366 24.7565 27.0566 24.5965 27.3066C24.6753 27.5189 24.5813 27.7826 24.3992 27.935C24.2779 28.0467 24.111 28.1085 23.9265 28.0666L23.9465 28.0466C23.1865 27.8566 22.3865 27.7166 21.5365 27.6266C17.6724 27.2217 13.0956 27.8875 9.65844 29.9377C7.15599 31.4344 5.25965 33.6675 4.6865 36.7566C4.19027 39.4111 4.77021 41.1642 6.00604 42.2594C9.98192 45.7609 20.6958 42.4974 24.2765 40.5166C25.2787 39.9622 26.2253 40.1277 26.9086 40.6483C26.9497 40.6792 26.99 40.7115 27.0292 40.745C28.1785 41.7252 28.4778 43.7416 26.7965 44.8166C26.3665 45.1066 25.8865 45.3666 25.3765 45.6266C24.9665 46.2566 24.5765 46.9266 24.2365 47.6066C22.2165 51.5066 21.3465 56.1266 24.6365 59.5866C28.1165 63.2266 34.2965 63.8266 38.7765 62.1066C41.7628 60.9528 44.0212 58.8778 45.5559 56.2374C46.0533 55.3793 46.4736 54.4617 46.8165 53.4966C46.9547 53.1066 47.0601 52.7464 47.1584 52.4105C47.4648 51.3632 47.7022 50.5517 48.6487 49.8084C48.7636 49.717 48.8891 49.6265 49.0265 49.5366C50.4565 48.5966 52.1965 49.5866 52.6965 51.0266C52.7465 51.1666 52.7865 51.2866 52.8365 51.4266C52.9565 51.7766 52.9465 52.1766 52.8665 52.5466C53.0365 52.7966 53.2165 53.0466 53.3965 53.2866C54.7165 54.9466 56.4765 56.2766 58.5865 56.6466C62.8765 57.4166 68.8065 52.8866 64.5965 48.6066C63.0665 47.0366 65.3365 44.9166 66.9565 46.2466C72.4565 50.7366 80.0965 51.4366 86.0165 47.1566Z" fill="white"/>
</svg>
