<svg width="92" height="53" viewBox="0 0 92 53" fill="none" xmlns="http://www.w3.org/2000/svg">
<path d="M9.18106 34.3325C6.35106 36.1025 1.55106 41.7425 7.71106 44.7725C11.4411 46.6125 17.2311 46.2625 21.3011 46.6825C30.5411 47.6525 39.8211 47.9924 49.0911 47.9524C58.3911 47.9024 68.9411 48.4824 78.0511 46.4524C84.0411 45.1124 89.2811 39.6624 84.0011 34.1024C80.9411 30.8924 76.0611 30.0824 71.5711 29.7224C71.5411 29.7524 71.5011 29.7925 71.4711 29.8325C70.5411 30.7325 69.2511 30.3524 68.6511 29.5124C68.5811 29.5024 68.5111 29.5025 68.4511 29.4925C67.7311 29.4425 67.5011 28.3325 68.2711 28.1825C68.3011 28.1725 68.3411 28.1724 68.3711 28.1624C68.373 28.1556 68.3749 28.1487 68.3768 28.1418C68.425 27.9679 68.4756 27.7852 68.5911 27.6024C70.4011 24.5024 70.2311 20.4124 65.8511 19.9224C63.0811 19.6024 60.9211 21.3124 59.1611 23.3124L57.7511 22.4625C60.3311 18.8225 64.2711 15.8724 68.8611 17.7624C72.6211 19.3024 74.4511 23.8324 73.0711 27.4224C77.9111 26.8524 82.8311 27.1025 86.8811 30.3625C90.7211 33.4425 92.6511 38.5724 90.6411 43.2524C87.9211 49.5724 80.9311 51.3825 74.6911 51.9524C65.8511 52.7524 56.8911 52.8724 48.0211 52.7824C39.0911 52.6824 30.1611 52.1224 21.3011 50.9724C16.0011 50.2824 5.85106 50.5624 2.42105 45.6224C-3.35895 37.2924 8.10106 29.0024 15.9611 31.0924L17.3211 30.3724C17.4411 30.6324 17.5911 30.9024 17.7411 31.1724C17.9311 31.5024 17.8511 31.7924 17.6611 31.9824C17.7411 32.3524 17.4811 32.8224 17.0511 32.7924C14.2211 32.5924 11.6711 32.7724 9.18106 34.3325Z" fill="white"/>
<path d="M34.121 4.35245C20.911 5.04245 11.0311 18.0624 17.3211 30.3724L15.9611 31.0924C7.10106 18.4024 18.251 3.05245 32.031 0.822455C38.541 -0.237545 45.561 1.31247 50.731 5.52247C56.021 9.83247 57.7611 15.9925 57.7511 22.4625L59.1611 23.3124C58.6311 23.9224 58.1311 24.5725 57.6511 25.2025V25.2925C57.4111 28.5025 52.3511 28.4925 52.6311 25.2925C53.1511 19.3925 52.8111 13.3925 48.1911 9.13245C44.4611 5.69245 39.1411 4.10246 34.1311 4.36246L34.121 4.35245Z" fill="white"/>
<path d="M9.18106 34.3325C6.35106 36.1025 1.55106 41.7425 7.71106 44.7725C11.4411 46.6125 17.2311 46.2625 21.3011 46.6825C30.5411 47.6525 39.8211 47.9924 49.0911 47.9524C58.3911 47.9024 68.9411 48.4824 78.0511 46.4524C84.0411 45.1124 89.2811 39.6624 84.0011 34.1024C80.9411 30.8924 76.0611 30.0824 71.5711 29.7224C71.5411 29.7524 71.5011 29.7925 71.4711 29.8325C70.5411 30.7325 69.2511 30.3524 68.6511 29.5124C68.5811 29.5024 68.5111 29.5025 68.4511 29.4925C67.7311 29.4425 67.5011 28.3325 68.2711 28.1825C68.3011 28.1725 68.3411 28.1724 68.3711 28.1624L68.3768 28.1418C68.425 27.9679 68.4756 27.7852 68.5911 27.6024C70.4011 24.5024 70.2311 20.4124 65.8511 19.9224C63.0811 19.6024 60.9211 21.3124 59.1611 23.3124C58.6311 23.9224 58.1311 24.5725 57.6511 25.2025V25.2925C57.4111 28.5025 52.3511 28.4925 52.6311 25.2925C53.1511 19.3925 52.8111 13.3925 48.1911 9.13245C44.4611 5.69245 39.1411 4.10246 34.1311 4.36246L34.121 4.35245C20.911 5.04245 11.0311 18.0624 17.3211 30.3724C17.4411 30.6324 17.5911 30.9024 17.7411 31.1724C17.9311 31.5024 17.8511 31.7924 17.6611 31.9824C17.7411 32.3524 17.4811 32.8224 17.0511 32.7924C14.2211 32.5924 11.6711 32.7724 9.18106 34.3325Z" fill="white"/>
</svg>
