<svg width="79" height="46" viewBox="0 0 79 46" fill="none" xmlns="http://www.w3.org/2000/svg">
<path d="M13.052 26.9032C9.28361 23.3065 8.16012 17.6578 9.86097 12.6645C11.9987 6.35261 18.2872 2.24093 24.5522 0.906775C31.4571 -0.567814 39.3918 0.766337 44.0418 6.46184C47.3811 10.5423 48.5514 15.8711 48.1925 21.0595L49.0507 21.9645C48.6606 22.3 48.2939 22.6979 47.9584 23.127C47.818 24.0477 47.6385 24.9683 47.3967 25.8656C46.7647 28.3232 43.0353 27.2777 43.6127 24.8279C46.398 12.9688 39.5244 2.38136 26.5262 4.01199C15.6345 5.37735 5.74928 17.6812 14.8387 27.387C14.9947 27.5586 14.9557 27.8005 14.8231 27.9487C14.7529 28.0423 14.6436 28.1281 14.5032 28.136C14.0585 28.175 13.606 28.2062 13.1456 28.2296L13.1445 28.214L13.052 26.911V26.9032Z" fill="white"/>
<path d="M0.872997 31.7093C3.1668 27.1685 8.43319 25.9904 13.052 26.8954L13.1456 28.214C13.1453 28.214 13.1449 28.214 13.1445 28.214C10.6092 28.3857 7.92574 28.5262 5.73368 29.829C3.68455 31.0398 2.48606 33.2709 2.63103 35.3723C2.71171 36.5417 3.20851 37.6711 4.20636 38.562C4.4193 38.7521 4.65506 38.9314 4.91446 39.0978C8.79989 41.5789 15.1586 41.3136 19.5745 41.6413C29.1633 42.3513 38.8144 42.3591 48.4109 41.8208C53.8802 41.5087 59.3728 41.0249 64.7796 40.1901C68.9147 39.5504 74.2045 38.5829 75.6011 34.0889C78.6033 24.4494 63.7883 20.0562 56.8908 25.3404C56.1344 25.9198 55.4733 26.6157 54.9412 27.4338L54.8086 27.9097C54.7228 28.214 54.5355 28.4168 54.3249 28.5339C54.3249 28.5417 54.3171 28.5495 54.3171 28.5573C54.044 29.1658 53.3106 28.924 53.1234 28.4168C52.8347 28.1828 52.6552 27.8161 52.7567 27.3479C53.1416 25.6269 54.3591 21.4302 51.534 21.0461C51.4391 21.0331 51.3396 21.0245 51.2353 21.0205C50.9072 21.0037 50.5835 21.0674 50.2671 21.1918C49.8461 21.3574 49.4382 21.6304 49.0507 21.9645L48.1925 21.0595C49.2457 19.9438 50.5487 19.2182 52.1013 19.6083C54.4965 20.2013 55.2767 22.4092 55.2923 24.6484C61.1751 18.6487 73.3697 20.9347 77.4658 28.3466C79.9624 32.864 78.7765 38.4893 74.3918 41.3136C68.9225 44.848 60.5899 44.7777 54.3405 45.3161C45.5944 46.0807 36.8015 46.2211 28.0476 45.6516C20.9633 45.1834 12.342 45.1912 5.70247 42.4059C1.31771 40.5802 -1.48322 36.3515 0.865195 31.7015L0.872997 31.7093Z" fill="white"/>
<path d="M77.4736 28.3544C73.3775 20.9425 61.1829 18.6565 55.3001 24.6562C55.2845 22.417 54.5043 20.2091 52.1091 19.6161C50.7047 19.265 49.5032 19.819 48.5046 20.7552C49.0039 20.9269 49.448 21.1242 49.8537 21.3817C49.989 21.3081 50.1272 21.2444 50.2671 21.1918C50.5869 21.0716 50.915 21.0096 51.2353 21.0205C51.3396 21.0245 51.4391 21.0331 51.534 21.0461C53.805 21.3542 53.4647 24.1147 53.0453 26.0918C53.1 26.2557 53.1546 26.4195 53.2014 26.5833C54.3874 26.0562 55.6503 25.6139 56.8908 25.3404C56.899 25.3386 56.9071 25.3368 56.9152 25.335C63.82 20.0686 78.6049 24.4612 75.6011 34.0889C74.2045 38.5829 68.9147 39.5504 64.7796 40.1901C59.3728 41.0249 53.8802 41.5087 48.4109 41.8208C38.8144 42.3591 29.1633 42.3513 19.5745 41.6413C15.1586 41.3136 8.79989 41.5789 4.91446 39.0978C4.65506 38.9314 4.4193 38.7521 4.20636 38.562C3.21349 37.6732 2.72761 36.5459 2.64406 35.3763C2.63972 35.3749 2.63537 35.3736 2.63103 35.3723C1.76927 35.1083 0.8999 34.8443 0.0459793 34.557C-0.219291 38.0212 2.23836 40.9625 5.70247 42.4059C12.342 45.1912 20.9633 45.1834 28.0476 45.6516C36.8015 46.2211 45.5944 46.0807 54.3405 45.3161C60.5899 44.7777 68.9225 44.848 74.3918 41.3136C78.7765 38.4893 79.9702 32.864 77.4658 28.3466L77.4736 28.3544Z" fill="white"/>
<path d="M49.0507 21.9645C48.6606 22.3 48.2939 22.6979 47.9584 23.127C47.818 24.0477 47.6385 24.9683 47.3967 25.8656C46.7647 28.3232 43.0353 27.2777 43.6127 24.8279C46.398 12.9688 39.5244 2.38136 26.5262 4.01199C15.6345 5.37735 5.74928 17.6812 14.8387 27.387C14.9947 27.5586 14.9557 27.8005 14.8231 27.9487C14.7529 28.0423 14.6436 28.1281 14.5032 28.136C14.0585 28.175 13.606 28.2062 13.1456 28.2296L13.1445 28.214C10.6092 28.3857 7.92574 28.5262 5.73368 29.829C3.68455 31.0398 2.48606 33.2709 2.63103 35.3723C2.63537 35.3736 2.63972 35.3749 2.64406 35.3763C2.72761 36.5459 3.21349 37.6732 4.20636 38.562C4.4193 38.7521 4.65506 38.9314 4.91446 39.0978C8.79989 41.5789 15.1586 41.3136 19.5745 41.6413C29.1633 42.3513 38.8144 42.3591 48.4109 41.8208C53.8802 41.5087 59.3728 41.0249 64.7796 40.1901C68.9147 39.5504 74.2045 38.5829 75.6011 34.0889C78.6049 24.4612 63.82 20.0686 56.9152 25.335C56.9071 25.3368 56.899 25.3386 56.8908 25.3404C56.1344 25.9198 55.4733 26.6157 54.9412 27.4338L54.8086 27.9097C54.7228 28.214 54.5355 28.4168 54.3249 28.5339C54.3249 28.5417 54.3171 28.5495 54.3171 28.5573C54.044 29.1658 53.3106 28.924 53.1234 28.4168C52.8347 28.1828 52.6552 27.8161 52.7567 27.3479C53.1416 25.6269 54.3591 21.4302 51.534 21.0461C51.4391 21.0331 51.3396 21.0245 51.2353 21.0205C50.915 21.0096 50.5869 21.0716 50.2671 21.1918C49.8461 21.3574 49.4382 21.6304 49.0507 21.9645Z" fill="white"/>
</svg>
