<svg width="62" height="39" viewBox="0 0 62 39" fill="none" xmlns="http://www.w3.org/2000/svg">
<path d="M34.1207 28.8617C38.8574 32.5142 45.0538 33.6036 50.3435 31.4867C52.4586 30.6402 54.4287 29.281 56.1026 27.3681C57.8491 25.3747 59.4631 22.6706 58.8367 19.9726C58.2526 17.4371 56.0182 15.8472 53.7478 14.8053C50.4028 13.2879 46.9217 13.2563 43.5262 14.1055C42.6362 14.3281 41.7521 14.6112 40.8779 14.9438C40.1793 15.2088 39.5891 14.8535 39.2759 14.3115C39.2337 14.2633 39.2096 14.2151 39.2036 14.1549C38.9025 13.4924 38.9928 12.6372 39.7517 12.2639C39.7543 12.2625 39.7569 12.2611 39.7595 12.2597C39.8593 12.2075 39.9592 12.1663 40.0648 12.1193C40.125 11.9146 40.1793 11.7098 40.2274 11.505L41.2151 11.6375C46.3583 9.67422 52.4228 10.1921 57.0962 13.1672C62.1491 16.3772 63.2873 21.6167 60.1737 26.6936C54.3199 36.2572 40.9622 37.7628 33.3016 30.1023L34.1174 28.8607L34.1207 28.8556V28.8617Z" fill="white"/>
<path d="M32.8491 1.13195C39.071 3.14497 42.6364 7.53023 41.2151 11.6375L40.2274 11.505C41.0826 7.75306 36.1073 3.56502 31.9699 2.5111C27.5313 1.36683 17.0875 4.9275 17.8343 9.95623C18.0029 11.1005 16.6177 12.305 15.6602 11.2209C13.7691 9.08899 11.3782 7.27625 8.34895 7.69782C5.77136 8.05917 0.549913 13.0397 4.98844 15.3644C5.08542 15.4145 5.16419 15.4749 5.22638 15.5424C5.73194 16.0913 5.14242 17.1105 4.33802 16.9121C4.19348 16.876 4.06701 16.8399 3.93452 16.7977C3.86225 16.9121 3.72373 17.0025 3.57317 16.9663C3.13956 16.87 2.24785 15.8883 2.33857 15.8883C-0.22698 13.5637 1.30272 8.553 3.95258 6.46924C7.78285 3.44598 12.7092 4.59025 15.9794 7.63759C17.8283 2.51853 26.8086 -1.07827 32.8431 1.12594L32.8491 1.13195Z" fill="white"/>
<path d="M3.08101 22.496C2.49081 23.9836 2.91238 25.0616 4.35174 25.7481C5.19488 26.2118 6.09824 26.4829 7.06183 26.5611C9.32626 26.796 11.9039 26.1456 13.7106 24.7303C14.5357 24.0859 16.3063 24.3569 16.1256 25.7301C15.7681 28.5411 16.0408 31.0042 17.4476 32.7872C18.2922 33.8576 19.5457 34.6829 21.3169 35.1913C23.8442 35.9147 26.7308 35.4272 28.7574 33.9716C30.5604 32.6765 31.6828 30.6151 31.266 27.9584C31.1154 26.9827 32.3922 26.6153 32.7535 27.5488C32.7896 27.6211 32.8077 27.6994 32.8258 27.7656C33.1906 28.1093 33.5694 28.4298 33.958 28.7393C34.012 28.7823 34.0662 28.8251 34.1206 28.8677L33.3015 30.1144C33.5244 35.4021 27.8573 38.9614 22.5455 38.3952C19.6065 38.0821 16.7218 36.8234 14.8247 34.5047C13.1806 32.4993 12.8795 30.2168 13.0541 27.8319C8.32654 29.2532 1.34655 29.6386 0.786462 23.6342C0.533634 20.8728 2.04056 18.6717 4.18774 17.3794C4.90179 16.9497 5.68665 16.6204 6.50115 16.4045C7.72967 16.0788 9.02562 16.0108 10.2477 16.2447L10.1754 17.1361C6.65833 16.8771 3.33997 18.6658 3.08703 22.5081L3.08101 22.496Z" fill="white"/>
<path d="M33.9821 28.7473C33.9741 28.7446 33.966 28.742 33.958 28.7393C33.0568 28.4403 32.1614 28.1119 31.272 27.7656C31.272 27.8259 31.2599 27.8861 31.272 27.9523C31.6923 30.6132 30.5659 32.6769 28.7574 33.9716C26.7305 35.4226 23.8467 35.9077 21.3229 35.1853C19.5584 34.6794 18.3177 33.8543 17.4746 32.7883C17.4656 32.788 17.4566 32.7876 17.4476 32.7872C16.1256 32.731 14.7978 32.5023 13.4938 32.0656H13.4878C13.7708 32.9088 14.1924 33.7218 14.8247 34.4987C16.7278 36.8173 19.6065 38.076 22.5515 38.3892C27.8633 38.9553 33.5304 35.4021 33.3076 30.1144L34.1266 28.8677C34.1235 28.8654 34.1204 28.8631 34.1174 28.8607C34.073 28.8262 34.0332 28.7871 33.9881 28.7533L33.9821 28.7473Z" fill="white"/>
<path d="M5.22638 15.5424C5.73194 16.0913 5.14242 17.1105 4.33802 16.9121C4.19348 16.876 4.06701 16.8399 3.93452 16.7977C3.86225 16.9121 3.72373 17.0025 3.57317 16.9663C3.65888 17.0328 3.9018 17.2086 4.18774 17.3794C4.90179 16.9497 5.68665 16.6204 6.50115 16.4045C6.20051 16.2466 5.62093 15.8341 5.22638 15.5424Z" fill="white"/>
<path d="M50.3435 31.4867C52.4586 30.6402 54.4287 29.281 56.1026 27.3681C57.843 25.3747 59.457 22.6706 58.8367 19.9726C58.2526 17.4371 56.0182 15.8472 53.7478 14.8053C50.4028 13.2879 46.9217 13.2563 43.5262 14.1055C42.6362 14.3281 41.7521 14.6112 40.8779 14.9438C40.1793 15.2088 39.5891 14.8535 39.2759 14.3115C39.2337 14.2633 39.2096 14.2151 39.2036 14.1549C38.9025 13.4924 38.9928 12.6372 39.7517 12.2639C39.7543 12.2625 39.7569 12.2611 39.7595 12.2597C39.8593 12.2075 39.9592 12.1663 40.0648 12.1193C40.125 11.9146 40.1793 11.7098 40.2274 11.505C41.0826 7.75306 36.1073 3.56502 31.9699 2.5111C27.5313 1.36683 17.0875 4.9275 17.8343 9.95623C18.0029 11.1005 16.6177 12.305 15.6602 11.2209C13.7691 9.08899 11.3782 7.27625 8.34895 7.69782C5.77136 8.05917 0.549913 13.0397 4.98844 15.3644C5.08542 15.4145 5.16419 15.4749 5.22638 15.5424C5.62093 15.8341 6.20051 16.2466 6.50115 16.4045C7.72967 16.0788 9.02562 16.0108 10.2477 16.2447L10.1754 17.1361C6.65833 16.8771 3.33997 18.6658 3.08703 22.5081L3.08101 22.496C2.49081 23.9836 2.91238 25.0616 4.35174 25.7481C5.19488 26.2118 6.09824 26.4829 7.06183 26.5611C9.32626 26.796 11.9039 26.1456 13.7106 24.7303C14.5357 24.0859 16.3063 24.3569 16.1256 25.7301C15.7681 28.5411 16.0408 31.0042 17.4476 32.7872C17.4566 32.7876 17.4656 32.788 17.4746 32.7883C18.3177 33.8543 19.5584 34.6794 21.3229 35.1853C23.8467 35.9077 26.7305 35.4226 28.7574 33.9716C30.5604 32.6765 31.6828 30.6151 31.266 27.9584C31.1154 26.9827 32.3922 26.6153 32.7535 27.5488C32.7896 27.6211 32.8077 27.6994 32.8258 27.7656C33.1906 28.1093 33.5694 28.4298 33.958 28.7393C33.966 28.742 33.9741 28.7446 33.9821 28.7473L33.9881 28.7533C34.0332 28.7871 34.073 28.8262 34.1174 28.8607L34.1207 28.8556V28.8617C38.8566 32.5093 45.0549 33.6008 50.3435 31.4867Z" fill="white"/>
</svg>
