<svg width="86" height="54" viewBox="0 0 86 54" fill="none" xmlns="http://www.w3.org/2000/svg">
<path d="M46.6806 40.0704C53.2653 45.1479 61.8793 46.6624 69.2326 43.7195C72.1729 42.5428 74.9117 40.6534 77.2385 37.9941C79.6664 35.223 81.9101 31.4639 81.0395 27.7133C80.2274 24.1886 77.1213 21.9784 73.9651 20.5301C69.3151 18.4206 64.4758 18.3768 59.7556 19.5572C58.5184 19.8666 57.2893 20.2601 56.074 20.7226C55.1029 21.091 54.2824 20.597 53.8471 19.8436C53.7885 19.7766 53.755 19.7096 53.7466 19.6259C53.328 18.7049 53.4536 17.5161 54.5085 16.9971C54.5121 16.9951 54.5158 16.9932 54.5194 16.9913C54.6581 16.9187 54.797 16.8614 54.9438 16.7961C55.0275 16.5115 55.1029 16.2268 55.1698 15.9422L56.5429 16.1264C63.6926 13.3971 72.1232 14.1171 78.6199 18.2529C85.6441 22.7152 87.2264 29.9988 82.898 37.0565C74.7604 50.3513 56.1912 52.4443 45.542 41.795L46.676 40.069L46.6806 40.062V40.0704Z" fill="white"/>
<path d="M44.9129 1.52211C53.5623 4.32049 58.5187 10.4166 56.5429 16.1264L55.1698 15.9422C56.3587 10.7264 49.4422 4.90442 43.6906 3.43931C37.5204 1.84862 23.002 6.79846 24.0401 13.7891C24.2745 15.3798 22.349 17.0542 21.0178 15.5472C18.389 12.5835 15.0653 10.0636 10.8542 10.6496C7.27093 11.1519 0.0123668 18.0756 6.18256 21.3072C6.23338 21.3335 6.2806 21.3618 6.32434 21.3919C7.34001 22.0906 6.48233 23.7558 5.27838 23.4588C5.07745 23.4086 4.90164 23.3584 4.71745 23.2998C4.61699 23.4588 4.42443 23.5844 4.21513 23.5342C3.61234 23.4002 2.37274 22.0356 2.49886 22.0356C-1.06763 18.804 1.05887 11.8384 4.74257 8.9417C10.0672 4.73894 16.9155 6.32963 21.4615 10.5659C24.0318 3.44965 36.5158 -1.55043 44.9046 1.51374L44.9129 1.52211Z" fill="white"/>
<path d="M3.53095 31.2212C2.71049 33.2891 3.29653 34.7877 5.29745 35.7421C6.46954 36.3868 7.72534 36.7635 9.06487 36.8724C12.2128 37.1989 15.796 36.2947 18.3076 34.3272C19.4546 33.4314 21.916 33.8082 21.6648 35.717C21.1678 39.6248 21.5469 43.0489 23.5026 45.5275C24.6768 47.0155 26.4192 48.1628 28.8815 48.8695C32.3947 49.8751 36.4072 49.1976 39.2245 47.1741C41.7311 45.3738 43.2915 42.5081 42.7121 38.8147C42.5028 37.4584 44.2777 36.9477 44.78 38.2454C44.8302 38.3458 44.8553 38.4547 44.8805 38.5468C45.3877 39.0246 45.9142 39.4701 46.4545 39.9003C46.5295 39.9601 46.6049 40.0196 46.6804 40.0788L45.5419 41.8119C45.8516 49.1625 37.9735 54.1104 30.5894 53.3235C26.5038 52.8881 22.4936 51.1383 19.8564 47.9151C17.5709 45.1272 17.1523 41.9542 17.3951 38.6388C10.823 40.6146 1.1198 41.1505 0.341204 32.8035C-0.0123629 28.9418 2.10969 25.8684 5.12305 24.0764C6.16657 23.4558 7.31699 22.9889 8.50849 22.6961C10.1496 22.2929 11.8686 22.22 13.4937 22.531L13.3932 23.7701C8.50394 23.4101 3.89095 25.8966 3.53932 31.238L3.53095 31.2212Z" fill="white"/>
<path d="M46.4879 39.9114C46.4767 39.9077 46.4656 39.904 46.4545 39.9003C45.2016 39.4847 43.9569 39.0281 42.7205 38.5468C42.7205 38.6305 42.7037 38.7142 42.7205 38.8063C43.3048 42.5055 41.7388 45.3743 39.2245 47.1741C36.4069 49.1911 32.3982 49.8654 28.8899 48.8611C26.4369 48.1579 24.7122 47.0109 23.5401 45.529C23.5276 45.5285 23.5151 45.528 23.5026 45.5275C21.6648 45.4494 19.819 45.1314 18.0062 44.5244H17.9978C18.3913 45.6965 18.9774 46.8267 19.8564 47.9067C22.502 51.1299 26.5038 52.8797 30.5978 53.3151C37.9819 54.102 45.86 49.1625 45.5502 41.8118L46.6888 40.0788C46.6845 40.0756 46.6802 40.0723 46.676 40.069C46.6143 40.0211 46.5589 39.9668 46.4963 39.9198L46.4879 39.9114Z" fill="white"/>
<path d="M69.2326 43.7195C72.1729 42.5428 74.9117 40.6534 77.2385 37.9941C79.6581 35.223 81.9018 31.4639 81.0395 27.7133C80.2274 24.1886 77.1213 21.9784 73.9651 20.5301C69.3151 18.4206 64.4758 18.3768 59.7556 19.5572C58.5184 19.8666 57.2893 20.2601 56.074 20.7226C55.1029 21.091 54.2824 20.597 53.8471 19.8436C53.7885 19.7766 53.755 19.7096 53.7466 19.6259C53.328 18.7049 53.4536 17.5161 54.5085 16.9971C54.5121 16.9951 54.5158 16.9932 54.5194 16.9913C54.6581 16.9187 54.797 16.8614 54.9438 16.7961C55.0275 16.5115 55.1029 16.2268 55.1698 15.9422C56.3587 10.7264 49.4422 4.90442 43.6906 3.43931C37.5204 1.84862 23.002 6.79846 24.0401 13.7891C24.2745 15.3798 22.349 17.0542 21.0178 15.5472C18.389 12.5835 15.0653 10.0636 10.8542 10.6496C7.27093 11.1519 0.0123668 18.0756 6.18256 21.3072C6.23338 21.3335 6.2806 21.3618 6.32434 21.3919L8.50849 22.6961C10.1496 22.2929 11.8686 22.22 13.4937 22.531L13.3932 23.7701C8.50394 23.4101 3.89095 25.8966 3.53932 31.238L3.53095 31.2212C2.71049 33.2891 3.29653 34.7877 5.29745 35.7421C6.46954 36.3868 7.72534 36.7635 9.06487 36.8724C12.2128 37.1989 15.796 36.2947 18.3076 34.3272C19.4546 33.4314 21.916 33.8082 21.6648 35.717C21.1678 39.6248 21.5469 43.0489 23.5026 45.5275C23.5151 45.528 23.5276 45.5285 23.5401 45.529C24.7122 47.0109 26.4369 48.1579 28.8899 48.8611C32.3982 49.8654 36.4069 49.1911 39.2245 47.1741C41.7311 45.3738 43.2915 42.5081 42.7121 38.8147C42.5028 37.4584 44.2777 36.9477 44.78 38.2454C44.8302 38.3458 44.8553 38.4547 44.8805 38.5468C45.3877 39.0246 45.9142 39.4701 46.4545 39.9003C46.4656 39.904 46.4767 39.9077 46.4879 39.9114L46.4963 39.9198C46.5589 39.9668 46.6143 40.0211 46.676 40.069L46.6806 40.062V40.0704C53.2642 45.1411 61.8807 46.6585 69.2326 43.7195Z" fill="white"/>
<path d="M5.27838 23.4588C5.07745 23.4086 4.90164 23.3584 4.71745 23.2998C4.61699 23.4588 4.42443 23.5844 4.21513 23.5342L5.12305 24.0764C6.16657 23.4558 7.31699 22.9889 8.50849 22.6961L6.32434 21.3919C7.34001 22.0906 6.48233 23.7558 5.27838 23.4588Z" fill="white"/>
</svg>
