<svg width="821" height="830" viewBox="0 0 821 830" fill="none" xmlns="http://www.w3.org/2000/svg">
<path d="M406.12 716.64C572.428 716.64 707.744 581.34 707.744 415.016C707.744 248.692 572.428 113.407 406.12 113.407C239.812 113.407 104.496 248.707 104.496 415.031C104.496 581.355 239.796 716.656 406.12 716.656V716.64ZM406.12 120.711C568.402 120.711 700.425 252.734 700.425 415.016C700.425 577.298 568.402 709.321 406.12 709.321C243.838 709.321 111.815 577.298 111.815 415.016C111.815 252.734 243.838 120.711 406.12 120.711Z" fill="#F1C0C5"/>
<path d="M406.12 757.776C595.119 757.776 748.865 604.014 748.865 415.031C748.865 226.048 595.104 72.2705 406.12 72.2705C217.137 72.2705 63.3757 226.032 63.3757 415.015C63.3757 603.999 217.137 757.76 406.12 757.76V757.776ZM406.12 99.6895C579.998 99.6895 721.446 241.154 721.446 415.015C721.446 588.877 579.998 730.341 406.12 730.341C232.243 730.341 90.7947 588.892 90.7947 415.015C90.7947 241.138 232.243 99.6895 406.12 99.6895Z" fill="#F1C0C5"/>
<path d="M406.12 820.293C629.576 820.293 811.381 638.488 811.381 415.017C811.381 191.545 629.576 9.75586 406.12 9.75586C182.664 9.75586 0.859558 191.561 0.859558 415.017C0.859558 638.472 182.664 820.277 406.12 820.277V820.293ZM406.12 12.3152C628.172 12.3152 808.822 192.965 808.822 415.017C808.822 637.068 628.172 817.733 406.105 817.733C184.038 817.733 3.38763 637.084 3.38763 415.017C3.38763 192.949 184.053 12.3152 406.12 12.3152Z" fill="#F1C0C5"/>
<path d="M406.121 703.204C565.032 703.204 694.309 573.927 694.309 415.016C694.309 256.105 565.017 126.844 406.121 126.844C247.225 126.844 117.933 256.12 117.933 415.032C117.933 573.943 247.209 703.219 406.121 703.219V703.204ZM406.121 129.387C563.612 129.387 691.749 257.525 691.749 415.016C691.749 572.507 563.612 700.644 406.121 700.644C248.63 700.644 120.492 572.507 120.492 415.016C120.492 257.525 248.63 129.387 406.121 129.387Z" fill="#F1C0C5"/>
<path d="M165.058 442.264C150.032 309.149 245.763 189.057 378.878 174.032C511.993 159.006 632.085 254.737 647.111 387.852C662.136 520.968 566.405 641.059 433.29 656.085C300.175 671.11 180.083 575.379 165.058 442.264Z" fill="#F1C0C5"/>
<path d="M624.442 415.983C624.442 295.399 526.689 197.661 406.121 197.661C285.552 197.661 187.783 295.399 187.783 415.983C187.783 536.567 285.537 634.305 406.121 634.305C526.705 634.305 624.442 536.551 624.442 415.983Z" fill="#FFDEE1"/>
<path d="M237.006 421.265C233.565 327.867 306.489 249.364 399.887 245.923C493.285 242.482 571.788 315.406 575.229 408.804C578.67 502.202 505.746 580.706 412.348 584.147C318.95 587.588 240.447 514.663 237.006 421.265Z" fill="#F1C0C5"/>
<path d="M558.431 415.687C558.431 331.558 490.234 263.361 406.105 263.361C321.975 263.361 253.779 331.558 253.779 415.687C253.779 499.817 321.975 568.013 406.105 568.013C490.234 568.013 558.431 499.817 558.431 415.687Z" fill="#FFE3E7"/>
<path d="M395.492 11.0346C395.492 16.9023 400.252 21.662 406.12 21.662C411.987 21.662 416.747 16.9023 416.747 11.0346C416.747 5.16692 411.987 0.407227 406.12 0.407227C400.252 0.407227 395.492 5.16692 395.492 11.0346Z" fill="#F1C0C5"/>
<path d="M395.492 819.012C395.492 824.88 400.252 829.64 406.12 829.64C411.987 829.64 416.747 824.88 416.747 819.012C416.747 813.144 411.987 808.385 406.12 808.385C400.252 808.385 395.492 813.144 395.492 819.012Z" fill="#F1C0C5"/>
<path d="M810.101 425.658C815.969 425.658 820.729 420.898 820.729 415.031C820.729 409.163 815.969 404.403 810.101 404.403C804.233 404.403 799.474 409.163 799.474 415.031C799.474 420.898 804.233 425.658 810.101 425.658Z" fill="#F1C0C5"/>
<path d="M112.939 136.878C117.09 141.029 123.816 141.029 127.967 136.878C132.118 132.727 132.118 126.001 127.967 121.85C123.816 117.699 117.09 117.699 112.939 121.85C108.788 126.001 108.788 132.727 112.939 136.878Z" fill="#F1C0C5"/>
<path d="M684.258 708.197C688.409 712.348 695.135 712.348 699.286 708.197C703.437 704.046 703.437 697.32 699.286 693.169C695.135 689.018 688.409 689.018 684.258 693.169C680.107 697.32 680.107 704.046 684.258 708.197Z" fill="#F1C0C5"/>
<path d="M127.967 708.197C132.118 704.046 132.118 697.32 127.967 693.169C123.816 689.018 117.09 689.018 112.939 693.169C108.788 697.32 108.788 704.046 112.939 708.197C117.09 712.348 123.816 712.348 127.967 708.197Z" fill="#F1C0C5"/>
<path d="M699.286 136.878C703.437 132.727 703.437 126.001 699.286 121.85C695.135 117.699 688.409 117.699 684.258 121.85C680.107 126.001 680.107 132.727 684.258 136.878C688.409 141.029 695.135 141.029 699.286 136.878Z" fill="#F1C0C5"/>
</svg>
