<svg width="1238" height="1214" viewBox="0 0 1238 1214" fill="none" xmlns="http://www.w3.org/2000/svg">
<g opacity="0.3" clip-path="url(#clip0_1853_1758)">
<path d="M198.496 455.86H212.799L234.346 478.227H220.065L198.496 455.86Z" fill="#DEADB2"/>
<path d="M171.581 455.86H185.861L207.431 478.227H193.127L171.581 455.86Z" fill="#DEADB2"/>
<path d="M144.642 455.86H158.945L180.491 478.227H166.211L144.642 455.86Z" fill="#DEADB2"/>
<path d="M117.725 455.86H132.006L153.575 478.227H139.295L117.725 455.86Z" fill="#DEADB2"/>
<path d="M90.8099 455.86H105.09L126.637 478.227H112.356L90.8099 455.86Z" fill="#DEADB2"/>
<path d="M63.8709 455.86H78.1513L99.7207 478.227H85.4402L63.8709 455.86Z" fill="#DEADB2"/>
<path d="M36.9555 455.86H51.236L72.7822 478.227H58.5018L36.9555 455.86Z" fill="#DEADB2"/>
<path d="M10.0166 455.86H24.2971L45.8662 478.227H31.5857L10.0166 455.86Z" fill="#DEADB2"/>
<path d="M966.161 755.612L1102.11 891.549H1292.42C1293.06 891.549 1293.56 892.052 1293.56 892.692C1293.56 893.331 1293.06 893.834 1292.42 893.834H1101.15L965.201 757.897H843.016V755.612H966.161Z" fill="#C98989"/>
<path d="M56.666 629.453C56.0262 629.453 55.5236 628.95 55.5236 628.311C55.5236 627.671 56.0262 627.168 56.666 627.168H56.689H292.819V629.453H56.666Z" fill="#C98989"/>
<g opacity="0.5">
<path d="M815.839 704.863H1032.08L1169.99 840.006H1565.48C1566.74 840.006 1567.77 841.014 1567.77 842.245C1567.77 843.477 1566.74 844.484 1565.48 844.484H1168.12L1030.21 709.341H813.965L815.839 704.863Z" fill="#C98989"/>
<path d="M56.7118 384.245H488.645L486.771 386.431H56.7118C55.4551 386.431 54.4269 387.716 54.4269 386.484C54.4269 385.253 55.4551 384.245 56.7118 384.245Z" fill="#C98989"/>
</g>
<path d="M424.851 318.145H592.538L870.493 596.074H1220.51L1303.2 678.755H1645.45C1646.09 678.755 1646.6 679.258 1646.6 679.898C1646.6 680.537 1646.09 681.04 1645.45 681.04H1302.24L1219.55 598.358H869.533L591.578 320.429H425.788L252.16 494.041H56.6888C56.0491 494.041 55.5465 493.538 55.5465 492.898C55.5465 492.259 56.0491 491.756 56.6888 491.756H251.223L424.851 318.145Z" fill="#DEADB2"/>
<path d="M1348.29 975.692L1470.43 975.692C1471.19 975.692 1471.8 976.72 1471.8 977.977C1471.8 979.233 1471.19 980.261 1470.43 980.261L1349.42 980.262L1288.24 1082.32H940.282L894.166 1159.24C893.632 1160.13 892.769 1160.13 892.235 1159.24C891.7 1158.35 891.7 1156.91 892.235 1156.02L939.145 1079.77H1287.1L1348.29 975.715V975.692Z" fill="#DEADB2"/>
<path opacity="0.5" d="M1844.99 532.08C1845.59 532.08 1846.16 532.308 1846.61 532.742C1847.51 533.633 1847.51 535.073 1846.61 535.964L1723.03 659.541H1332.81L1225.24 551.979H1030.46C1029.2 551.979 1028.17 550.951 1028.17 549.695C1028.17 548.438 1029.2 547.41 1030.46 547.41H1227.14L1334.71 654.972H1721.13L1843.39 532.719C1843.85 532.263 1844.42 532.057 1845.01 532.057L1844.99 532.08Z" fill="#DEADB2"/>
<path d="M425.334 303.125C434.268 303.125 441.511 310.39 441.511 319.3C441.511 328.21 434.245 335.476 425.334 335.476C416.423 335.476 409.157 328.21 409.157 319.3C409.157 310.39 416.423 303.125 425.334 303.125ZM425.334 333.214C432.988 333.214 439.226 326.977 439.226 319.323C439.226 311.669 432.988 305.432 425.334 305.432C417.679 305.432 411.442 311.669 411.442 319.323C411.442 326.977 417.679 333.214 425.334 333.214Z" fill="#F1C0C5"/>
<path d="M425.333 308.767C419.516 308.767 414.8 313.483 414.8 319.3C414.8 325.117 419.516 329.832 425.333 329.832C431.15 329.832 435.866 325.117 435.866 319.3C435.866 313.483 431.15 308.767 425.333 308.767Z" fill="#F1C0C5"/>
<path d="M553.196 612.145C562.13 612.145 569.373 619.411 569.373 628.321C569.373 637.231 562.107 644.496 553.196 644.496C544.285 644.496 537.019 637.231 537.019 628.321C537.019 619.411 544.285 612.145 553.196 612.145ZM553.196 642.234C560.851 642.234 567.088 635.997 567.088 628.344C567.088 620.69 560.851 614.453 553.196 614.453C545.542 614.453 539.304 620.69 539.304 628.344C539.304 635.997 545.542 642.234 553.196 642.234Z" fill="#F1C0C5"/>
<path d="M553.195 617.788C547.378 617.788 542.662 622.503 542.662 628.32C542.662 634.137 547.378 638.853 553.195 638.853C559.013 638.853 563.729 634.137 563.729 628.32C563.729 622.503 559.013 617.788 553.195 617.788Z" fill="#F1C0C5"/>
<path opacity="0.5" d="M198.641 837.219H528.468C529.725 837.219 530.753 838.247 530.753 839.503C530.753 840.76 529.725 841.788 528.468 841.788H200.537L65.6612 976.651H-4.50726C-5.76392 976.651 -6.79211 975.623 -6.79211 974.367C-6.79211 973.11 -5.76392 972.082 -4.50726 972.082H63.7648L198.641 837.219Z" fill="#DEADB2"/>
<path d="M544.394 821.617C553.328 821.617 560.571 828.882 560.571 837.792C560.571 846.703 553.305 853.968 544.394 853.968C535.483 853.968 528.218 846.703 528.218 837.792C528.218 828.882 535.483 821.617 544.394 821.617ZM544.394 851.706C552.049 851.706 558.286 845.469 558.286 837.815C558.286 830.162 552.049 823.925 544.394 823.925C536.74 823.925 530.502 830.162 530.502 837.815C530.502 845.469 536.74 851.706 544.394 851.706Z" fill="#EBACAC"/>
<path d="M544.394 827.282C538.577 827.282 533.861 831.998 533.861 837.814C533.861 843.631 538.577 848.347 544.394 848.347C550.212 848.347 554.928 843.631 554.928 837.814C554.928 831.998 550.212 827.282 544.394 827.282Z" fill="#EBACAC"/>
<path d="M1014.08 533.232C1023.01 533.232 1030.26 540.497 1030.26 549.408C1030.26 558.318 1022.99 565.583 1014.08 565.583C1005.17 565.583 997.902 558.318 997.902 549.408C997.902 540.497 1005.17 533.232 1014.08 533.232ZM1014.08 563.321C1021.73 563.321 1027.97 557.084 1027.97 549.43C1027.97 541.777 1021.73 535.54 1014.08 535.54C1006.42 535.54 1000.19 541.777 1000.19 549.43C1000.19 557.084 1006.42 563.321 1014.08 563.321Z" fill="#DEADB2"/>
<path d="M1014.08 538.875C1008.26 538.875 1003.55 543.59 1003.55 549.407C1003.55 555.224 1008.26 559.939 1014.08 559.939C1019.9 559.939 1024.61 555.224 1024.61 549.407C1024.61 543.59 1019.9 538.875 1014.08 538.875Z" fill="#DEADB2"/>
<path d="M1164.1 879.943C1157.06 879.943 1151.35 885.65 1151.35 892.691C1151.35 899.732 1157.06 905.439 1164.1 905.439C1171.14 905.439 1176.85 899.732 1176.85 892.691C1176.85 885.65 1171.14 879.943 1164.1 879.943Z" fill="#F1C0C5"/>
<path d="M-5.80324 956.692C-6.12266 963.725 -0.67932 969.686 6.35484 970.005C13.389 970.325 19.3503 964.882 19.6697 957.848C19.9891 950.815 14.5457 944.854 7.51156 944.535C0.477397 944.216 -5.48382 949.658 -5.80324 956.692Z" fill="#F1C0C5"/>
<path d="M351.51 385.369C351.51 380.754 355.257 377.007 359.873 377.007C364.488 377.007 368.235 380.754 368.235 385.369C368.235 389.984 364.488 393.73 359.873 393.73C355.257 393.73 351.51 389.984 351.51 385.369Z" fill="#F1C0C5"/>
<path d="M714.806 450.208C714.806 445.593 718.553 441.847 723.169 441.847C727.784 441.847 731.531 445.593 731.531 450.208C731.531 454.823 727.784 458.57 723.169 458.57C718.553 458.57 714.806 454.823 714.806 450.208Z" fill="#F1C0C5"/>
<path d="M996.553 590.119C992.691 590.119 989.56 593.249 989.56 597.111C989.56 600.973 992.691 604.104 996.553 604.104C1000.41 604.104 1003.55 600.973 1003.55 597.111C1003.55 593.249 1000.41 590.119 996.553 590.119Z" fill="#DEADB2"/>
<path d="M1060.53 749.431C1060.53 745.113 1064.03 741.617 1068.34 741.617C1072.66 741.617 1076.16 745.113 1076.16 749.431C1076.16 753.749 1072.66 757.244 1068.34 757.244C1064.03 757.244 1060.53 753.749 1060.53 749.431Z" fill="#F1C0C5"/>
<path d="M1013.26 786.921C1022.81 786.921 1030.58 794.689 1030.58 804.239C1030.58 813.789 1022.81 821.557 1013.26 821.557C1003.71 821.557 995.936 813.789 995.936 804.239C995.936 794.689 1003.71 786.921 1013.26 786.921ZM1013.26 819.295C1021.55 819.295 1028.29 812.555 1028.29 804.262C1028.29 795.968 1021.55 789.229 1013.26 789.229C1004.96 789.229 998.221 795.968 998.221 804.262C998.221 812.555 1004.96 819.295 1013.26 819.295Z" fill="#F1C0C5"/>
<path d="M1002.06 804.262C1002.06 798.094 1007.06 793.067 1013.26 793.067C1019.45 793.067 1024.45 798.071 1024.45 804.262C1024.45 810.454 1019.45 815.457 1013.26 815.457C1007.06 815.457 1002.06 810.454 1002.06 804.262Z" fill="#F1C0C5"/>
<path d="M1206.16 845.444C1203.43 845.444 1201.21 847.664 1201.21 850.402C1201.21 853.14 1203.43 855.359 1206.16 855.359C1208.9 855.359 1211.12 853.14 1211.12 850.402C1211.12 847.664 1208.9 845.444 1206.16 845.444Z" fill="#F1C0C5"/>
<path d="M1101.86 883.951C1097.03 883.951 1093.11 887.868 1093.11 892.701C1093.11 897.534 1097.03 901.451 1101.86 901.451C1106.7 901.451 1110.62 897.534 1110.62 892.701C1110.62 887.868 1106.7 883.951 1101.86 883.951Z" fill="#F1C0C5"/>
<path d="M605.058 984.259H1322.51C1323.15 984.259 1323.65 984.762 1323.65 985.402C1323.65 986.041 1323.15 986.544 1322.51 986.544H605.058C604.418 986.544 603.915 986.041 603.915 985.402C603.915 984.762 604.418 984.259 605.058 984.259Z" fill="#F1C0C5"/>
<path d="M605.057 976.652C600.224 976.652 596.307 980.569 596.307 985.402C596.307 990.235 600.224 994.152 605.057 994.152C609.891 994.152 613.809 990.235 613.809 985.402C613.809 980.569 609.891 976.652 605.057 976.652Z" fill="#F1C0C5"/>
<path d="M990.631 678.162H1004.91L1026.46 700.506H1012.18L990.631 678.162Z" fill="#F1C0C5"/>
<path d="M963.693 678.162H977.974L999.543 700.506H985.262L963.693 678.162Z" fill="#F1C0C5"/>
<path d="M936.778 678.162H951.058L972.604 700.506H958.324L936.778 678.162Z" fill="#F1C0C5"/>
<path d="M909.838 678.162H924.118L945.688 700.506H931.407L909.838 678.162Z" fill="#F1C0C5"/>
<path d="M882.923 678.162H897.203L918.772 700.506H904.469L882.923 678.162Z" fill="#F1C0C5"/>
<path d="M855.984 678.162H870.288L891.834 700.506H877.554L855.984 678.162Z" fill="#F1C0C5"/>
<path d="M829.067 678.162H843.348L864.917 700.506H850.614L829.067 678.162Z" fill="#F1C0C5"/>
<path d="M802.129 678.162H816.432L837.979 700.506H823.698L802.129 678.162Z" fill="#F1C0C5"/>
<path d="M1202.19 472.36H1228.69L1268.68 513.826H1242.17L1202.19 472.36Z" fill="#F1C0C5"/>
<path d="M1152.26 472.36H1178.75L1218.73 513.826H1192.25L1152.26 472.36Z" fill="#F1C0C5"/>
<path d="M1102.32 472.36H1128.82L1168.81 513.826H1142.3L1102.32 472.36Z" fill="#F1C0C5"/>
<path d="M1052.39 472.36H1078.87L1118.86 513.826H1092.38L1052.39 472.36Z" fill="#F1C0C5"/>
<path d="M1002.44 472.36H1028.95L1068.93 513.826H1042.43L1002.44 472.36Z" fill="#F1C0C5"/>
<path d="M952.497 472.36H979.002L1018.99 513.826H992.506L952.497 472.36Z" fill="#F1C0C5"/>
<path d="M902.572 472.36H929.077L969.039 513.826H942.557L902.572 472.36Z" fill="#F1C0C5"/>
<path d="M703.514 926.526H690.079L671.252 944.118L692.318 963.835H705.776L684.687 944.118L703.514 926.526Z" fill="#F1C0C5"/>
<path d="M682.516 926.526H669.081L650.254 944.118L671.32 963.835H684.778L663.712 944.118L682.516 926.526Z" fill="#F1C0C5"/>
<path d="M661.541 926.526H648.083L629.256 944.118L650.345 963.835H663.78L642.714 944.118L661.541 926.526Z" fill="#F1C0C5"/>
<path d="M640.544 926.526H627.086L608.282 944.118L629.348 963.835H642.783L621.717 944.118L640.544 926.526Z" fill="#F1C0C5"/>
<path d="M619.546 926.526H606.111L587.283 944.118L608.35 963.835H621.808L600.718 944.118L619.546 926.526Z" fill="#F1C0C5"/>
<path d="M598.548 926.526H585.112L566.285 944.118L587.352 963.835H600.81L579.743 944.118L598.548 926.526Z" fill="#F1C0C5"/>
<path d="M577.572 926.526H564.114L545.287 944.118L566.376 963.835H579.812L558.745 944.118L577.572 926.526Z" fill="#F1C0C5"/>
<path d="M556.574 926.526H543.116L524.312 944.118L545.378 963.835H558.813L537.747 944.118L556.574 926.526Z" fill="#F1C0C5"/>
<path d="M535.576 926.526H522.141L503.313 944.118L524.38 963.835H537.838L516.749 944.118L535.576 926.526Z" fill="#F1C0C5"/>
<path d="M514.578 926.526H501.143L482.315 944.118L503.382 963.835H516.84L495.773 944.118L514.578 926.526Z" fill="#F1C0C5"/>
<path d="M493.604 926.526H480.146L461.318 944.118L482.408 963.835H495.843L474.776 944.118L493.604 926.526Z" fill="#F1C0C5"/>
</g>
<defs>
<clipPath id="clip0_1853_1758">
<rect width="1238" height="1214" fill="white" transform="translate(1238 1214) rotate(-180)"/>
</clipPath>
</defs>
</svg>
