<svg width="286" height="29" viewBox="0 0 286 29" fill="none" xmlns="http://www.w3.org/2000/svg">
<path d="M239.628 28.932H257.73L285.024 0.60791H266.938L239.628 28.932Z" fill="#F1C0C5"/>
<path d="M205.514 28.932H223.616L250.926 0.60791H232.823L205.514 28.932Z" fill="#F1C0C5"/>
<path d="M171.416 28.932H189.503L216.812 0.60791H198.726L171.416 28.932Z" fill="#F1C0C5"/>
<path d="M137.303 28.932H155.405L182.715 0.60791H164.612L137.303 28.932Z" fill="#F1C0C5"/>
<path d="M103.204 28.932H121.291L148.601 0.60791H130.514L103.204 28.932Z" fill="#F1C0C5"/>
<path d="M69.0908 28.932H87.1932L114.503 0.60791H96.4005L69.0908 28.932Z" fill="#F1C0C5"/>
<path d="M34.9765 28.932H53.079L80.3887 0.60791H62.3018L34.9765 28.932Z" fill="#F1C0C5"/>
<path d="M0.877911 28.932H18.9803L46.2744 0.60791H28.1876L0.877911 28.932Z" fill="#F1C0C5"/>
</svg>
