<svg width="2042" height="867" viewBox="0 0 2042 867" fill="none" xmlns="http://www.w3.org/2000/svg">
<g opacity="0.3">
<path d="M1276.12 729.64C1442.43 729.64 1577.74 594.34 1577.74 428.016C1577.74 261.692 1442.43 126.407 1276.12 126.407C1109.81 126.407 974.496 261.707 974.496 428.031C974.496 594.355 1109.8 729.655 1276.12 729.655V729.64ZM1276.12 133.711C1438.4 133.711 1570.43 265.734 1570.43 428.016C1570.43 590.298 1438.4 722.321 1276.12 722.321C1113.84 722.321 981.815 590.298 981.815 428.016C981.815 265.734 1113.84 133.711 1276.12 133.711V133.711Z" fill="#F1C0C5"/>
<path d="M1276.12 770.776C1465.12 770.776 1618.87 617.014 1618.87 428.031C1618.87 239.048 1465.1 85.2705 1276.12 85.2705C1087.14 85.2705 933.376 239.032 933.376 428.015C933.376 616.999 1087.14 770.76 1276.12 770.76V770.776ZM1276.12 112.689C1450 112.689 1591.45 254.154 1591.45 428.015C1591.45 601.877 1450 743.341 1276.12 743.341C1102.24 743.341 960.795 601.892 960.795 428.015C960.795 254.138 1102.24 112.689 1276.12 112.689V112.689Z" fill="#F1C0C5"/>
<path d="M1276.12 833.293C1499.58 833.293 1681.38 651.488 1681.38 428.017C1681.38 204.545 1499.58 22.7559 1276.12 22.7559C1052.66 22.7559 870.86 204.561 870.86 428.017C870.86 651.472 1052.66 833.277 1276.12 833.277V833.293ZM1276.12 25.3152C1498.17 25.3152 1678.82 205.965 1678.82 428.017C1678.82 650.068 1498.17 830.733 1276.1 830.733C1054.04 830.733 873.388 650.084 873.388 428.017C873.388 205.949 1054.05 25.3152 1276.12 25.3152V25.3152Z" fill="#F1C0C5"/>
<path d="M1276.12 716.204C1435.03 716.204 1564.31 586.927 1564.31 428.016C1564.31 269.105 1435.02 139.844 1276.12 139.844C1117.23 139.844 987.933 269.12 987.933 428.032C987.933 586.943 1117.21 716.219 1276.12 716.219V716.204ZM1276.12 142.387C1433.61 142.387 1561.75 270.525 1561.75 428.016C1561.75 585.507 1433.61 713.644 1276.12 713.644C1118.63 713.644 990.492 585.507 990.492 428.016C990.492 270.525 1118.63 142.387 1276.12 142.387V142.387Z" fill="#F1C0C5"/>
<path d="M1035.06 455.264C1020.03 322.149 1115.76 202.057 1248.88 187.032C1381.99 172.006 1502.09 267.737 1517.11 400.852C1532.14 533.968 1436.41 654.059 1303.29 669.085C1170.17 684.11 1050.08 588.379 1035.06 455.264Z" fill="#F1C0C5"/>
<path d="M1494.44 428.983C1494.44 308.399 1396.69 210.661 1276.12 210.661C1155.55 210.661 1057.78 308.399 1057.78 428.983C1057.78 549.567 1155.54 647.305 1276.12 647.305C1396.7 647.305 1494.44 549.551 1494.44 428.983V428.983Z" fill="#FFDEE1"/>
<path d="M1107.01 434.265C1103.56 340.867 1176.49 262.364 1269.89 258.923C1363.28 255.482 1441.79 328.406 1445.23 421.804C1448.67 515.202 1375.75 593.706 1282.35 597.147C1188.95 600.588 1110.45 527.663 1107.01 434.265Z" fill="#F1C0C5"/>
<path d="M1428.43 428.687C1428.43 344.558 1360.23 276.361 1276.1 276.361C1191.98 276.361 1123.78 344.558 1123.78 428.687C1123.78 512.817 1191.98 581.013 1276.1 581.013C1360.23 581.013 1428.43 512.817 1428.43 428.687V428.687Z" fill="#FFE3E7"/>
<path d="M1265.49 24.0346C1265.49 29.9023 1270.25 34.662 1276.12 34.662C1281.99 34.662 1286.75 29.9023 1286.75 24.0346C1286.75 18.1669 1281.99 13.4072 1276.12 13.4072C1270.25 13.4072 1265.49 18.1669 1265.49 24.0346Z" fill="#F1C0C5"/>
<path d="M1265.49 832.012C1265.49 837.88 1270.25 842.64 1276.12 842.64C1281.99 842.64 1286.75 837.88 1286.75 832.012C1286.75 826.144 1281.99 821.385 1276.12 821.385C1270.25 821.385 1265.49 826.144 1265.49 832.012Z" fill="#F1C0C5"/>
<path d="M1680.1 438.658C1685.97 438.658 1690.73 433.898 1690.73 428.031C1690.73 422.163 1685.97 417.403 1680.1 417.403C1674.23 417.403 1669.47 422.163 1669.47 428.031C1669.47 433.898 1674.23 438.658 1680.1 438.658Z" fill="#F1C0C5"/>
<path d="M982.939 149.878C987.09 154.029 993.816 154.029 997.967 149.878C1002.12 145.727 1002.12 139.001 997.967 134.85C993.816 130.699 987.09 130.699 982.939 134.85C978.788 139.001 978.788 145.727 982.939 149.878Z" fill="#F1C0C5"/>
<path d="M1554.26 721.197C1558.41 725.348 1565.14 725.348 1569.29 721.197C1573.44 717.046 1573.44 710.32 1569.29 706.169C1565.14 702.018 1558.41 702.018 1554.26 706.169C1550.11 710.32 1550.11 717.046 1554.26 721.197Z" fill="#F1C0C5"/>
<path d="M997.967 721.197C1002.12 717.046 1002.12 710.32 997.967 706.169C993.816 702.018 987.09 702.018 982.939 706.169C978.788 710.32 978.788 717.046 982.939 721.197C987.09 725.348 993.816 725.348 997.967 721.197Z" fill="#F1C0C5"/>
<path d="M1569.29 149.878C1573.44 145.727 1573.44 139.001 1569.29 134.85C1565.14 130.699 1558.41 130.699 1554.26 134.85C1550.11 139.001 1550.11 145.727 1554.26 149.878C1558.41 154.029 1565.14 154.029 1569.29 149.878Z" fill="#F1C0C5"/>
<path d="M1273 41.2158H1279.24V67.5736H1273V41.2158Z" fill="#F1C0C5"/>
<path d="M1273 788.473H1279.24V814.83H1273V788.473Z" fill="#F1C0C5"/>
<path d="M1286.5 41.3534L1292.74 41.5713L1291.82 67.913L1285.58 67.6952L1286.5 41.3534Z" fill="#F1C0C5"/>
<path d="M1260.43 788.152L1266.67 788.369L1265.75 814.711L1259.51 814.494L1260.43 788.152Z" fill="#F1C0C5"/>
<path d="M1299.99 41.9142L1306.22 42.3496L1304.38 68.6432L1298.16 68.2078L1299.99 41.9142Z" fill="#F1C0C5"/>
<path d="M1247.84 787.369L1254.07 787.805L1252.23 814.114L1246 813.678L1247.84 787.369Z" fill="#F1C0C5"/>
<path d="M1313.43 43.0312L1319.64 43.6826L1316.89 69.8965L1310.68 69.2451L1313.43 43.0312Z" fill="#F1C0C5"/>
<path d="M1235.33 786.179L1241.54 786.831L1238.79 813.06L1232.58 812.407L1235.33 786.179Z" fill="#F1C0C5"/>
<path d="M1326.86 44.5523L1333.04 45.4199L1329.38 71.5218L1323.2 70.6542L1326.86 44.5523Z" fill="#F1C0C5"/>
<path d="M1222.83 784.518L1229.01 785.387L1225.34 811.488L1219.16 810.619L1222.83 784.518Z" fill="#F1C0C5"/>
<path d="M1340.21 46.5235L1346.36 47.6074L1341.78 73.5648L1335.64 72.4808L1340.21 46.5235Z" fill="#F1C0C5"/>
<path d="M1210.49 782.488L1216.63 783.571L1212.06 809.529L1205.91 808.447L1210.49 782.488Z" fill="#F1C0C5"/>
<path d="M1353.48 49.0352L1359.58 50.333L1354.1 76.1148L1348 74.817L1353.48 49.0352Z" fill="#F1C0C5"/>
<path d="M1198.13 779.973L1204.23 781.271L1198.74 807.068L1192.64 805.769L1198.13 779.973Z" fill="#F1C0C5"/>
<path d="M1366.66 51.9742L1372.72 53.4844L1366.34 79.0592L1360.29 77.5491L1366.66 51.9742Z" fill="#F1C0C5"/>
<path d="M1185.9 777.044L1191.96 778.554L1185.58 804.129L1179.53 802.618L1185.9 777.044Z" fill="#F1C0C5"/>
<path d="M1379.74 55.3038L1385.74 57.0244L1378.47 82.3611L1372.47 80.6405L1379.74 55.3038Z" fill="#F1C0C5"/>
<path d="M1173.78 773.671L1179.78 775.393L1172.5 800.743L1166.5 799.021L1173.78 773.671Z" fill="#F1C0C5"/>
<path d="M1392.67 59.1589L1398.61 61.0879L1390.46 86.1705L1384.52 84.2415L1392.67 59.1589Z" fill="#F1C0C5"/>
<path d="M1161.78 769.876L1167.71 771.805L1159.57 796.872L1153.63 794.943L1161.78 769.876Z" fill="#F1C0C5"/>
<path d="M1405.47 63.4842L1411.34 65.6182L1402.33 90.3879L1396.46 88.254L1405.47 63.4842Z" fill="#F1C0C5"/>
<path d="M1149.86 765.614L1155.73 767.75L1146.71 792.517L1140.84 790.381L1149.86 765.614Z" fill="#F1C0C5"/>
<path d="M1418.11 68.188L1423.9 70.5264L1414.02 94.9649L1408.24 92.6265L1418.11 68.188Z" fill="#F1C0C5"/>
<path d="M1138.16 761.036L1143.95 763.375L1134.06 787.826L1128.28 785.487L1138.16 761.036Z" fill="#F1C0C5"/>
<path d="M1430.59 73.3986L1436.3 75.9375L1425.58 100.017L1419.87 97.4776L1430.59 73.3986Z" fill="#F1C0C5"/>
<path d="M1126.64 756.035L1132.34 758.574L1121.61 782.667L1115.91 780.129L1126.64 756.035Z" fill="#F1C0C5"/>
<path d="M1442.89 78.9511L1448.5 81.6885L1436.94 105.391L1431.33 102.653L1442.89 78.9511Z" fill="#F1C0C5"/>
<path d="M1115.29 750.595L1120.9 753.332L1109.34 777.02L1103.73 774.283L1115.29 750.595Z" fill="#F1C0C5"/>
<path d="M1454.95 85.0284L1460.46 87.959L1448.09 111.232L1442.58 108.301L1454.95 85.0284Z" fill="#F1C0C5"/>
<path d="M1104.13 744.819L1109.64 747.751L1097.26 771.035L1091.75 768.104L1104.13 744.819Z" fill="#F1C0C5"/>
<path d="M1466.83 91.457L1472.23 94.5791L1459.05 117.403L1453.64 114.281L1466.83 91.457Z" fill="#F1C0C5"/>
<path d="M1093.19 738.656L1098.6 741.777L1085.41 764.617L1080.01 761.496L1093.19 738.656Z" fill="#F1C0C5"/>
<path d="M1478.45 98.3288L1483.74 101.637L1469.76 124.003L1464.47 120.695L1478.45 98.3288Z" fill="#F1C0C5"/>
<path d="M1082.47 732.112L1087.77 735.42L1073.79 757.786L1068.5 754.478L1082.47 732.112Z" fill="#F1C0C5"/>
<path d="M1489.82 105.607L1494.99 109.097L1480.26 130.951L1475.08 127.461L1489.82 105.607Z" fill="#F1C0C5"/>
<path d="M1071.97 725.166L1077.15 728.656L1062.4 750.521L1057.22 747.03L1071.97 725.166Z" fill="#F1C0C5"/>
<path d="M1500.96 113.243L1506 116.913L1490.51 138.234L1485.46 134.564L1500.96 113.243Z" fill="#F1C0C5"/>
<path d="M1061.73 717.798L1066.78 721.467L1051.28 742.803L1046.23 739.134L1061.73 717.798Z" fill="#F1C0C5"/>
<path d="M1511.8 121.306L1516.72 125.149L1500.49 145.92L1495.57 142.077L1511.8 121.306Z" fill="#F1C0C5"/>
<path d="M1051.74 710.047L1056.65 713.891L1040.41 734.67L1035.49 730.826L1051.74 710.047Z" fill="#F1C0C5"/>
<path d="M1522.35 129.675L1527.13 133.688L1510.19 153.879L1505.41 149.866L1522.35 129.675Z" fill="#F1C0C5"/>
<path d="M1042.04 702.122L1046.82 706.136L1029.86 726.336L1025.08 722.323L1042.04 702.122Z" fill="#F1C0C5"/>
<path d="M1532.63 138.471L1537.26 142.647L1519.63 162.235L1514.99 158.058L1532.63 138.471Z" fill="#F1C0C5"/>
<path d="M1032.6 693.74L1037.23 697.918L1019.58 717.514L1014.95 713.336L1032.6 693.74Z" fill="#F1C0C5"/>
<path d="M1542.57 147.58L1547.06 151.918L1528.74 170.872L1524.25 166.534L1542.57 147.58Z" fill="#F1C0C5"/>
<path d="M1023.48 685.101L1027.97 689.438L1009.64 708.406L1005.15 704.069L1023.48 685.101Z" fill="#F1C0C5"/>
<path d="M1552.19 157.072L1556.53 161.562L1537.56 179.883L1533.22 175.393L1552.19 157.072Z" fill="#F1C0C5"/>
<path d="M1014.67 676.13L1019 680.621L1000.04 698.927L995.703 694.436L1014.67 676.13Z" fill="#F1C0C5"/>
<path d="M1561.49 166.873L1565.66 171.512L1546.06 189.159L1541.89 184.52L1561.49 166.873Z" fill="#F1C0C5"/>
<path d="M1006.16 666.872L1010.34 671.511L990.739 689.158L986.562 684.519L1006.16 666.872Z" fill="#F1C0C5"/>
<path d="M1570.42 177.002L1574.44 181.784L1554.25 198.727L1550.23 193.945L1570.42 177.002Z" fill="#F1C0C5"/>
<path d="M997.997 657.266L1002.01 662.049L981.799 678.994L977.788 674.211L997.997 657.266Z" fill="#F1C0C5"/>
<path d="M1579 187.414L1582.84 192.332L1562.06 208.573L1558.22 203.654L1579 187.414Z" fill="#F1C0C5"/>
<path d="M990.149 647.532L993.992 652.451L973.21 668.688L969.367 663.769L990.149 647.532Z" fill="#F1C0C5"/>
<path d="M1587.22 198.13L1590.88 203.181L1569.55 218.679L1565.88 213.628L1587.22 198.13Z" fill="#F1C0C5"/>
<path d="M982.667 637.407L986.335 642.458L964.996 657.956L961.328 652.905L982.667 637.407Z" fill="#F1C0C5"/>
<path d="M1595.06 209.133L1598.55 214.309L1576.68 229.053L1573.19 223.877L1595.06 209.133Z" fill="#F1C0C5"/>
<path d="M975.529 627L979.019 632.176L957.151 646.92L953.662 641.744L975.529 627Z" fill="#F1C0C5"/>
<path d="M1602.5 220.403L1605.81 225.696L1583.46 239.664L1580.15 234.37L1602.5 220.403Z" fill="#F1C0C5"/>
<path d="M968.772 616.413L972.079 621.707L949.711 635.679L946.404 630.385L968.772 616.413Z" fill="#F1C0C5"/>
<path d="M1609.54 231.913L1612.66 237.319L1589.84 250.498L1586.72 245.092L1609.54 231.913Z" fill="#F1C0C5"/>
<path d="M962.38 605.572L965.5 610.979L942.658 624.161L939.538 618.755L962.38 605.572Z" fill="#F1C0C5"/>
<path d="M1616.18 243.662L1619.11 249.174L1595.83 261.548L1592.9 256.037L1616.18 243.662Z" fill="#F1C0C5"/>
<path d="M956.428 594.414L959.358 599.926L936.072 612.307L933.142 606.796L956.428 594.414Z" fill="#F1C0C5"/>
<path d="M1622.42 255.636L1625.16 261.247L1601.46 272.797L1598.73 267.186L1622.42 255.636Z" fill="#F1C0C5"/>
<path d="M950.797 583.165L953.532 588.776L929.84 600.327L927.105 594.716L950.797 583.165Z" fill="#F1C0C5"/>
<path d="M1628.21 267.845L1630.75 273.548L1606.67 284.269L1604.13 278.566L1628.21 267.845Z" fill="#F1C0C5"/>
<path d="M945.548 571.786L948.086 577.489L923.991 588.212L921.453 582.509L945.548 571.786Z" fill="#F1C0C5"/>
<path d="M1633.58 280.219L1635.92 286.007L1611.48 295.881L1609.14 290.093L1633.58 280.219Z" fill="#F1C0C5"/>
<path d="M940.697 560.213L943.036 566L918.585 575.884L916.246 570.097L940.697 560.213Z" fill="#F1C0C5"/>
<path d="M1638.53 292.806L1640.66 298.672L1615.9 307.687L1613.76 301.821L1638.53 292.806Z" fill="#F1C0C5"/>
<path d="M936.292 548.423L938.427 554.289L913.644 563.309L911.509 557.444L936.292 548.423Z" fill="#F1C0C5"/>
<path d="M1643.03 305.517L1644.96 311.454L1619.89 319.599L1617.96 313.662L1643.03 305.517Z" fill="#F1C0C5"/>
<path d="M932.309 536.456L934.238 542.393L909.156 550.542L907.227 544.606L932.309 536.456Z" fill="#F1C0C5"/>
<path d="M1647.08 318.381L1648.8 324.382L1623.47 331.647L1621.75 325.647L1647.08 318.381Z" fill="#F1C0C5"/>
<path d="M928.742 524.41L930.463 530.41L905.111 537.68L903.391 531.679L928.742 524.41Z" fill="#F1C0C5"/>
<path d="M1650.68 331.433L1652.19 337.49L1626.61 343.867L1625.1 337.81L1650.68 331.433Z" fill="#F1C0C5"/>
<path d="M925.636 512.154L927.146 518.211L901.572 524.587L900.062 518.531L925.636 512.154Z" fill="#F1C0C5"/>
<path d="M1653.82 344.564L1655.12 350.67L1629.34 356.15L1628.04 350.044L1653.82 344.564Z" fill="#F1C0C5"/>
<path d="M922.938 499.861L924.236 505.967L898.455 511.447L897.157 505.341L922.938 499.861Z" fill="#F1C0C5"/>
<path d="M1656.52 357.796L1657.6 363.943L1631.64 368.52L1630.56 362.373L1656.52 357.796Z" fill="#F1C0C5"/>
<path d="M920.554 487.575L921.638 493.723L895.665 498.302L894.581 492.155L920.554 487.575Z" fill="#F1C0C5"/>
<path d="M1658.73 371.135L1659.59 377.316L1633.49 380.985L1632.62 374.803L1658.73 371.135Z" fill="#F1C0C5"/>
<path d="M918.747 475.08L919.616 481.262L893.499 484.932L892.631 478.751L918.747 475.08Z" fill="#F1C0C5"/>
<path d="M1660.49 384.466L1661.14 390.674L1634.93 393.424L1634.27 387.216L1660.49 384.466Z" fill="#F1C0C5"/>
<path d="M917.326 462.559L917.979 468.767L891.765 471.522L891.113 465.314L917.326 462.559Z" fill="#F1C0C5"/>
<path d="M1661.76 397.926L1662.19 404.153L1635.9 405.992L1635.46 399.765L1661.76 397.926Z" fill="#F1C0C5"/>
<path d="M916.277 450.071L916.713 456.298L890.419 458.136L889.984 451.909L916.277 450.071Z" fill="#F1C0C5"/>
<path d="M1662.58 411.416L1662.79 417.654L1636.45 418.574L1636.24 412.336L1662.58 411.416Z" fill="#F1C0C5"/>
<path d="M915.814 437.455L916.03 443.693L889.673 444.609L889.456 438.371L915.814 437.455Z" fill="#F1C0C5"/>
<path d="M1636.56 424.894H1662.92V431.136H1636.56V424.894Z" fill="#F1C0C5"/>
<path d="M889.291 424.894H915.664V431.136H889.291V424.894Z" fill="#F1C0C5"/>
<path d="M1636.46 437.484L1662.81 438.404L1662.59 444.643L1636.25 443.723L1636.46 437.484Z" fill="#F1C0C5"/>
<path d="M889.636 411.391L915.993 412.312L915.775 418.55L889.418 417.63L889.636 411.391Z" fill="#F1C0C5"/>
<path d="M1635.93 450.042L1662.23 451.881L1661.79 458.108L1635.5 456.269L1635.93 450.042Z" fill="#F1C0C5"/>
<path d="M890.457 397.897L916.766 399.746L916.328 405.973L890.02 404.124L890.457 397.897Z" fill="#F1C0C5"/>
<path d="M1634.94 462.601L1661.15 465.36L1660.5 471.568L1634.28 468.809L1634.94 462.601Z" fill="#F1C0C5"/>
<path d="M891.736 384.484L917.965 387.245L917.311 393.453L891.083 390.692L891.736 384.484Z" fill="#F1C0C5"/>
<path d="M1633.51 475.1L1659.61 478.772L1658.74 484.954L1632.64 481.281L1633.51 475.1Z" fill="#F1C0C5"/>
<path d="M893.497 371.1L919.613 374.771L918.745 380.952L892.628 377.282L893.497 371.1Z" fill="#F1C0C5"/>
<path d="M1631.65 487.548L1657.61 492.13L1656.52 498.277L1630.57 493.696L1631.65 487.548Z" fill="#F1C0C5"/>
<path d="M895.715 357.752L921.687 362.336L920.602 368.483L894.63 363.899L895.715 357.752Z" fill="#F1C0C5"/>
<path d="M1629.35 499.91L1655.13 505.399L1653.83 511.505L1628.05 506.016L1629.35 499.91Z" fill="#F1C0C5"/>
<path d="M898.385 344.485L924.181 349.973L922.882 356.078L897.086 350.59L898.385 344.485Z" fill="#F1C0C5"/>
<path d="M1626.64 512.191L1652.21 518.567L1650.7 524.624L1625.13 518.248L1626.64 512.191Z" fill="#F1C0C5"/>
<path d="M901.534 331.442L927.124 337.822L925.614 343.879L900.024 337.499L901.534 331.442Z" fill="#F1C0C5"/>
<path d="M1623.46 524.373L1648.79 531.639L1647.07 537.639L1621.74 530.374L1623.46 524.373Z" fill="#F1C0C5"/>
<path d="M905.137 318.345L930.488 325.614L928.768 331.615L903.416 324.345L905.137 318.345Z" fill="#F1C0C5"/>
<path d="M1619.9 536.441L1644.97 544.586L1643.04 550.523L1617.98 542.378L1619.9 536.441Z" fill="#F1C0C5"/>
<path d="M909.194 305.542L934.276 313.691L932.347 319.628L907.265 311.478L909.194 305.542Z" fill="#F1C0C5"/>
<path d="M1615.87 548.34L1640.63 557.359L1638.5 563.225L1613.73 554.206L1615.87 548.34Z" fill="#F1C0C5"/>
<path d="M913.688 292.723L938.47 301.747L936.334 307.612L911.552 298.588L913.688 292.723Z" fill="#F1C0C5"/>
<path d="M1611.46 560.125L1635.9 570.003L1633.56 575.79L1609.13 565.912L1611.46 560.125Z" fill="#F1C0C5"/>
<path d="M918.631 280.182L943.082 290.066L940.743 295.854L916.291 285.97L918.631 280.182Z" fill="#F1C0C5"/>
<path d="M1606.68 571.791L1630.75 582.512L1628.22 588.214L1604.14 577.494L1606.68 571.791Z" fill="#F1C0C5"/>
<path d="M923.997 267.837L948.09 278.564L945.551 284.267L921.458 273.54L923.997 267.837Z" fill="#F1C0C5"/>
<path d="M1601.47 583.235L1625.16 594.789L1622.42 600.4L1598.73 588.845L1601.47 583.235Z" fill="#F1C0C5"/>
<path d="M929.823 255.672L953.514 267.227L950.777 272.837L927.087 261.283L929.823 255.672Z" fill="#F1C0C5"/>
<path d="M1595.88 594.523L1619.15 606.897L1616.22 612.409L1592.95 600.035L1595.88 594.523Z" fill="#F1C0C5"/>
<path d="M936.056 243.593L959.34 255.979L956.408 261.49L933.124 249.104L936.056 243.593Z" fill="#F1C0C5"/>
<path d="M1589.83 605.546L1612.66 618.729L1609.53 624.134L1586.71 610.951L1589.83 605.546Z" fill="#F1C0C5"/>
<path d="M942.662 231.958L965.504 245.141L962.384 250.547L939.541 237.364L942.662 231.958Z" fill="#F1C0C5"/>
<path d="M1583.5 616.416L1605.85 630.384L1602.54 635.677L1580.19 621.71L1583.5 616.416Z" fill="#F1C0C5"/>
<path d="M949.723 220.408L972.089 234.384L968.781 239.677L946.415 225.702L949.723 220.408Z" fill="#F1C0C5"/>
<path d="M1576.72 627.021L1598.57 641.76L1595.08 646.935L1573.23 632.196L1576.72 627.021Z" fill="#F1C0C5"/>
<path d="M957.154 209.184L979.019 223.932L975.528 229.107L953.663 214.359L957.154 209.184Z" fill="#F1C0C5"/>
<path d="M1569.58 637.368L1590.91 652.87L1587.24 657.92L1565.91 642.418L1569.58 637.368Z" fill="#F1C0C5"/>
<path d="M964.992 198.169L986.328 213.671L982.659 218.721L961.323 203.219L964.992 198.169Z" fill="#F1C0C5"/>
<path d="M1562.08 647.49L1582.85 663.718L1579.01 668.637L1558.24 652.409L1562.08 647.49Z" fill="#F1C0C5"/>
<path d="M973.231 187.397L994.014 203.634L990.171 208.553L969.388 192.316L973.231 187.397Z" fill="#F1C0C5"/>
<path d="M1554.24 657.324L1574.43 674.267L1570.42 679.048L1550.23 662.106L1554.24 657.324Z" fill="#F1C0C5"/>
<path d="M981.813 176.976L1002.02 193.929L998.004 198.711L977.801 181.758L981.813 176.976Z" fill="#F1C0C5"/>
<path d="M1546.08 666.906L1565.67 684.543L1561.5 689.182L1541.91 671.545L1546.08 666.906Z" fill="#F1C0C5"/>
<path d="M990.731 166.893L1010.33 184.54L1006.15 189.179L986.554 171.532L990.731 166.893Z" fill="#F1C0C5"/>
<path d="M1537.58 676.168L1556.54 694.48L1552.2 698.97L1533.25 680.657L1537.58 676.168Z" fill="#F1C0C5"/>
<path d="M1000.03 157.067L1019 175.388L1014.67 179.878L995.696 161.557L1000.03 157.067Z" fill="#F1C0C5"/>
<path d="M1528.74 685.123L1547.06 704.08L1542.57 708.417L1524.26 689.46L1528.74 685.123Z" fill="#F1C0C5"/>
<path d="M1009.68 147.573L1027.99 166.551L1023.5 170.885L1005.18 151.908L1009.68 147.573Z" fill="#F1C0C5"/>
<path d="M1519.62 693.786L1537.26 713.377L1532.62 717.553L1514.98 697.962L1519.62 693.786Z" fill="#F1C0C5"/>
<path d="M1019.62 138.434L1037.26 158.039L1032.62 162.214L1014.98 142.609L1019.62 138.434Z" fill="#F1C0C5"/>
<path d="M1510.21 702.167L1527.15 722.361L1522.37 726.373L1505.43 706.179L1510.21 702.167Z" fill="#F1C0C5"/>
<path d="M1029.86 129.713L1046.81 149.919L1042.02 153.931L1025.08 133.724L1029.86 129.713Z" fill="#F1C0C5"/>
<path d="M1500.5 710.17L1516.72 730.94L1511.8 734.784L1495.58 714.013L1500.5 710.17Z" fill="#F1C0C5"/>
<path d="M1040.45 121.273L1056.69 142.056L1051.77 145.899L1035.53 125.116L1040.45 121.273Z" fill="#F1C0C5"/>
<path d="M1490.5 717.76L1505.99 739.084L1500.94 742.753L1485.45 721.429L1490.5 717.76Z" fill="#F1C0C5"/>
<path d="M1051.3 113.211L1066.8 134.548L1061.75 138.217L1046.25 116.88L1051.3 113.211Z" fill="#F1C0C5"/>
<path d="M1480.26 725.087L1494.99 746.941L1489.82 750.431L1475.08 728.577L1480.26 725.087Z" fill="#F1C0C5"/>
<path d="M1062.42 105.571L1077.17 127.438L1071.99 130.928L1057.25 109.061L1062.42 105.571Z" fill="#F1C0C5"/>
<path d="M1469.78 732.06L1483.75 754.415L1478.45 757.722L1464.49 735.367L1469.78 732.06Z" fill="#F1C0C5"/>
<path d="M1073.79 98.3201L1087.76 120.688L1082.46 123.995L1068.49 101.627L1073.79 98.3201Z" fill="#F1C0C5"/>
<path d="M1459.04 738.601L1472.22 761.428L1466.82 764.549L1453.64 741.722L1459.04 738.601Z" fill="#F1C0C5"/>
<path d="M1085.47 91.4292L1098.65 114.271L1093.25 117.392L1080.06 94.5493L1085.47 91.4292Z" fill="#F1C0C5"/>
<path d="M1448.11 744.872L1460.48 768.146L1454.96 771.076L1442.59 747.801L1448.11 744.872Z" fill="#F1C0C5"/>
<path d="M1097.32 84.9887L1109.69 108.279L1104.18 111.208L1091.81 87.9173L1097.32 84.9887Z" fill="#F1C0C5"/>
<path d="M1436.93 750.655L1448.49 774.343L1442.88 777.08L1431.32 753.392L1436.93 750.655Z" fill="#F1C0C5"/>
<path d="M1109.37 78.9706L1120.93 102.675L1115.32 105.411L1103.76 81.707L1109.37 78.9706Z" fill="#F1C0C5"/>
<path d="M1425.58 756.066L1436.3 780.146L1430.6 782.684L1419.88 758.605L1425.58 756.066Z" fill="#F1C0C5"/>
<path d="M1121.63 73.3871L1132.35 97.4805L1126.65 100.019L1115.92 75.9261L1121.63 73.3871Z" fill="#F1C0C5"/>
<path d="M1414.03 761.02L1423.9 785.46L1418.11 787.797L1408.24 763.357L1414.03 761.02Z" fill="#F1C0C5"/>
<path d="M1134.15 68.1644L1144.02 92.6191L1138.23 94.9565L1128.36 70.5018L1134.15 68.1644Z" fill="#F1C0C5"/>
<path d="M1402.34 765.698L1411.35 790.468L1405.49 792.602L1396.48 767.832L1402.34 765.698Z" fill="#F1C0C5"/>
<path d="M1146.74 63.4685L1155.76 88.2529L1149.89 90.3869L1140.87 65.6024L1146.74 63.4685Z" fill="#F1C0C5"/>
<path d="M1390.47 769.844L1398.61 794.912L1392.68 796.841L1384.53 771.773L1390.47 769.844Z" fill="#F1C0C5"/>
<path d="M1159.51 59.1744L1167.65 84.2598L1161.72 86.1866L1153.57 61.1012L1159.51 59.1744Z" fill="#F1C0C5"/>
<path d="M1378.48 773.595L1385.74 798.935L1379.74 800.653L1372.48 775.314L1378.48 773.595Z" fill="#F1C0C5"/>
<path d="M1172.48 55.3316L1179.74 80.6846L1173.74 82.4041L1166.47 57.0511L1172.48 55.3316Z" fill="#F1C0C5"/>
<path d="M1366.34 777.036L1372.71 802.612L1366.66 804.121L1360.28 778.545L1366.34 777.036Z" fill="#F1C0C5"/>
<path d="M1185.57 51.9421L1191.95 77.5332L1185.89 79.0423L1179.51 53.4512L1185.57 51.9421Z" fill="#F1C0C5"/>
<path d="M1354.11 779.901L1359.59 805.683L1353.48 806.98L1348 781.199L1354.11 779.901Z" fill="#F1C0C5"/>
<path d="M1198.78 48.9861L1204.26 74.7832L1198.16 76.081L1192.67 50.284L1198.78 48.9861Z" fill="#F1C0C5"/>
<path d="M1341.8 782.446L1346.37 808.405L1340.22 809.487L1335.65 783.528L1341.8 782.446Z" fill="#F1C0C5"/>
<path d="M1212.04 46.5413L1216.61 72.5156L1210.47 73.5974L1205.9 47.6231L1212.04 46.5413Z" fill="#F1C0C5"/>
<path d="M1329.37 784.523L1333.03 810.624L1326.85 811.493L1323.18 785.392L1329.37 784.523Z" fill="#F1C0C5"/>
<path d="M1225.37 44.5278L1229.04 70.6445L1222.86 71.5133L1219.19 45.3965L1225.37 44.5278Z" fill="#F1C0C5"/>
<path d="M1316.88 786.22L1319.64 812.434L1313.43 813.086L1310.68 786.873L1316.88 786.22Z" fill="#F1C0C5"/>
<path d="M1238.78 42.983L1241.53 69.2119L1235.32 69.8644L1232.57 43.6355L1238.78 42.983Z" fill="#F1C0C5"/>
<path d="M1304.39 787.321L1306.23 813.614L1300 814.05L1298.17 787.756L1304.39 787.321Z" fill="#F1C0C5"/>
<path d="M1252.23 41.9275L1254.06 68.2373L1247.84 68.6706L1246.01 42.3608L1252.23 41.9275Z" fill="#F1C0C5"/>
<path d="M1291.8 788.2L1292.71 814.542L1286.47 814.759L1285.56 788.417L1291.8 788.2Z" fill="#F1C0C5"/>
<path d="M1265.72 41.3378L1266.64 67.6953L1260.4 67.9121L1259.48 41.5546L1265.72 41.3378Z" fill="#F1C0C5"/>
<path d="M169.763 571.086H179.532L194.248 555.809H184.495L169.763 571.086Z" fill="#DEADB2"/>
<path d="M151.38 571.086H161.134L175.865 555.809H166.096L151.38 571.086Z" fill="#DEADB2"/>
<path d="M132.981 571.086H142.75L157.466 555.809H147.712L132.981 571.086Z" fill="#DEADB2"/>
<path d="M114.597 571.086H124.35L139.082 555.809H129.329L114.597 571.086Z" fill="#DEADB2"/>
<path d="M96.2141 571.086H105.968L120.684 555.809H110.93L96.2141 571.086Z" fill="#DEADB2"/>
<path d="M77.8156 571.086H87.569L102.301 555.809H92.5473L77.8156 571.086Z" fill="#DEADB2"/>
<path d="M59.432 571.086H69.1854L83.9014 555.809H74.1479L59.432 571.086Z" fill="#DEADB2"/>
<path d="M41.0326 571.086H50.786L65.5176 555.809H55.7641L41.0326 571.086Z" fill="#DEADB2"/>
<path d="M39.1455 414.188H378.285L466.02 326.454H660.309L753.162 233.601H883.141C883.578 233.601 883.921 233.257 883.921 232.82C883.921 232.383 883.578 232.04 883.141 232.04H752.506L659.653 324.893H465.364L377.63 412.628H39.1299C38.6929 412.628 38.3496 412.971 38.3496 413.408C38.3496 413.845 38.6929 414.188 39.1299 414.188H39.1455Z" fill="#F1C0C5"/>
<path opacity="0.5" d="M39.1454 580.919H334.168L557.64 357.447H705.331L799.526 263.252H1069.64C1070.5 263.252 1071.2 262.55 1071.2 261.691C1071.2 260.833 1070.5 260.131 1069.64 260.131H798.246L704.051 354.326H556.36L332.889 577.798H39.1611C38.3027 577.798 37.6005 578.5 37.6005 579.358C37.6005 580.216 38.3027 580.919 39.1611 580.919H39.1454Z" fill="#DEADB2"/>
<path d="M290.597 625.269H405.127L594.968 435.428H834.03L890.506 378.951H1124.26C1124.7 378.951 1125.04 378.608 1125.04 378.171C1125.04 377.734 1124.7 377.391 1124.26 377.391H889.851L833.374 433.867H594.313L404.471 623.709H291.237L172.651 505.122H39.1451C38.7082 505.122 38.3649 505.465 38.3649 505.902C38.3649 506.339 38.7082 506.683 39.1451 506.683H172.011L290.597 625.269V625.269Z" fill="#DEADB2"/>
<path d="M863.085 206.291L1004.08 206.292C1004.95 206.292 1005.66 205.589 1005.66 204.731C1005.66 203.873 1004.95 203.17 1004.08 203.17L864.397 203.17L793.776 133.46H392.134L338.904 80.9164C338.287 80.3078 337.291 80.3078 336.675 80.9164C336.058 81.525 336.058 82.5082 336.675 83.1168L390.822 136.566H792.464L863.085 206.276V206.291Z" fill="#DEADB2"/>
<path opacity="0.5" d="M1260.54 479.14C1260.95 479.14 1261.34 478.983 1261.65 478.687C1262.26 478.078 1262.26 477.095 1261.65 476.487L1177.24 392.076H910.731L837.26 465.547H704.222C703.364 465.547 702.662 466.249 702.662 467.108C702.662 467.966 703.364 468.668 704.222 468.668H838.555L912.026 395.197H1175.95L1259.45 478.703C1259.76 479.015 1260.15 479.155 1260.56 479.155L1260.54 479.14Z" fill="#DEADB2"/>
<path d="M929.957 233.602H1044.99L1108.31 170.274H1260.53C1260.97 170.274 1261.31 169.931 1261.31 169.494C1261.31 169.057 1260.97 168.714 1260.53 168.714H1107.66L1044.33 232.041H929.957C929.52 232.041 929.177 232.385 929.177 232.822C929.177 233.258 929.52 233.602 929.957 233.602Z" fill="#DEADB2"/>
<path d="M1004.08 298.115H1088.68L1171.27 215.53H1274.08C1274.51 215.53 1274.86 215.187 1274.86 214.75C1274.86 214.313 1274.51 213.97 1274.08 213.97H1170.63L1088.04 296.554H1004.1C1003.66 296.554 1003.32 296.898 1003.32 297.335C1003.32 297.772 1003.66 298.115 1004.1 298.115H1004.08Z" fill="#DEADB2"/>
<path d="M1115.07 331.324C1115.27 331.324 1115.48 331.246 1115.62 331.09L1187.92 258.789H1274.06C1274.5 258.789 1274.84 258.446 1274.84 258.009C1274.84 257.572 1274.5 257.229 1274.06 257.229H1187.28L1114.51 329.997C1114.2 330.309 1114.2 330.793 1114.51 331.105C1114.66 331.261 1114.87 331.339 1115.05 331.339L1115.07 331.324Z" fill="#DEADB2"/>
<path d="M251.617 358.439H360.778C361.637 358.439 362.339 357.737 362.339 356.878C362.339 356.02 361.637 355.318 360.778 355.318H252.913L160.793 263.198H112.868C112.01 263.198 111.308 263.9 111.308 264.759C111.308 265.617 112.01 266.319 112.868 266.319H159.498L251.617 358.439Z" fill="#DEADB2"/>
<path d="M290.928 635.529C297.03 635.529 301.977 630.567 301.977 624.48C301.977 618.394 297.014 613.432 290.928 613.432C284.842 613.432 279.879 618.394 279.879 624.48C279.879 630.567 284.842 635.529 290.928 635.529ZM290.928 614.977C296.156 614.977 300.416 619.237 300.416 624.465C300.416 629.693 296.156 633.953 290.928 633.953C285.7 633.953 281.44 629.693 281.44 624.465C281.44 619.237 285.7 614.977 290.928 614.977Z" fill="#F1C0C5"/>
<path d="M290.927 631.675C286.954 631.675 283.733 628.454 283.733 624.481C283.733 620.508 286.954 617.287 290.927 617.287C294.9 617.287 298.121 620.508 298.121 624.481C298.121 628.454 294.9 631.675 290.927 631.675Z" fill="#F1C0C5"/>
<path d="M378.257 424.45C384.359 424.45 389.306 419.487 389.306 413.401C389.306 407.315 384.343 402.353 378.257 402.353C372.171 402.353 367.208 407.315 367.208 413.401C367.208 419.487 372.171 424.45 378.257 424.45ZM378.257 403.897C383.485 403.897 387.745 408.158 387.745 413.386C387.745 418.614 383.485 422.874 378.257 422.874C373.029 422.874 368.769 418.614 368.769 413.386C368.769 408.158 373.029 403.897 378.257 403.897Z" fill="#F1C0C5"/>
<path d="M378.256 420.595C374.283 420.595 371.062 417.374 371.062 413.401C371.062 409.428 374.283 406.207 378.256 406.207C382.229 406.207 385.45 409.428 385.45 413.401C385.45 417.374 382.229 420.595 378.256 420.595Z" fill="#F1C0C5"/>
<path d="M371.952 367.942C378.054 367.942 383.001 362.98 383.001 356.893C383.001 350.807 378.038 345.845 371.952 345.845C365.866 345.845 360.904 350.807 360.904 356.893C360.904 362.98 365.866 367.942 371.952 367.942ZM371.952 347.39C377.18 347.39 381.44 351.65 381.44 356.878C381.44 362.106 377.18 366.366 371.952 366.366C366.724 366.366 362.464 362.106 362.464 356.878C362.464 351.65 366.724 347.39 371.952 347.39Z" fill="#F1C0C5"/>
<path d="M371.952 364.072C367.979 364.072 364.758 360.851 364.758 356.878C364.758 352.905 367.979 349.684 371.952 349.684C375.925 349.684 379.146 352.905 379.146 356.878C379.146 360.851 375.925 364.072 371.952 364.072Z" fill="#F1C0C5"/>
<path d="M487.153 356.878C487.153 360.857 490.383 364.072 494.347 364.072C498.311 364.072 501.541 360.842 501.541 356.878C501.541 352.914 498.311 349.684 494.347 349.684C490.383 349.684 487.153 352.914 487.153 356.878Z" fill="#F1C0C5"/>
<path d="M115.647 478.476C111.673 478.476 108.453 475.255 108.453 471.282C108.453 467.309 111.673 464.088 115.647 464.088C119.62 464.088 122.841 467.309 122.841 471.282C122.841 475.255 119.62 478.476 115.647 478.476Z" fill="#F1C0C5"/>
<path d="M574.825 232.299C580.927 232.299 585.874 227.336 585.874 221.25C585.874 215.164 580.911 210.201 574.825 210.201C568.739 210.201 563.777 215.164 563.777 221.25C563.777 227.336 568.739 232.299 574.825 232.299ZM574.825 211.746C580.053 211.746 584.313 216.006 584.313 221.234C584.313 226.462 580.053 230.722 574.825 230.722C569.597 230.722 565.337 226.462 565.337 221.234C565.337 216.006 569.597 211.746 574.825 211.746Z" fill="#F1C0C5"/>
<path d="M574.825 228.428C570.852 228.428 567.631 225.207 567.631 221.234C567.631 217.261 570.852 214.04 574.825 214.04C578.799 214.04 582.02 217.261 582.02 221.234C582.02 225.207 578.799 228.428 574.825 228.428Z" fill="#F1C0C5"/>
<path d="M693.037 478.351C699.139 478.351 704.086 473.389 704.086 467.303C704.086 461.216 699.123 456.254 693.037 456.254C686.951 456.254 681.989 461.216 681.989 467.303C681.989 473.389 686.951 478.351 693.037 478.351ZM693.037 457.799C698.265 457.799 702.525 462.059 702.525 467.287C702.525 472.515 698.265 476.775 693.037 476.775C687.809 476.775 683.549 472.515 683.549 467.287C683.549 462.059 687.809 457.799 693.037 457.799Z" fill="#DEADB2"/>
<path d="M693.037 474.498C689.064 474.498 685.843 471.277 685.843 467.304C685.843 463.33 689.064 460.109 693.037 460.109C697.01 460.109 700.231 463.33 700.231 467.304C700.231 471.277 697.01 474.498 693.037 474.498Z" fill="#DEADB2"/>
<path d="M893.425 243.886C899.527 243.886 904.474 238.923 904.474 232.837C904.474 226.751 899.511 221.788 893.425 221.788C887.339 221.788 882.376 226.751 882.376 232.837C882.376 238.923 887.339 243.886 893.425 243.886ZM893.425 223.333C898.653 223.333 902.913 227.593 902.913 232.821C902.913 238.049 898.653 242.309 893.425 242.309C888.197 242.309 883.937 238.049 883.937 232.821C883.937 227.593 888.197 223.333 893.425 223.333Z" fill="#F1C0C5"/>
<path d="M893.425 240.015C889.452 240.015 886.231 236.794 886.231 232.821C886.231 228.848 889.452 225.627 893.425 225.627C897.398 225.627 900.619 228.848 900.619 232.821C900.619 236.794 897.398 240.015 893.425 240.015Z" fill="#F1C0C5"/>
<path d="M1012.14 212.502C1016.41 212.502 1019.91 209.022 1019.91 204.731C1019.91 200.439 1016.43 196.959 1012.14 196.959C1007.84 196.959 1004.36 200.439 1004.36 204.731C1004.36 209.022 1007.84 212.502 1012.14 212.502ZM1012.14 198.535C1015.55 198.535 1018.35 201.313 1018.35 204.746C1018.35 208.179 1015.57 210.957 1012.14 210.957C1008.7 210.957 1005.92 208.179 1005.92 204.746C1005.92 201.313 1008.7 198.535 1012.14 198.535Z" fill="#DEADB2"/>
<path d="M1007.25 204.73C1007.25 207.43 1009.44 209.63 1012.15 209.63C1014.87 209.63 1017.05 207.446 1017.05 204.73C1017.05 202.015 1014.87 199.83 1012.15 199.83C1009.44 199.83 1007.25 202.015 1007.25 204.73Z" fill="#DEADB2"/>
<path d="M1170.94 222.521C1175.21 222.521 1178.71 219.041 1178.71 214.749C1178.71 210.458 1175.23 206.978 1170.94 206.978C1166.65 206.978 1163.17 210.458 1163.17 214.749C1163.17 219.041 1166.65 222.521 1170.94 222.521ZM1170.94 208.554C1174.36 208.554 1177.15 211.331 1177.15 214.765C1177.15 218.198 1174.37 220.976 1170.94 220.976C1167.51 220.976 1164.73 218.198 1164.73 214.765C1164.73 211.331 1167.51 208.554 1170.94 208.554Z" fill="#DEADB2"/>
<path d="M1166.05 214.749C1166.05 217.449 1168.24 219.649 1170.95 219.649C1173.67 219.649 1175.85 217.464 1175.85 214.749C1175.85 212.033 1173.67 209.849 1170.95 209.849C1168.24 209.849 1166.05 212.033 1166.05 214.749Z" fill="#DEADB2"/>
<path d="M1017.75 364.656C1022.03 364.656 1025.53 361.176 1025.53 356.885C1025.53 352.593 1022.05 349.113 1017.75 349.113C1013.46 349.113 1009.98 352.593 1009.98 356.885C1009.98 361.176 1013.46 364.656 1017.75 364.656ZM1017.75 350.689C1021.17 350.689 1023.96 353.467 1023.96 356.9C1023.96 360.334 1021.19 363.111 1017.75 363.111C1014.32 363.111 1011.54 360.334 1011.54 356.9C1011.54 353.467 1014.32 350.689 1017.75 350.689Z" fill="#DEADB2"/>
<path d="M1012.85 356.885C1012.85 359.584 1015.04 361.785 1017.75 361.785C1020.47 361.785 1022.65 359.6 1022.65 356.885C1022.65 354.169 1020.47 351.984 1017.75 351.984C1015.04 351.984 1012.85 354.169 1012.85 356.885Z" fill="#DEADB2"/>
<path d="M1131.24 385.928C1135.51 385.928 1139.01 382.448 1139.01 378.156C1139.01 373.865 1135.53 370.385 1131.24 370.385C1126.95 370.385 1123.47 373.865 1123.47 378.156C1123.47 382.448 1126.95 385.928 1131.24 385.928ZM1131.24 371.961C1134.66 371.961 1137.45 374.739 1137.45 378.172C1137.45 381.605 1134.67 384.383 1131.24 384.383C1127.81 384.383 1125.03 381.605 1125.03 378.172C1125.03 374.739 1127.81 371.961 1131.24 371.961Z" fill="#DEADB2"/>
<path d="M1126.34 378.172C1126.34 380.871 1128.52 383.072 1131.24 383.072C1133.95 383.072 1136.14 380.887 1136.14 378.172C1136.14 375.456 1133.95 373.271 1131.24 373.271C1128.52 373.271 1126.34 375.456 1126.34 378.172Z" fill="#DEADB2"/>
<path d="M795.5 241.529C790.691 241.529 786.792 237.63 786.792 232.821C786.792 228.012 790.691 224.113 795.5 224.113C800.309 224.113 804.208 228.012 804.208 232.821C804.208 237.63 800.309 241.529 795.5 241.529Z" fill="#F1C0C5"/>
<path d="M111.984 265.393C111.765 260.589 115.483 256.517 120.287 256.299C125.092 256.081 129.163 259.799 129.381 264.603C129.6 269.407 125.882 273.479 121.077 273.697C116.273 273.915 112.202 270.197 111.984 265.393Z" fill="#F1C0C5"/>
<path d="M203.55 413.408C203.55 418.215 207.451 422.116 212.258 422.116C217.064 422.116 220.966 418.215 220.966 413.408C220.966 408.602 217.064 404.7 212.258 404.7C207.451 404.7 203.55 408.602 203.55 413.408Z" fill="#F1C0C5"/>
<path d="M240.506 579.351C240.506 582.504 243.066 585.063 246.218 585.063C249.37 585.063 251.93 582.504 251.93 579.351C251.93 576.199 249.37 573.64 246.218 573.64C243.066 573.64 240.506 576.199 240.506 579.351Z" fill="#F1C0C5"/>
<path d="M488.635 535.062C488.635 538.215 491.195 540.774 494.347 540.774C497.499 540.774 500.059 538.215 500.059 535.062C500.059 531.91 497.499 529.351 494.347 529.351C491.195 529.351 488.635 531.91 488.635 535.062Z" fill="#F1C0C5"/>
<path d="M431.316 275.776C426.506 275.776 422.608 271.877 422.608 267.068C422.608 262.259 426.506 258.36 431.316 258.36C436.125 258.36 440.023 262.259 440.023 267.068C440.023 271.877 436.125 275.776 431.316 275.776Z" fill="#F1C0C5"/>
<path d="M681.067 446.158C674.749 446.158 669.628 441.037 669.628 434.719C669.628 428.402 674.749 423.28 681.067 423.28C687.384 423.28 692.506 428.402 692.506 434.719C692.506 441.037 687.384 446.158 681.067 446.158Z" fill="#DEADB2"/>
<path d="M378.117 546.501C371.799 546.501 366.678 541.379 366.678 535.062C366.678 528.744 371.799 523.623 378.117 523.623C384.434 523.623 389.556 528.744 389.556 535.062C389.556 541.379 384.434 546.501 378.117 546.501Z" fill="#F1C0C5"/>
<path d="M724.763 330.676C724.763 333.625 727.151 336.013 730.1 336.013C733.05 336.013 735.438 333.625 735.438 330.676C735.438 327.727 733.05 325.339 730.1 325.339C727.151 325.339 724.763 327.727 724.763 330.676Z" fill="#F1C0C5"/>
<path d="M906.486 393.62C906.486 396.57 908.874 398.957 911.823 398.957C914.773 398.957 917.16 396.57 917.16 393.62C917.16 390.671 914.773 388.283 911.823 388.283C908.874 388.283 906.486 390.671 906.486 393.62Z" fill="#DEADB2"/>
<path d="M692.475 305.067C698.998 305.067 704.304 299.761 704.304 293.238C704.304 286.715 698.998 281.409 692.475 281.409C685.952 281.409 680.646 286.715 680.646 293.238C680.646 299.761 685.952 305.067 692.475 305.067ZM692.475 282.954C698.139 282.954 702.743 287.558 702.743 293.223C702.743 298.887 698.139 303.491 692.475 303.491C686.81 303.491 682.206 298.887 682.206 293.223C682.206 287.558 686.81 282.954 692.475 282.954Z" fill="#F1C0C5"/>
<path d="M684.828 293.223C684.828 297.436 688.245 300.87 692.474 300.87C696.703 300.87 700.121 297.452 700.121 293.223C700.121 288.994 696.703 285.576 692.474 285.576C688.245 285.576 684.828 288.994 684.828 293.223Z" fill="#F1C0C5"/>
<path d="M953.365 306.043C948.556 306.043 944.657 302.144 944.657 297.335C944.657 292.526 948.556 288.627 953.365 288.627C958.175 288.627 962.073 292.526 962.073 297.335C962.073 302.144 958.175 306.043 953.365 306.043Z" fill="#DEADB2"/>
<path d="M1004.08 306.043C999.274 306.043 995.375 302.144 995.375 297.335C995.375 292.526 999.274 288.627 1004.08 288.627C1008.89 288.627 1012.79 292.526 1012.79 297.335C1012.79 302.144 1008.89 306.043 1004.08 306.043Z" fill="#DEADB2"/>
<path d="M1115.07 339.251C1110.26 339.251 1106.36 335.352 1106.36 330.543C1106.36 325.734 1110.26 321.835 1115.07 321.835C1119.88 321.835 1123.78 325.734 1123.78 330.543C1123.78 335.352 1119.88 339.251 1115.07 339.251Z" fill="#DEADB2"/>
<path d="M1179.99 258.008C1179.99 262.814 1183.89 266.716 1188.7 266.716C1193.5 266.716 1197.41 262.814 1197.41 258.008C1197.41 253.201 1193.5 249.3 1188.7 249.3C1183.89 249.3 1179.99 253.201 1179.99 258.008Z" fill="#DEADB2"/>
<path d="M824.23 265.093C822.36 265.093 820.843 263.577 820.843 261.707C820.843 259.836 822.36 258.32 824.23 258.32C826.1 258.32 827.616 259.836 827.616 261.707C827.616 263.577 826.1 265.093 824.23 265.093Z" fill="#F1C0C5"/>
<path d="M752.994 238.792C749.693 238.792 747.017 236.116 747.017 232.815C747.017 229.514 749.693 226.838 752.994 226.838C756.295 226.838 758.971 229.514 758.971 232.815C758.971 236.116 756.295 238.792 752.994 238.792Z" fill="#F1C0C5"/>
<path d="M925.416 238.798C922.115 238.798 919.439 236.122 919.439 232.821C919.439 229.52 922.115 226.844 925.416 226.844C928.717 226.844 931.393 229.52 931.393 232.821C931.393 236.122 928.717 238.798 925.416 238.798Z" fill="#DEADB2"/>
<path d="M1069.63 267.683C1066.33 267.683 1063.65 265.007 1063.65 261.706C1063.65 258.405 1066.33 255.729 1069.63 255.729C1072.93 255.729 1075.6 258.405 1075.6 261.706C1075.6 265.007 1072.93 267.683 1069.63 267.683Z" fill="#DEADB2"/>
<path d="M413.678 170.273H903.692C904.129 170.273 904.473 169.93 904.473 169.493C904.473 169.056 904.129 168.713 903.692 168.713H413.678C413.241 168.713 412.898 169.056 412.898 169.493C412.898 169.93 413.241 170.273 413.678 170.273V170.273Z" fill="#F1C0C5"/>
<path d="M908.109 175.47C904.808 175.47 902.132 172.794 902.132 169.494C902.132 166.193 904.808 163.517 908.109 163.517C911.41 163.517 914.086 166.193 914.086 169.494C914.086 172.794 911.41 175.47 908.109 175.47Z" fill="#F1C0C5"/>
<path d="M413.678 175.47C410.377 175.47 407.701 172.794 407.701 169.494C407.701 166.193 410.377 163.517 413.678 163.517C416.979 163.517 419.655 166.193 419.655 169.494C419.655 172.794 416.979 175.47 413.678 175.47Z" fill="#F1C0C5"/>
<path d="M118.421 472.07H380.236L494.874 357.432C495.186 357.12 495.186 356.636 494.874 356.324C494.562 356.012 494.078 356.012 493.766 356.324L379.596 470.494H118.421C117.985 470.494 117.641 470.837 117.641 471.274C117.641 471.711 117.985 472.055 118.421 472.055V472.07Z" fill="#F1C0C5"/>
<path d="M677.022 379.357H686.775L701.491 364.095H691.738L677.022 379.357Z" fill="#F1C0C5"/>
<path d="M658.623 379.357H668.377L683.108 364.095H673.355L658.623 379.357Z" fill="#F1C0C5"/>
<path d="M640.239 379.357H649.993L664.709 364.095H654.956L640.239 379.357Z" fill="#F1C0C5"/>
<path d="M621.84 379.357H631.594L646.325 364.095H636.572L621.84 379.357Z" fill="#F1C0C5"/>
<path d="M603.457 379.357H613.211L627.942 364.095H618.173L603.457 379.357Z" fill="#F1C0C5"/>
<path d="M585.059 379.357H594.828L609.544 364.095H599.79L585.059 379.357Z" fill="#F1C0C5"/>
<path d="M566.675 379.357H576.429L591.16 364.095H581.391L566.675 379.357Z" fill="#F1C0C5"/>
<path d="M548.276 379.357H558.045L572.761 364.095H563.007L548.276 379.357Z" fill="#F1C0C5"/>
<path d="M855.628 519.931H873.73L901.024 491.607H882.938L855.628 519.931Z" fill="#F1C0C5"/>
<path d="M821.514 519.931H839.616L866.926 491.607H848.823L821.514 519.931Z" fill="#F1C0C5"/>
<path d="M787.416 519.931H805.503L832.812 491.607H814.726L787.416 519.931Z" fill="#F1C0C5"/>
<path d="M753.303 519.931H771.405L798.715 491.607H780.612L753.303 519.931Z" fill="#F1C0C5"/>
<path d="M719.204 519.931H737.291L764.601 491.607H746.514L719.204 519.931Z" fill="#F1C0C5"/>
<path d="M685.091 519.931H703.193L730.503 491.607H712.401L685.091 519.931Z" fill="#F1C0C5"/>
<path d="M650.976 519.931H669.079L696.389 491.607H678.302L650.976 519.931Z" fill="#F1C0C5"/>
<path d="M616.878 519.931H634.98L662.274 491.607H644.188L616.878 519.931Z" fill="#F1C0C5"/>
<path d="M166.605 134.494H148.503L121.209 106.154H139.296L166.605 134.494Z" fill="#F1C0C5"/>
<path d="M200.703 134.494H182.616L155.307 106.154H173.409L200.703 134.494Z" fill="#F1C0C5"/>
<path d="M234.817 134.494H216.731L189.421 106.154H207.508L234.817 134.494Z" fill="#F1C0C5"/>
<path d="M268.931 134.494H250.828L223.519 106.154H241.621L268.931 134.494Z" fill="#F1C0C5"/>
<path d="M303.029 134.494H284.942L257.633 106.154H275.72L303.029 134.494Z" fill="#F1C0C5"/>
<path d="M336.212 134.494H318.109L290.8 106.154H308.902L336.212 134.494Z" fill="#F1C0C5"/>
<path d="M370.311 134.494H352.224L324.914 106.154H343.001L370.311 134.494Z" fill="#F1C0C5"/>
<path d="M1170.13 443.403H1159.03L1143.52 428.89L1160.89 412.629H1171.98L1154.6 428.89L1170.13 443.403Z" fill="#DEADB2"/>
<path d="M1152.82 443.403H1141.72L1126.21 428.89L1143.58 412.629H1154.68L1137.29 428.89L1152.82 443.403Z" fill="#DEADB2"/>
<path d="M1135.5 443.403H1124.42L1108.89 428.89L1126.27 412.629H1137.35L1119.99 428.89L1135.5 443.403Z" fill="#DEADB2"/>
<path d="M1118.19 443.403H1107.11L1091.58 428.89L1108.97 412.629H1120.05L1102.68 428.89L1118.19 443.403Z" fill="#DEADB2"/>
<path d="M1100.88 443.403H1089.79L1074.28 428.89L1091.65 412.629H1102.74L1085.36 428.89L1100.88 443.403Z" fill="#DEADB2"/>
<path d="M1083.58 443.403H1072.48L1056.97 428.89L1074.34 412.629H1085.42L1068.05 428.89L1083.58 443.403Z" fill="#DEADB2"/>
<path d="M1066.26 443.403H1055.18L1039.65 428.89L1057.03 412.629H1068.11L1050.74 428.89L1066.26 443.403Z" fill="#DEADB2"/>
<path d="M1048.95 443.403H1037.85L1022.34 428.89L1039.71 412.629H1050.81L1033.42 428.89L1048.95 443.403Z" fill="#DEADB2"/>
<path d="M1031.64 443.403H1020.55L1005.03 428.89L1022.4 412.629H1033.5L1016.11 428.89L1031.64 443.403Z" fill="#DEADB2"/>
<path d="M1014.32 443.403H1003.24L987.713 428.89L1005.1 412.629H1016.18L998.809 428.89L1014.32 443.403Z" fill="#DEADB2"/>
<path d="M997.014 443.403H985.934L970.407 428.89L987.791 412.629H998.871L981.502 428.89L997.014 443.403Z" fill="#DEADB2"/>
<path d="M480.923 209.709H471.747L458.888 197.693L473.276 184.226H482.468L468.064 197.693L480.923 209.709Z" fill="#F1C0C5"/>
<path d="M466.581 209.709H457.405L444.546 197.693L458.934 184.226H468.126L453.738 197.693L466.581 209.709Z" fill="#F1C0C5"/>
<path d="M452.256 209.709H443.064L430.205 197.693L444.609 184.226H453.785L439.397 197.693L452.256 209.709Z" fill="#F1C0C5"/>
<path d="M437.914 209.709H428.722L415.879 197.693L430.267 184.226H439.443L425.055 197.693L437.914 209.709Z" fill="#F1C0C5"/>
<path d="M423.572 209.709H414.396L401.537 197.693L415.925 184.226H425.117L410.713 197.693L423.572 209.709Z" fill="#F1C0C5"/>
<path d="M409.231 209.709H400.055L387.196 197.693L401.585 184.226H410.776L396.388 197.693L409.231 209.709Z" fill="#F1C0C5"/>
<path d="M394.905 209.709H385.714L372.855 197.693L387.258 184.226H396.435L382.046 197.693L394.905 209.709Z" fill="#F1C0C5"/>
<path d="M380.563 209.709H371.372L358.528 197.693L372.917 184.226H382.093L367.704 197.693L380.563 209.709Z" fill="#F1C0C5"/>
<path d="M366.222 209.709H357.046L344.187 197.693L358.575 184.226H367.767L353.363 197.693L366.222 209.709Z" fill="#F1C0C5"/>
<path d="M351.881 209.709H342.705L329.846 197.693L344.234 184.226H353.426L339.038 197.693L351.881 209.709Z" fill="#F1C0C5"/>
<path d="M337.555 209.709H328.363L315.504 197.693L329.908 184.226H339.084L324.696 197.693L337.555 209.709Z" fill="#F1C0C5"/>
</g>
</svg>
