<svg width="168" height="26" viewBox="0 0 168 26" fill="none" xmlns="http://www.w3.org/2000/svg">
<path d="M165.923 25.7095H156.747L143.888 13.6932L158.276 0.225586H167.468L153.064 13.6932L165.923 25.7095Z" fill="#F1C0C5"/>
<path d="M151.581 25.7095H142.405L129.546 13.6932L143.934 0.225586H153.126L138.738 13.6932L151.581 25.7095Z" fill="#F1C0C5"/>
<path d="M137.256 25.7095H128.064L115.205 13.6932L129.609 0.225586H138.785L124.397 13.6932L137.256 25.7095Z" fill="#F1C0C5"/>
<path d="M122.914 25.7095H113.722L100.879 13.6932L115.267 0.225586H124.443L110.055 13.6932L122.914 25.7095Z" fill="#F1C0C5"/>
<path d="M108.572 25.7095H99.3962L86.5372 13.6932L100.925 0.225586H110.117L95.7133 13.6932L108.572 25.7095Z" fill="#F1C0C5"/>
<path d="M94.2314 25.7095H85.0554L72.1964 13.6932L86.5847 0.225586H95.7764L81.3881 13.6932L94.2314 25.7095Z" fill="#F1C0C5"/>
<path d="M79.9053 25.7095H70.7136L57.8546 13.6932L72.2585 0.225586H81.4346L67.0463 13.6932L79.9053 25.7095Z" fill="#F1C0C5"/>
<path d="M65.5635 25.7095H56.3718L43.5284 13.6932L57.9167 0.225586H67.0928L52.7045 13.6932L65.5635 25.7095Z" fill="#F1C0C5"/>
<path d="M51.2217 25.7095H42.0456L29.1866 13.6932L43.5749 0.225586H52.7666L38.3627 13.6932L51.2217 25.7095Z" fill="#F1C0C5"/>
<path d="M36.8808 25.7095H27.7048L14.8458 13.6932L29.2341 0.225586H38.4258L24.0375 13.6932L36.8808 25.7095Z" fill="#F1C0C5"/>
<path d="M22.5547 25.7095H13.363L0.504015 13.6932L14.9079 0.225586H24.084L9.69571 13.6932L22.5547 25.7095Z" fill="#F1C0C5"/>
</svg>
