<svg width="154" height="16" viewBox="0 0 154 16" fill="none" xmlns="http://www.w3.org/2000/svg">
<path d="M129.022 15.357H138.775L153.491 0.0947266H143.738L129.022 15.357Z" fill="#F1C0C5"/>
<path d="M110.623 15.357H120.377L135.108 0.0947266H125.355L110.623 15.357Z" fill="#F1C0C5"/>
<path d="M92.2394 15.357H101.993L116.709 0.0947266H106.956L92.2394 15.357Z" fill="#F1C0C5"/>
<path d="M73.8401 15.357H83.5935L98.3252 0.0947266H88.5717L73.8401 15.357Z" fill="#F1C0C5"/>
<path d="M55.4574 15.357H65.2108L79.9424 0.0947266H70.1734L55.4574 15.357Z" fill="#F1C0C5"/>
<path d="M37.0588 15.357H46.8279L61.5439 0.0947266H51.7905L37.0588 15.357Z" fill="#F1C0C5"/>
<path d="M18.675 15.357H28.4285L43.1602 0.0947266H33.3911L18.675 15.357Z" fill="#F1C0C5"/>
<path d="M0.275623 15.357H10.0447L24.7607 0.0947266H15.0073L0.275623 15.357Z" fill="#F1C0C5"/>
</svg>
