<svg width="296" height="46" viewBox="0 0 296 46" fill="none" xmlns="http://www.w3.org/2000/svg">
<path d="M292.606 0.39864H276.361L253.649 21.646L279.08 45.4521H295.325L269.872 21.646L292.606 0.39864Z" fill="#DEADB2"/>
<path d="M267.267 0.39864H251.022L228.31 21.646L253.741 45.4521H269.986L244.533 21.646L267.267 0.39864Z" fill="#DEADB2"/>
<path d="M241.905 0.39864H225.682L202.948 21.646L228.401 45.4521H244.624L219.193 21.646L241.905 0.39864Z" fill="#DEADB2"/>
<path d="M216.566 0.39864H200.344L177.609 21.646L203.063 45.4521H219.285L193.854 21.646L216.566 0.39864Z" fill="#DEADB2"/>
<path d="M191.226 0.39864H174.981L152.269 21.646L177.7 45.4521H193.945L168.492 21.646L191.226 0.39864Z" fill="#DEADB2"/>
<path d="M165.887 0.39864H149.641L126.93 21.646L152.36 45.4521H168.583L143.152 21.646L165.887 0.39864Z" fill="#DEADB2"/>
<path d="M140.525 0.39864H124.303L101.568 21.646L127.022 45.4521H143.244L117.813 21.646L140.525 0.39864Z" fill="#DEADB2"/>
<path d="M115.186 0.39864H98.9408L76.2292 21.646L101.66 45.4521H117.905L92.4517 21.646L115.186 0.39864Z" fill="#DEADB2"/>
<path d="M89.8464 0.39864H73.6009L50.8893 21.646L76.3199 45.4521H92.5654L67.1119 21.646L89.8464 0.39864Z" fill="#DEADB2"/>
<path d="M64.4851 0.39864H48.2625L25.528 21.646L50.9815 45.4521H67.2041L41.7734 21.646L64.4851 0.39864Z" fill="#DEADB2"/>
<path d="M39.1443 0.39864H22.9216L0.187176 21.646L25.6407 45.4521H41.8633L16.4326 21.646L39.1443 0.39864Z" fill="#DEADB2"/>
</svg>
