<svg width="1201" height="1215" viewBox="0 0 1201 1215" fill="none" xmlns="http://www.w3.org/2000/svg">
<path d="M593.796 166.346C837.295 166.346 1035.42 364.426 1035.42 607.925C1035.42 851.424 837.295 1049.48 593.796 1049.48C350.297 1049.48 152.175 851.401 152.175 607.902C152.175 364.403 350.274 166.323 593.796 166.323V166.346ZM593.796 1038.79C831.4 1038.79 1024.7 845.507 1024.7 607.925C1024.7 370.343 831.4 177.061 593.796 177.061C356.192 177.061 162.892 370.343 162.892 607.925C162.892 845.507 356.192 1038.79 593.796 1038.79Z" fill="#F1C0C5"/>
<path d="M593.797 106.123C870.518 106.123 1095.62 331.231 1095.62 607.903C1095.62 884.576 870.495 1109.71 593.797 1109.71C317.098 1109.71 91.9697 884.598 91.9697 607.926C91.9697 331.254 317.098 106.146 593.797 106.146V106.123ZM593.797 1069.56C848.378 1069.56 1055.48 862.46 1055.48 607.926C1055.48 353.392 848.378 146.288 593.797 146.288C339.216 146.288 132.115 353.369 132.115 607.926C132.115 862.483 339.216 1069.56 593.797 1069.56Z" fill="#F1C0C5"/>
<path d="M593.796 14.5986C920.967 14.5986 1187.16 280.762 1187.16 607.925C1187.16 935.088 920.967 1201.23 593.796 1201.23C266.625 1201.23 0.436523 935.066 0.436523 607.925C0.436523 280.784 266.625 14.6215 593.796 14.6215V14.5986ZM593.796 1197.48C918.911 1197.48 1183.41 933.009 1183.41 607.925C1183.41 282.841 918.911 18.3455 593.773 18.3455C268.635 18.3455 4.13806 282.818 4.13806 607.925C4.13806 933.032 268.658 1197.48 593.796 1197.48Z" fill="#F1C0C5"/>
<path d="M593.796 186.017C826.465 186.017 1015.74 375.278 1015.74 607.925C1015.74 840.572 826.442 1029.81 593.796 1029.81C361.15 1029.81 171.848 840.549 171.848 607.902C171.848 375.255 361.127 185.994 593.796 185.994V186.017ZM593.796 1026.09C824.386 1026.09 1012 838.493 1012 607.925C1012 377.357 824.386 189.764 593.796 189.764C363.207 189.764 175.595 377.357 175.595 607.925C175.595 838.493 363.207 1026.09 593.796 1026.09Z" fill="#F1C0C5"/>
<path d="M240.846 568.034C218.847 762.915 359.01 938.73 553.91 960.727C748.81 982.725 924.641 842.574 946.64 647.693C968.64 452.812 828.476 276.997 633.576 255C438.677 233.002 262.845 373.153 240.846 568.034Z" fill="#F1C0C5"/>
<path d="M913.451 606.509C913.451 783.045 770.327 926.133 593.797 926.133C417.268 926.133 274.12 783.045 274.12 606.509C274.12 429.973 417.245 286.885 593.797 286.885C770.349 286.885 913.451 429.996 913.451 606.509Z" fill="#F8D5D1"/>
<path d="M346.188 598.777C341.15 735.512 447.922 850.441 584.67 855.479C721.418 860.517 836.358 753.755 841.396 617.02C846.434 480.285 739.663 365.356 602.915 360.318C466.167 355.28 351.226 462.042 346.188 598.777Z" fill="#F1C0C5"/>
<path d="M816.8 606.944C816.8 730.11 716.951 829.949 593.773 829.949C470.595 829.949 370.746 730.11 370.746 606.944C370.746 483.777 470.595 383.938 593.773 383.938C716.951 383.938 816.8 483.777 816.8 606.944Z" fill="#F1C0C5"/>
<path d="M578.235 1199.36C578.235 1190.77 585.204 1183.8 593.795 1183.8C602.387 1183.8 609.355 1190.77 609.355 1199.36C609.355 1207.95 602.387 1214.91 593.795 1214.91C585.204 1214.91 578.235 1207.95 578.235 1199.36Z" fill="#F1C0C5"/>
<path d="M578.235 16.4727C578.235 7.88239 585.204 0.914185 593.795 0.914185C602.387 0.914185 609.355 7.88239 609.355 16.4727C609.355 25.063 602.387 32.0312 593.795 32.0312C585.204 32.0312 578.235 25.063 578.235 16.4727Z" fill="#F1C0C5"/>
<path d="M1185.28 592.344C1193.87 592.344 1200.84 599.312 1200.84 607.902C1200.84 616.493 1193.87 623.461 1185.28 623.461C1176.69 623.461 1169.72 616.493 1169.72 607.902C1169.72 599.312 1176.69 592.344 1185.28 592.344Z" fill="#F1C0C5"/>
<path d="M164.535 1015.12C170.613 1009.04 180.461 1009.04 186.538 1015.12C192.616 1021.2 192.616 1031.04 186.538 1037.12C180.461 1043.2 170.613 1043.2 164.535 1037.12C158.457 1031.04 158.457 1021.2 164.535 1015.12Z" fill="#F1C0C5"/>
<path d="M1001.03 178.707C1007.11 172.629 1016.95 172.629 1023.03 178.707C1029.11 184.784 1029.11 194.631 1023.03 200.708C1016.95 206.785 1007.11 206.785 1001.03 200.708C994.951 194.631 994.951 184.784 1001.03 178.707Z" fill="#F1C0C5"/>
<path d="M186.538 178.707C192.616 184.784 192.616 194.631 186.538 200.708C180.461 206.785 170.613 206.785 164.535 200.708C158.457 194.631 158.457 184.784 164.535 178.707C170.613 172.629 180.461 172.629 186.538 178.707Z" fill="#F1C0C5"/>
<path d="M1023.03 1015.12C1029.11 1021.2 1029.11 1031.04 1023.03 1037.12C1016.95 1043.2 1007.11 1043.2 1001.03 1037.12C994.951 1031.04 994.951 1021.2 1001.03 1015.12C1007.11 1009.04 1016.95 1009.04 1023.03 1015.12Z" fill="#F1C0C5"/>
<path d="M589.228 1174.2H598.367V1135.61H589.228V1174.2Z" fill="#F1C0C5"/>
<path d="M589.228 80.2148H598.367V41.627H589.228V80.2148Z" fill="#F1C0C5"/>
<path d="M608.993 1174L618.127 1173.68L616.78 1135.12L607.646 1135.44L608.993 1174Z" fill="#F1C0C5"/>
<path d="M570.822 80.6836L579.956 80.3662L578.616 41.8015L569.482 42.1189L570.822 80.6836Z" fill="#F1C0C5"/>
<path d="M628.751 1173.18L637.868 1172.54L635.176 1134.05L626.059 1134.68L628.751 1173.18Z" fill="#F1C0C5"/>
<path d="M552.391 81.8289L561.508 81.1914L558.814 42.6747L549.697 43.3122L552.391 81.8289Z" fill="#F1C0C5"/>
<path d="M648.424 1171.54L657.514 1170.59L653.486 1132.21L644.397 1133.17L648.424 1171.54Z" fill="#F1C0C5"/>
<path d="M534.081 83.5744L543.171 82.6191L539.135 44.2199L530.045 45.1752L534.081 83.5744Z" fill="#F1C0C5"/>
<path d="M668.088 1169.32L677.139 1168.05L671.774 1129.83L662.724 1131.1L668.088 1169.32Z" fill="#F1C0C5"/>
<path d="M515.773 86.0033L524.823 84.7314L519.452 46.519L510.402 47.7909L515.773 86.0033Z" fill="#F1C0C5"/>
<path d="M687.637 1166.43L696.638 1164.85L689.936 1126.84L680.936 1128.43L687.637 1166.43Z" fill="#F1C0C5"/>
<path d="M497.698 88.976L506.699 87.3906L500.004 49.3877L491.004 50.9731L497.698 88.976Z" fill="#F1C0C5"/>
<path d="M707.057 1162.76L715.997 1160.86L707.973 1123.11L699.034 1125.01L707.057 1162.76Z" fill="#F1C0C5"/>
<path d="M479.602 92.6594L488.541 90.7578L480.506 52.9922L471.567 54.8938L479.602 92.6594Z" fill="#F1C0C5"/>
<path d="M726.365 1158.45L735.233 1156.24L725.897 1118.8L717.029 1121.01L726.365 1158.45Z" fill="#F1C0C5"/>
<path d="M461.707 96.9472L470.575 94.7363L461.239 57.2946L452.371 59.5054L461.707 96.9472Z" fill="#F1C0C5"/>
<path d="M745.505 1153.58L754.29 1151.06L743.653 1113.97L734.867 1116.49L745.505 1153.58Z" fill="#F1C0C5"/>
<path d="M443.95 101.885L452.735 99.3643L442.085 62.2511L433.3 64.7716L443.95 101.885Z" fill="#F1C0C5"/>
<path d="M764.443 1147.93L773.135 1145.11L761.202 1108.39L752.51 1111.21L764.443 1147.93Z" fill="#F1C0C5"/>
<path d="M426.378 107.439L435.07 104.615L423.145 67.916L414.453 70.74L426.378 107.439Z" fill="#F1C0C5"/>
<path d="M783.187 1141.6L791.776 1138.48L778.584 1102.21L769.995 1105.34L783.187 1141.6Z" fill="#F1C0C5"/>
<path d="M408.937 113.68L417.524 110.553L404.319 74.2943L395.731 77.4214L408.937 113.68Z" fill="#F1C0C5"/>
<path d="M801.689 1134.71L810.163 1131.29L795.706 1095.51L787.232 1098.94L801.689 1134.71Z" fill="#F1C0C5"/>
<path d="M391.804 120.383L400.277 116.958L385.806 81.1613L377.332 84.5861L391.804 120.383Z" fill="#F1C0C5"/>
<path d="M819.966 1127.09L828.315 1123.37L812.619 1088.12L804.269 1091.84L819.966 1127.09Z" fill="#F1C0C5"/>
<path d="M374.932 127.704L383.281 123.987L367.575 88.7146L359.226 92.4316L374.932 127.704Z" fill="#F1C0C5"/>
<path d="M837.973 1118.96L846.187 1114.95L829.253 1080.25L821.039 1084.26L837.973 1118.96Z" fill="#F1C0C5"/>
<path d="M358.314 135.667L366.527 131.659L349.604 96.9795L341.39 100.987L358.314 135.667Z" fill="#F1C0C5"/>
<path d="M855.632 1110.06L863.702 1105.77L845.585 1071.7L837.515 1075.99L855.632 1110.06Z" fill="#F1C0C5"/>
<path d="M341.983 144.124L350.052 139.832L331.917 105.744L323.849 110.036L341.983 144.124Z" fill="#F1C0C5"/>
<path d="M873.018 1100.65L880.933 1096.08L861.631 1062.66L853.717 1067.23L873.018 1100.65Z" fill="#F1C0C5"/>
<path d="M325.968 153.145L333.883 148.576L314.576 115.138L306.661 119.708L325.968 153.145Z" fill="#F1C0C5"/>
<path d="M890.03 1090.59L897.78 1085.75L877.318 1053L869.567 1057.85L890.03 1090.59Z" fill="#F1C0C5"/>
<path d="M310.272 162.727L318.022 157.884L297.56 125.14L289.809 129.983L310.272 162.727Z" fill="#F1C0C5"/>
<path d="M906.682 1079.93L914.26 1074.82L892.685 1042.83L885.107 1047.94L906.682 1079.93Z" fill="#F1C0C5"/>
<path d="M294.894 172.898L302.471 167.788L280.878 135.778L273.301 140.889L294.894 172.898Z" fill="#F1C0C5"/>
<path d="M922.987 1068.75L930.38 1063.38L907.691 1032.17L900.298 1037.54L922.987 1068.75Z" fill="#F1C0C5"/>
<path d="M279.899 183.681L287.293 178.31L264.596 147.073L257.202 152.444L279.899 183.681Z" fill="#F1C0C5"/>
<path d="M938.862 1056.95L946.064 1051.32L922.305 1020.91L915.103 1026.54L938.862 1056.95Z" fill="#F1C0C5"/>
<path d="M265.263 195.032L272.464 189.404L248.685 158.983L241.484 164.61L265.263 195.032Z" fill="#F1C0C5"/>
<path d="M954.315 1044.7L961.316 1038.82L936.51 1009.26L929.509 1015.14L954.315 1044.7Z" fill="#F1C0C5"/>
<path d="M251.069 206.631L258.069 200.756L233.243 171.183L226.243 177.058L251.069 206.631Z" fill="#F1C0C5"/>
<path d="M969.356 1031.82L976.148 1025.7L950.326 997.028L943.534 1003.14L969.356 1031.82Z" fill="#F1C0C5"/>
<path d="M237.242 218.902L244.033 212.786L218.19 184.097L211.399 190.213L237.242 218.902Z" fill="#F1C0C5"/>
<path d="M983.918 1018.48L990.49 1012.13L963.673 984.385L957.1 990.736L983.918 1018.48Z" fill="#F1C0C5"/>
<path d="M223.892 231.552L230.465 225.202L203.636 197.433L197.063 203.782L223.892 231.552Z" fill="#F1C0C5"/>
<path d="M998.003 1004.59L1004.35 998.014L976.575 971.192L970.226 977.766L998.003 1004.59Z" fill="#F1C0C5"/>
<path d="M210.988 244.685L217.336 238.11L189.571 211.31L183.223 217.885L210.988 244.685Z" fill="#F1C0C5"/>
<path d="M1011.61 990.239L1017.73 983.447L989.032 957.612L982.917 964.403L1011.61 990.239Z" fill="#F1C0C5"/>
<path d="M198.538 258.238L204.653 251.446L175.957 225.611L169.842 232.402L198.538 258.238Z" fill="#F1C0C5"/>
<path d="M1024.7 975.411L1030.57 968.41L1001.01 943.606L995.137 950.607L1024.7 975.411Z" fill="#F1C0C5"/>
<path d="M186.585 272.302L192.457 265.3L162.868 240.492L156.996 247.494L186.585 272.302Z" fill="#F1C0C5"/>
<path d="M1037.25 960.167L1042.88 952.967L1012.46 929.19L1006.83 936.391L1037.25 960.167Z" fill="#F1C0C5"/>
<path d="M175.094 286.551L180.721 279.35L150.292 255.578L144.665 262.78L175.094 286.551Z" fill="#F1C0C5"/>
<path d="M1049.29 944.479L1054.66 937.085L1023.41 914.396L1018.04 921.79L1049.29 944.479Z" fill="#F1C0C5"/>
<path d="M164.138 301.376L169.509 293.981L138.265 271.292L132.894 278.686L164.138 301.376Z" fill="#F1C0C5"/>
<path d="M1060.77 928.371L1065.88 920.794L1033.86 899.209L1028.75 906.786L1060.77 928.371Z" fill="#F1C0C5"/>
<path d="M153.687 316.612L158.797 309.035L126.78 287.45L121.671 295.027L153.687 316.612Z" fill="#F1C0C5"/>
<path d="M1071.67 911.872L1076.51 904.122L1043.78 883.674L1038.94 891.424L1071.67 911.872Z" fill="#F1C0C5"/>
<path d="M143.793 332.11L148.635 324.359L115.884 303.904L111.042 311.655L143.793 332.11Z" fill="#F1C0C5"/>
<path d="M1081.97 895.019L1086.54 887.104L1053.12 867.811L1048.55 875.725L1081.97 895.019Z" fill="#F1C0C5"/>
<path d="M134.435 347.981L139.003 340.065L105.559 320.766L100.99 328.681L134.435 347.981Z" fill="#F1C0C5"/>
<path d="M1091.69 877.819L1095.98 869.75L1061.9 851.634L1057.61 859.703L1091.69 877.819Z" fill="#F1C0C5"/>
<path d="M125.721 364.316L130.012 356.247L95.9172 338.12L91.6265 346.189L125.721 364.316Z" fill="#F1C0C5"/>
<path d="M1100.83 860.29L1104.83 852.075L1070.15 835.165L1066.14 843.38L1100.83 860.29Z" fill="#F1C0C5"/>
<path d="M117.475 380.785L121.48 372.57L86.7917 355.661L82.7866 363.875L117.475 380.785Z" fill="#F1C0C5"/>
<path d="M1109.3 842.415L1113.02 834.066L1077.77 818.371L1074.05 826.72L1109.3 842.415Z" fill="#F1C0C5"/>
<path d="M109.792 397.445L113.508 389.096L78.2291 373.397L74.5132 381.747L109.792 397.445Z" fill="#F1C0C5"/>
<path d="M1117.17 824.3L1120.6 815.827L1084.81 801.372L1081.39 809.845L1117.17 824.3Z" fill="#F1C0C5"/>
<path d="M102.688 414.388L106.113 405.915L70.3132 391.445L66.888 399.918L102.688 414.388Z" fill="#F1C0C5"/>
<path d="M1124.42 805.873L1127.54 797.285L1091.28 784.087L1088.15 792.675L1124.42 805.873Z" fill="#F1C0C5"/>
<path d="M96.2384 431.647L99.3643 423.06L63.0786 409.854L59.9527 418.441L96.2384 431.647Z" fill="#F1C0C5"/>
<path d="M1131 787.264L1133.83 778.572L1097.13 766.648L1094.3 775.339L1131 787.264Z" fill="#F1C0C5"/>
<path d="M90.4091 449.17L93.2334 440.479L56.5089 428.547L53.6847 437.239L90.4091 449.17Z" fill="#F1C0C5"/>
<path d="M1136.94 768.43L1139.46 759.646L1102.36 749.009L1099.84 757.794L1136.94 768.43Z" fill="#F1C0C5"/>
<path d="M85.1859 466.804L87.7051 458.02L50.5865 447.377L48.0674 456.162L85.1859 466.804Z" fill="#F1C0C5"/>
<path d="M1142.2 749.322L1144.41 740.455L1106.96 731.12L1104.75 739.987L1142.2 749.322Z" fill="#F1C0C5"/>
<path d="M80.6386 484.746L82.8496 475.879L45.4044 466.544L43.1934 475.411L80.6386 484.746Z" fill="#F1C0C5"/>
<path d="M1146.81 730.097L1148.71 721.158L1110.96 713.135L1109.06 722.074L1146.81 730.097Z" fill="#F1C0C5"/>
<path d="M76.6887 502.744L78.5889 493.805L40.8407 485.782L38.9405 494.721L76.6887 502.744Z" fill="#F1C0C5"/>
<path d="M1150.75 710.727L1152.34 701.728L1114.33 695.027L1112.75 704.027L1150.75 710.727Z" fill="#F1C0C5"/>
<path d="M73.1952 520.729L74.7822 511.729L36.7545 505.025L35.1674 514.025L73.1952 520.729Z" fill="#F1C0C5"/>
<path d="M1153.98 691.199L1155.26 682.149L1117.04 676.779L1115.77 685.829L1153.98 691.199Z" fill="#F1C0C5"/>
<path d="M70.5513 539.023L71.8232 529.974L33.5846 524.6L32.3126 533.65L70.5513 539.023Z" fill="#F1C0C5"/>
<path d="M1156.57 671.683L1157.52 662.595L1119.14 658.568L1118.18 667.657L1156.57 671.683Z" fill="#F1C0C5"/>
<path d="M68.4704 557.356L69.4258 548.268L31.0457 544.234L30.0903 553.323L68.4704 557.356Z" fill="#F1C0C5"/>
<path d="M1158.42 651.976L1159.06 642.859L1120.56 640.168L1119.92 649.284L1158.42 651.976Z" fill="#F1C0C5"/>
<path d="M66.9357 575.637L67.5732 566.521L29.0757 563.829L28.4382 572.945L66.9357 575.637Z" fill="#F1C0C5"/>
<path d="M1159.62 632.228L1159.94 623.095L1121.37 621.748L1121.06 630.881L1159.62 632.228Z" fill="#F1C0C5"/>
<path d="M66.2549 594.107L66.5723 584.974L27.9812 583.633L27.6638 592.766L66.2549 594.107Z" fill="#F1C0C5"/>
<path d="M1121.53 612.496H1160.13V603.357H1121.53V612.496Z" fill="#F1C0C5"/>
<path d="M27.4217 612.496H66.0361V603.357H27.4217V612.496Z" fill="#F1C0C5"/>
<path d="M1121.39 594.063L1159.96 592.717L1159.64 583.584L1121.07 584.93L1121.39 594.063Z" fill="#F1C0C5"/>
<path d="M27.9287 632.265L66.5195 630.918L66.2006 621.785L27.6098 623.132L27.9287 632.265Z" fill="#F1C0C5"/>
<path d="M1120.61 575.678L1159.11 572.986L1158.47 563.87L1119.98 566.562L1120.61 575.678Z" fill="#F1C0C5"/>
<path d="M29.1301 652.019L67.6494 649.312L67.0087 640.196L28.4894 642.903L29.1301 652.019Z" fill="#F1C0C5"/>
<path d="M1119.16 557.293L1157.54 553.253L1156.58 544.165L1118.2 548.205L1119.16 557.293Z" fill="#F1C0C5"/>
<path d="M31.0061 671.657L69.4082 667.614L68.4513 658.526L30.0491 662.568L31.0061 671.657Z" fill="#F1C0C5"/>
<path d="M1117.07 538.995L1155.28 533.618L1154.01 524.569L1115.79 529.946L1117.07 538.995Z" fill="#F1C0C5"/>
<path d="M33.5797 691.251L71.8184 685.877L70.5464 676.827L32.3077 682.201L33.5797 691.251Z" fill="#F1C0C5"/>
<path d="M1114.34 520.77L1152.35 514.062L1150.76 505.063L1112.76 511.77L1114.34 520.77Z" fill="#F1C0C5"/>
<path d="M36.8278 710.794L74.8545 704.083L73.2659 695.083L35.2392 701.795L36.8278 710.794Z" fill="#F1C0C5"/>
<path d="M1110.97 502.672L1148.72 494.636L1146.81 485.697L1109.07 493.734L1110.97 502.672Z" fill="#F1C0C5"/>
<path d="M40.7377 730.216L78.5068 722.182L76.6051 713.243L38.8359 721.277L40.7377 730.216Z" fill="#F1C0C5"/>
<path d="M1107 484.693L1144.45 475.357L1142.24 466.49L1104.79 475.825L1107 484.693Z" fill="#F1C0C5"/>
<path d="M45.348 749.31L82.8154 739.969L80.6044 731.102L43.1369 740.442L45.348 749.31Z" fill="#F1C0C5"/>
<path d="M1102.34 466.857L1139.44 456.221L1136.92 447.436L1099.83 458.072L1102.34 466.857Z" fill="#F1C0C5"/>
<path d="M50.6227 768.484L87.7412 757.842L85.222 749.057L48.1035 759.7L50.6227 768.484Z" fill="#F1C0C5"/>
<path d="M1097.15 449.19L1133.85 437.266L1131.02 428.574L1094.32 440.499L1097.15 449.19Z" fill="#F1C0C5"/>
<path d="M56.5646 787.228L93.2891 775.297L90.4648 766.606L53.7403 778.537L56.5646 787.228Z" fill="#F1C0C5"/>
<path d="M1091.23 431.77L1127.49 418.565L1124.37 409.978L1088.1 423.183L1091.23 431.77Z" fill="#F1C0C5"/>
<path d="M63.1444 805.995L99.4277 792.783L96.3003 784.196L60.017 797.408L63.1444 805.995Z" fill="#F1C0C5"/>
<path d="M1084.79 414.517L1120.57 400.056L1117.14 391.583L1081.36 406.045L1084.79 414.517Z" fill="#F1C0C5"/>
<path d="M70.3806 824.354L106.181 809.884L102.755 801.411L66.9554 815.881L70.3806 824.354Z" fill="#F1C0C5"/>
<path d="M1077.78 397.439L1113.03 381.744L1109.31 373.396L1074.06 389.091L1077.78 397.439Z" fill="#F1C0C5"/>
<path d="M78.2367 842.428L113.513 826.724L109.795 818.375L74.5193 834.079L78.2367 842.428Z" fill="#F1C0C5"/>
<path d="M1070.16 380.684L1104.84 363.769L1100.84 355.555L1066.15 372.471L1070.16 380.684Z" fill="#F1C0C5"/>
<path d="M86.7682 860.236L121.454 843.32L117.448 835.107L82.7617 852.022L86.7682 860.236Z" fill="#F1C0C5"/>
<path d="M1061.97 364.16L1096.04 346.044L1091.75 337.975L1057.67 356.091L1061.97 364.16Z" fill="#F1C0C5"/>
<path d="M95.894 877.921L129.985 859.788L125.693 851.72L91.6019 869.852L95.894 877.921Z" fill="#F1C0C5"/>
<path d="M1053.11 348.02L1086.53 328.721L1081.96 320.807L1048.54 340.107L1053.11 348.02Z" fill="#F1C0C5"/>
<path d="M105.565 894.952L139.01 875.652L134.441 867.737L100.997 887.037L105.565 894.952Z" fill="#F1C0C5"/>
<path d="M1043.84 332.106L1076.57 311.657L1071.72 303.907L1038.99 324.356L1043.84 332.106Z" fill="#F1C0C5"/>
<path d="M115.905 911.863L148.652 891.402L143.809 883.652L111.062 904.113L115.905 911.863Z" fill="#F1C0C5"/>
<path d="M1033.92 316.579L1065.91 295.001L1060.8 287.425L1028.81 309.003L1033.92 316.579Z" fill="#F1C0C5"/>
<path d="M126.784 928.296L158.797 906.705L153.686 899.129L121.673 920.72L126.784 928.296Z" fill="#F1C0C5"/>
<path d="M1023.46 301.431L1054.7 278.736L1049.33 271.343L1018.09 294.038L1023.46 301.431Z" fill="#F1C0C5"/>
<path d="M138.26 944.421L169.5 921.727L164.128 914.333L132.888 937.028L138.26 944.421Z" fill="#F1C0C5"/>
<path d="M1012.49 286.614L1042.9 262.856L1037.27 255.655L1006.86 279.412L1012.49 286.614Z" fill="#F1C0C5"/>
<path d="M150.323 960.192L180.752 936.421L175.125 929.22L144.697 952.991L150.323 960.192Z" fill="#F1C0C5"/>
<path d="M1001.01 272.216L1030.57 247.412L1024.69 240.412L995.131 265.215L1001.01 272.216Z" fill="#F1C0C5"/>
<path d="M162.889 975.447L192.47 950.629L186.595 943.628L157.015 968.447L162.889 975.447Z" fill="#F1C0C5"/>
<path d="M989.061 258.187L1017.74 232.366L1011.62 225.575L982.946 251.395L989.061 258.187Z" fill="#F1C0C5"/>
<path d="M175.945 990.21L204.641 964.374L198.525 957.583L169.829 983.418L175.945 990.21Z" fill="#F1C0C5"/>
<path d="M976.614 244.63L1004.37 217.819L998.02 211.247L970.264 238.057L976.614 244.63Z" fill="#F1C0C5"/>
<path d="M189.565 1004.59L217.342 977.773L210.993 971.2L183.216 998.021L189.565 1004.59Z" fill="#F1C0C5"/>
<path d="M963.675 231.518L990.487 203.765L983.914 197.415L957.101 225.168L963.675 231.518Z" fill="#F1C0C5"/>
<path d="M203.683 1018.49L230.497 990.71L223.92 984.364L197.106 1012.15L203.683 1018.49Z" fill="#F1C0C5"/>
<path d="M950.318 218.836L976.136 190.155L969.343 184.042L943.525 212.722L950.318 218.836Z" fill="#F1C0C5"/>
<path d="M218.248 1031.88L244.076 1003.17L237.282 997.06L211.454 1025.76L218.248 1031.88Z" fill="#F1C0C5"/>
<path d="M936.54 206.566L961.341 177.002L954.339 171.129L929.538 200.693L936.54 206.566Z" fill="#F1C0C5"/>
<path d="M233.233 1044.64L258.049 1015.06L251.047 1009.19L226.231 1038.77L233.233 1044.64Z" fill="#F1C0C5"/>
<path d="M922.313 194.85L946.072 164.442L938.87 158.816L915.111 189.224L922.313 194.85Z" fill="#F1C0C5"/>
<path d="M248.738 1057L272.512 1026.57L265.31 1020.94L241.536 1051.37L248.738 1057Z" fill="#F1C0C5"/>
<path d="M907.673 183.738L930.356 152.52L922.962 147.148L900.279 178.366L907.673 183.738Z" fill="#F1C0C5"/>
<path d="M264.629 1068.8L287.326 1037.56L279.932 1032.19L257.235 1063.43L264.629 1068.8Z" fill="#F1C0C5"/>
<path d="M892.679 173.011L914.254 141.017L906.676 135.908L885.101 167.902L892.679 173.011Z" fill="#F1C0C5"/>
<path d="M280.909 1079.99L302.496 1047.97L294.918 1042.86L273.331 1074.88L280.909 1079.99Z" fill="#F1C0C5"/>
<path d="M877.346 162.802L897.791 130.074L890.039 125.233L869.595 157.961L877.346 162.802Z" fill="#F1C0C5"/>
<path d="M297.551 1090.6L318.008 1057.85L310.256 1053.01L289.799 1085.76L297.551 1090.6Z" fill="#F1C0C5"/>
<path d="M861.621 153.224L880.917 119.806L873.002 115.236L853.706 148.654L861.621 153.224Z" fill="#F1C0C5"/>
<path d="M314.657 1100.69L333.958 1067.25L326.042 1062.68L306.741 1096.12L314.657 1100.69Z" fill="#F1C0C5"/>
<path d="M845.607 144.046L863.719 109.972L855.648 105.683L837.537 139.757L845.607 144.046Z" fill="#F1C0C5"/>
<path d="M332.008 1110.12L350.124 1076.02L342.053 1071.73L323.936 1105.83L332.008 1110.12Z" fill="#F1C0C5"/>
<path d="M829.244 135.581L846.168 100.901L837.954 96.8938L821.031 131.573L829.244 135.581Z" fill="#F1C0C5"/>
<path d="M349.647 1118.93L366.574 1084.23L358.36 1080.22L341.432 1114.92L349.647 1118.93Z" fill="#F1C0C5"/>
<path d="M812.633 127.657L828.329 92.4053L819.98 88.6883L804.283 123.94L812.633 127.657Z" fill="#F1C0C5"/>
<path d="M367.595 1127.1L383.301 1091.83L374.951 1088.11L359.246 1123.38L367.595 1127.1Z" fill="#F1C0C5"/>
<path d="M795.714 120.406L810.164 84.625L801.689 81.2031L787.239 116.984L795.714 120.406Z" fill="#F1C0C5"/>
<path d="M385.925 1134.75L400.384 1098.95L391.909 1095.53L377.45 1131.33L385.925 1134.75Z" fill="#F1C0C5"/>
<path d="M778.604 113.556L791.797 77.293L783.208 74.1689L770.015 110.432L778.604 113.556Z" fill="#F1C0C5"/>
<path d="M404.366 1141.62L417.566 1105.34L408.978 1102.22L395.777 1138.5L404.366 1141.62Z" fill="#F1C0C5"/>
<path d="M761.218 107.486L773.144 70.7871L764.451 67.9631L752.526 104.662L761.218 107.486Z" fill="#F1C0C5"/>
<path d="M423.066 1147.91L434.985 1111.19L426.292 1108.37L414.373 1145.09L423.066 1147.91Z" fill="#F1C0C5"/>
<path d="M743.672 101.993L754.296 64.8965L745.51 62.3806L734.885 99.4774L743.672 101.993Z" fill="#F1C0C5"/>
<path d="M442.046 1153.53L452.683 1116.42L443.897 1113.9L433.26 1151.02L442.046 1153.53Z" fill="#F1C0C5"/>
<path d="M725.892 96.957L735.222 59.5137L726.353 57.3044L717.024 94.7477L725.892 96.957Z" fill="#F1C0C5"/>
<path d="M461.221 1158.5L470.556 1121.03L461.687 1118.82L452.352 1156.29L461.221 1158.5Z" fill="#F1C0C5"/>
<path d="M707.983 92.7632L716.007 55.0186L707.067 53.1185L699.043 90.8632L707.983 92.7632Z" fill="#F1C0C5"/>
<path d="M480.558 1162.83L488.586 1125.06L479.646 1123.16L471.618 1160.93L480.558 1162.83Z" fill="#F1C0C5"/>
<path d="M689.957 89.0372L696.646 51.0332L687.644 49.4494L680.956 87.4534L689.957 89.0372Z" fill="#F1C0C5"/>
<path d="M499.98 1166.41L506.672 1128.38L497.671 1126.8L490.979 1164.82L499.98 1166.41Z" fill="#F1C0C5"/>
<path d="M671.755 85.9985L677.126 47.7861L668.075 46.5143L662.705 84.7267L671.755 85.9985Z" fill="#F1C0C5"/>
<path d="M519.493 1169.35L524.867 1131.12L515.817 1129.85L510.443 1168.08L519.493 1169.35Z" fill="#F1C0C5"/>
<path d="M653.48 83.5123L657.514 45.1357L648.424 44.1805L644.39 82.557L653.48 83.5123Z" fill="#F1C0C5"/>
<path d="M539.119 1171.62L543.155 1133.22L534.066 1132.26L530.03 1170.66L539.119 1171.62Z" fill="#F1C0C5"/>
<path d="M635.192 81.9021L637.884 43.4082L628.767 42.7707L626.075 81.2646L635.192 81.9021Z" fill="#F1C0C5"/>
<path d="M558.825 1173.16L561.505 1134.64L552.387 1134.01L549.707 1172.53L558.825 1173.16Z" fill="#F1C0C5"/>
<path d="M616.747 80.6144L618.087 42.0498L608.953 41.7325L607.613 80.2971L616.747 80.6144Z" fill="#F1C0C5"/>
<path d="M578.569 1174.02L579.91 1135.44L570.776 1135.12L569.435 1173.71L578.569 1174.02Z" fill="#F1C0C5"/>
</svg>
